<svg xmlns="http://www.w3.org/2000/svg" width="148.39" height="146.62" viewBox="0 0 148.39 146.62"><defs><style>.cls-1{fill:#ffa7d7;}.cls-2{fill:#ff6d00;}</style></defs><g id="_2" data-name="2"><path class="cls-1" d="M82.31,36.16c2.53-4.74,3.08-4.32,9.18-14.69C97.1,12,97.77,9.67,101.18,6.93c4.76-3.81,13.46-7.39,18.68-4,6.51,4.23,5.1,17.64,1.28,26.13-2.48,5.51-5.51,7.94-17.69,18C80.31,66.32,77.59,68.9,75.65,67.7,71.39,65.06,76.16,47.66,82.31,36.16Z"/><path class="cls-1" d="M53.71,45.39C45.84,32,38.81,20,44.13,10.11,47.61,3.66,56.07-1.38,62.72.34,76,3.77,76.35,32.56,76.43,38.28c0,3.13.31,23.69-6.19,25.25C65.07,64.78,58.36,53.33,53.71,45.39Z"/><path class="cls-1" d="M88,92.13c5.56,9.06,9.8,12.92,12.67,22.69,1.55,5.29,3.09,10.83,1,17.09-2.75,8.32-11.22,15.92-18,14.55-1-.2-3.65-.93-6.39-4.69-12.73-17.49-9.61-76.79-2.06-77C78.34,64.69,77.13,74.41,88,92.13Z"/><path class="cls-1" d="M56.69,117.35C51.37,127.53,45,139.67,38,138.87c-6.09-.69-11.58-11.1-10.74-20.08.77-8.29,6.62-11.71,19-24.81C64.08,75.19,67.41,66,70.13,67.2,74.67,69.19,68,95.81,56.69,117.35Z"/><path class="cls-1" d="M116.24,78.62c6.56.69,11.44.45,16.19,4.21,7.33,5.81,10.8,18.28,6.37,23.77-5.85,7.24-24.21.86-33.52-3.95C85,92.16,72.36,70.77,75.93,66.59,79,63,90.4,75.9,116.24,78.62Z"/><path class="cls-1" d="M104.39,49.24c10.25-5.54,32.91-17.78,40.88-9.83,5.9,5.88,3.14,22.18-5.81,28.9-4.58,3.43-8.36,2.55-25.75,2.63-25.81.12-32.82,2.14-34-.84C77.86,65.15,95.2,54.2,104.39,49.24Z"/><path class="cls-1" d="M44,91c-10.61,4.82-34,15.47-41.46,7C-3,91.73.92,75.66,10.3,69.58c4.81-3.11,8.53-2,25.88-.84,25.76,1.66,32.89.13,33.82,3.18C71.54,77,53.49,86.71,44,91Z"/><path class="cls-1" d="M28.56,61.51c-6.53-1-11.4-1-16-5-7-6.14-9.91-18.76-5.22-24,6.18-6.95,24.22.29,33.28,5.54C60.41,49.47,72,71.43,68.25,75.43,65,78.85,54.24,65.44,28.56,61.51Z"/><ellipse class="cls-2" cx="72.08" cy="69.61" rx="15.86" ry="15.07" transform="translate(-17.07 23.86) rotate(-16.83)"/></g></svg>