<svg xmlns="http://www.w3.org/2000/svg" width="1920" height="1080" viewBox="0 0 1920 1080"><defs><style>.cls-1{fill:#f6ded8;}.cls-2{fill:#00ba60;}.cls-3{fill:#ff6d00;}.cls-4{fill:#9c7b6c;}.cls-5{fill:#8d96be;}.cls-6{fill:#056cf2;}.cls-7{fill:#ffb500;}.cls-8{fill:#ffa7d7;}</style></defs><g id="_1" data-name="1"><rect class="cls-1" x="-4" y="-2" width="1924" height="1083"/><path class="cls-2" d="M295.61,71.42c1.71-5.61,2.29-5.25,6.54-17.61,3.91-11.35,4.22-14,7.05-17.51,3.94-5,11.64-10.35,17.07-7.52,6.77,3.53,7.4,18.42,5,28.35-1.54,6.43-4.05,9.6-14.09,22.7C298.12,104.72,295.93,108,293.91,107,289.51,104.85,291.48,85,295.61,71.42Z"/><path class="cls-2" d="M271,84.82C261.6,71.49,253.2,59.57,256.8,47.87c2.34-7.64,9.61-14.57,16.15-13.81,13,1.51,17.58,32.91,18.49,39.15.49,3.42,3.75,25.84-2.16,28.64C284.57,104.08,276.55,92.71,271,84.82Z"/><path class="cls-2" d="M310.25,130.11c6.58,9,11.15,12.46,15.28,22.66,2.24,5.52,4.51,11.31,3.46,18.5-1.38,9.56-8.28,19.29-14.86,18.94-.95-.06-3.6-.41-6.73-4.06-14.59-17-20.29-82.29-13.18-83.79C297.1,101.75,297.38,112.58,310.25,130.11Z"/><path class="cls-2" d="M284.32,163c-3.55,12-7.78,26.36-14.5,26.66-5.86.27-12.58-10.18-13.09-20.13-.47-9.19,4.55-13.92,14.36-30.32C285.15,115.63,287,105,289.7,105.88,294.29,107.29,291.83,137.51,284.32,163Z"/><path class="cls-2" d="M335,110.58c6.3-.35,10.87-1.43,15.92,1.88,7.78,5.11,12.87,18.15,9.48,24.9-4.47,8.9-22.76,5-32.26,1.33-20.71-8-35.78-29.28-33-34.46C297.45,99.83,310.14,112,335,110.58Z"/><path class="cls-2" d="M319.48,80.47c8.88-7.78,28.52-25,37.22-17.63,6.43,5.43,6.19,23.71-1.28,32.56-3.83,4.53-7.54,4.2-24,7.22-24.38,4.48-30.71,7.86-32.22,4.81C296.71,102.34,311.51,87.45,319.48,80.47Z"/><path class="cls-2" d="M268.45,136.33c-9.33,7.06-29.94,22.64-38.18,14.62-6.1-5.94-4.77-24.15,3.22-32.38,4.09-4.21,7.77-3.59,24.34-5.29,24.59-2.52,31.11-5.39,32.43-2.22C292.47,116.33,276.82,130,268.45,136.33Z"/><path class="cls-2" d="M249.57,106.66c-6.32,0-10.93.84-15.83-2.75-7.56-5.52-12.11-18.83-8.45-25.39,4.83-8.64,22.94-3.77,32.28.44,20.36,9.18,34.53,31.22,31.56,36.23C286.59,119.47,274.42,106.64,249.57,106.66Z"/><ellipse class="cls-3" cx="291.9" cy="108.18" rx="16.88" ry="14.98" transform="translate(135.89 377.57) rotate(-80.26)"/><path class="cls-2" d="M160.44,883.37c.76-6.73,1.6-6.5,3.93-21.48,2.14-13.77,1.87-16.75,4.6-21.54,3.81-6.68,12.34-14.92,20-13.36,9.58,1.93,14.17,18.3,13.64,30-.35,7.6-2.78,11.86-12.35,29.37-18.19,33.26-20.17,37.55-23,37C161.08,922.32,158.58,899.71,160.44,883.37Z"/><path class="cls-2" d="M132.21,905.49c-15.45-12.06-29.27-22.85-27.62-36.91,1.07-9.17,8.65-19,17.24-20.08,17.13-2.15,31,31.42,33.7,38.09,1.5,3.65,11.37,27.62,4.49,32.47C154.54,922.92,141.35,912.63,132.21,905.49Z"/><path class="cls-2" d="M194.14,944.32c10.72,8,17.49,10.58,25.38,20.7,4.28,5.47,8.66,11.25,9.15,19.55.65,11-5.74,23.87-14.29,25.41-1.24.22-4.72.6-9.68-2.53-23-14.57-47-85.53-38.2-89.28C170.05,916.65,173.15,928.6,194.14,944.32Z"/><path class="cls-2" d="M169.16,988.43c-1.51,14.4-3.31,31.58-11.86,33.89-7.46,2-18.74-7.63-21.93-18.54-2.94-10.08,2.32-16.8,10.75-37.92,12.1-30.28,11.72-42.59,15.47-42.45C167.84,923.64,172.35,958,169.16,988.43Z"/><path class="cls-2" d="M220.94,915.36c8-2.24,13.61-4.79,20.93-2.59,11.29,3.4,21.15,16.4,18.51,24.9-3.49,11.2-28,12.26-41.11,11-28.66-2.87-53.41-22.06-51.17-28.62C170,914.41,189.39,924.19,220.94,915.36Z"/><path class="cls-2" d="M193.39,886.43c9.44-11.26,30.3-36.13,43.35-30.52,9.65,4.15,14,24.54,6.62,36.57-3.77,6.15-8.62,6.88-29,15.06-30.19,12.13-37.47,17.75-40.18,14.8C169.7,917.42,184.93,896.53,193.39,886.43Z"/><path class="cls-2" d="M142,963.5c-10.19,10.57-32.72,34-45.34,27.45-9.34-4.81-12.26-25.45-4.08-36.94,4.18-5.88,9.07-6.27,29.93-13,31-10,38.6-15.13,41.11-12C167.8,934.22,151.16,954,142,963.5Z"/><path class="cls-2" d="M110.22,936.06c-8.11,1.86-13.82,4.14-21,1.59-11.12-3.93-20.34-17.38-17.3-25.75,4-11,28.52-10.92,41.58-9,28.48,4.23,52.3,24.57,49.75,31C161,939.43,142.15,928.74,110.22,936.06Z"/><ellipse class="cls-4" cx="164.99" cy="925.32" rx="20" ry="19" transform="translate(-539.82 303.48) rotate(-38.47)"/><path class="cls-2" d="M781.32,197.64c.76-6.74,1.6-6.5,3.93-21.49,2.14-13.76,1.87-16.75,4.6-21.54,3.81-6.67,12.34-14.91,20-13.36,9.59,1.93,14.17,18.3,13.64,30-.34,7.6-2.77,11.86-12.35,29.37-18.19,33.27-20.17,37.55-23,37C782,236.59,779.46,214,781.32,197.64Z"/><path class="cls-2" d="M753.09,219.75c-15.45-12.06-29.27-22.84-27.62-36.9,1.07-9.18,8.65-19,17.25-20.09,17.12-2.14,30.94,31.42,33.69,38.1,1.5,3.64,11.37,27.61,4.49,32.46C775.42,237.18,762.23,226.89,753.09,219.75Z"/><path class="cls-2" d="M815,258.58c10.72,8,17.49,10.58,25.38,20.7,4.28,5.48,8.66,11.26,9.15,19.55.65,11-5.74,23.88-14.29,25.41-1.24.22-4.72.6-9.68-2.53-23.05-14.57-47-85.52-38.2-89.27C790.93,230.92,794,242.87,815,258.58Z"/><path class="cls-2" d="M790,302.7c-1.51,14.39-3.31,31.57-11.86,33.88-7.46,2-18.74-7.62-21.93-18.54-2.94-10.07,2.32-16.8,10.75-37.91,12.1-30.29,11.72-42.6,15.47-42.46C788.72,237.9,793.23,272.21,790,302.7Z"/><path class="cls-2" d="M841.82,229.62c8-2.24,13.61-4.79,20.94-2.58,11.28,3.39,21.14,16.39,18.5,24.89-3.48,11.21-28,12.27-41.11,10.95-28.65-2.87-53.41-22-51.16-28.62C790.89,228.68,810.27,238.45,841.82,229.62Z"/><path class="cls-2" d="M814.28,200.7c9.43-11.26,30.29-36.14,43.34-30.52,9.65,4.15,14,24.54,6.62,36.56-3.77,6.16-8.62,6.88-29,15.06-30.19,12.14-37.46,17.76-40.18,14.8C790.58,231.68,805.81,210.79,814.28,200.7Z"/><path class="cls-2" d="M762.9,277.76c-10.2,10.58-32.73,33.95-45.35,27.45-9.34-4.81-12.26-25.45-4.08-36.93,4.18-5.88,9.07-6.27,29.93-13,31-10,38.6-15.13,41.11-12C788.68,248.49,772,268.27,762.9,277.76Z"/><path class="cls-2" d="M731.1,250.33c-8.11,1.85-13.82,4.13-21,1.58-11.12-3.92-20.34-17.38-17.3-25.74,4-11,28.52-10.93,41.58-9,28.48,4.23,52.3,24.57,49.75,31C781.92,253.69,763,243,731.1,250.33Z"/><ellipse class="cls-5" cx="785.88" cy="239.59" rx="20" ry="19" transform="translate(21.53 540.88) rotate(-38.47)"/><path class="cls-2" d="M1609.24,207.6c.77-6.74,1.6-6.5,3.93-21.49,2.15-13.77,1.87-16.75,4.61-21.54,3.8-6.68,12.33-14.92,20-13.36,9.59,1.93,14.17,18.3,13.64,30-.34,7.6-2.77,11.86-12.34,29.37-18.2,33.27-20.18,37.55-23,37C1609.88,246.54,1607.38,223.93,1609.24,207.6Z"/><path class="cls-2" d="M1581,229.71c-15.45-12.06-29.27-22.84-27.62-36.9,1.08-9.18,8.66-19,17.25-20.09,17.12-2.15,30.94,31.42,33.69,38.09,1.51,3.65,11.38,27.62,4.49,32.47C1603.34,247.14,1590.16,236.85,1581,229.71Z"/><path class="cls-2" d="M1642.94,268.54c10.73,8,17.49,10.58,25.39,20.7,4.27,5.48,8.66,11.26,9.15,19.55.65,11-5.75,23.88-14.3,25.41-1.23.22-4.72.6-9.67-2.53-23-14.57-47-85.52-38.2-89.28C1618.85,240.87,1622,252.83,1642.94,268.54Z"/><path class="cls-2" d="M1618,312.65c-1.5,14.4-3.3,31.58-11.86,33.89-7.46,2-18.74-7.63-21.92-18.54-3-10.08,2.31-16.8,10.74-37.91,12.1-30.29,11.73-42.6,15.48-42.46C1616.64,247.86,1621.15,282.17,1618,312.65Z"/><path class="cls-2" d="M1669.74,239.58c8-2.24,13.61-4.79,20.94-2.59,11.29,3.4,21.14,16.4,18.5,24.9-3.48,11.2-28,12.27-41.11,10.95-28.65-2.87-53.4-22.06-51.16-28.62C1618.82,238.63,1638.2,248.41,1669.74,239.58Z"/><path class="cls-2" d="M1642.2,210.65c9.44-11.25,30.3-36.13,43.34-30.52,9.65,4.16,14,24.55,6.62,36.57-3.76,6.16-8.61,6.88-29,15.06-30.19,12.13-37.46,17.75-40.18,14.8C1618.5,241.64,1633.73,220.75,1642.2,210.65Z"/><path class="cls-2" d="M1590.82,287.72c-10.19,10.58-32.72,33.95-45.35,27.45-9.34-4.81-12.25-25.45-4.08-36.94,4.19-5.88,9.07-6.27,29.93-13,31-10,38.6-15.12,41.11-12C1616.6,258.44,1600,278.23,1590.82,287.72Z"/><path class="cls-2" d="M1559,260.28c-8.11,1.86-13.82,4.14-21,1.59-11.11-3.93-20.34-17.38-17.3-25.74,4-11,28.52-10.93,41.59-9,28.48,4.23,52.29,24.57,49.74,31C1609.85,263.65,1591,253,1559,260.28Z"/><ellipse class="cls-6" cx="1613.8" cy="249.54" rx="20" ry="19" transform="translate(195.04 1058.08) rotate(-38.47)"/><path class="cls-2" d="M947,26.51c.94-8.49,2-8.19,4.86-27.08,2.65-17.35,2.31-21.1,5.69-27.14,4.71-8.42,15.25-18.8,24.77-16.85,11.86,2.44,17.53,23.07,16.87,37.85-.42,9.59-3.43,15-15.27,37C961.46,72.24,959,77.64,955.5,77,947.82,75.6,944.73,47.1,947,26.51Z"/><path class="cls-2" d="M912.12,54.39C893,39.19,875.93,25.59,878,7.88c1.33-11.57,10.7-24,21.33-25.32,21.17-2.71,38.26,39.6,41.66,48,1.86,4.6,14.06,34.81,5.55,40.92C939.74,76.36,923.43,63.38,912.12,54.39Z"/><path class="cls-2" d="M988.7,103.32c13.26,10.13,21.62,13.34,31.39,26.09,5.28,6.91,10.71,14.19,11.31,24.65.8,13.89-7.1,30.09-17.68,32-1.52.28-5.83.76-12-3.19C973.26,164.53,943.7,75.1,954.53,70.37,958.91,68.46,962.75,83.52,988.7,103.32Z"/><path class="cls-2" d="M957.81,158.92c-1.86,18.15-4.09,39.8-14.66,42.72C933.92,204.18,920,192,916,178.27c-3.64-12.71,2.86-21.18,13.28-47.79,15-38.17,14.5-53.68,19.14-53.51C956.18,77.26,961.75,120.5,957.81,158.92Z"/><path class="cls-2" d="M1021.84,66.83c9.9-2.83,16.82-6,25.88-3.26,14,4.28,26.15,20.66,22.88,31.37-4.3,14.12-34.58,15.46-50.83,13.8-35.43-3.61-66-27.8-63.26-36.06C958.87,65.63,982.83,78,1021.84,66.83Z"/><path class="cls-2" d="M987.78,30.37c11.67-14.19,37.46-45.54,53.59-38.47,11.93,5.24,17.29,30.93,8.19,46.09-4.66,7.76-10.66,8.67-35.81,19-37.33,15.29-46.32,22.38-49.68,18.65C958.48,69.42,977.31,43.09,987.78,30.37Z"/><path class="cls-2" d="M924.25,127.5c-12.61,13.33-40.46,42.79-56.07,34.6-11.55-6.06-15.15-32.08-5-46.56,5.18-7.41,11.22-7.9,37-16.41C938.42,86.5,947.87,80.07,951,84,956.13,90.6,935.55,115.54,924.25,127.5Z"/><path class="cls-2" d="M884.94,92.92c-10,2.34-17.09,5.21-26,2C845.18,90,833.78,73,837.54,62.47c5-13.9,35.26-13.77,51.42-11.32,35.21,5.33,64.66,31,61.5,39.09C947.78,97.16,924.42,83.69,884.94,92.92Z"/><ellipse class="cls-7" cx="952.66" cy="79.38" rx="24.96" ry="23.73" transform="translate(271.18 749.79) rotate(-49.29)"/><path class="cls-2" d="M1278.74,86.43c.42-3.78.88-3.65,2.17-12.06,1.18-7.72,1-9.4,2.53-12.08,2.1-3.75,6.79-8.37,11-7.5,5.28,1.08,7.8,10.27,7.51,16.85-.19,4.27-1.53,6.66-6.8,16.48-10,18.67-11.1,21.07-12.67,20.79C1279.09,108.29,1277.72,95.6,1278.74,86.43Z"/><path class="cls-2" d="M1263.2,98.84c-8.51-6.77-16.11-12.82-15.2-20.71.59-5.15,4.76-10.67,9.49-11.27,9.43-1.21,17,17.63,18.55,21.37.83,2,6.26,15.5,2.47,18.22C1275.5,108.62,1268.24,102.85,1263.2,98.84Z"/><path class="cls-2" d="M1297.29,120.63c5.91,4.51,9.63,5.94,14,11.61,2.35,3.08,4.77,6.32,5,11,.36,6.18-3.16,13.39-7.87,14.25-.68.13-2.6.34-5.33-1.42-12.69-8.17-25.85-48-21-50.09C1284,105.1,1285.74,111.81,1297.29,120.63Z"/><path class="cls-2" d="M1283.54,145.38c-.83,8.08-1.82,17.72-6.53,19-4.1,1.13-10.31-4.28-12.07-10.4-1.62-5.66,1.28-9.43,5.92-21.28,6.66-17,6.45-23.9,8.52-23.82C1282.82,109,1285.3,128.28,1283.54,145.38Z"/><path class="cls-2" d="M1312.05,104.38c4.41-1.26,7.49-2.69,11.53-1.45,6.21,1.9,11.64,9.2,10.18,14-1.91,6.28-15.4,6.88-22.63,6.14-15.77-1.61-29.4-12.38-28.17-16.06C1284,103.85,1294.68,109.33,1312.05,104.38Z"/><path class="cls-2" d="M1296.89,88.15c5.19-6.32,16.68-20.28,23.86-17.13,5.31,2.33,7.7,13.77,3.64,20.52-2.07,3.45-4.74,3.86-15.94,8.45-16.62,6.81-20.63,10-22.12,8.3C1283.84,105.53,1292.23,93.81,1296.89,88.15Z"/><path class="cls-2" d="M1268.6,131.39c-5.61,5.94-18,19.05-25,15.41-5.14-2.7-6.74-14.28-2.24-20.73,2.3-3.3,5-3.52,16.48-7.31,17-5.62,21.25-8.49,22.63-6.73C1282.79,115,1273.63,126.07,1268.6,131.39Z"/><path class="cls-2" d="M1251.1,116c-4.47,1-7.61,2.32-11.58.89-6.12-2.21-11.2-9.76-9.53-14.45,2.21-6.19,15.7-6.13,22.9-5,15.68,2.37,28.79,13.78,27.38,17.4C1279.08,117.88,1268.68,111.89,1251.1,116Z"/><ellipse class="cls-7" cx="1281.25" cy="109.97" rx="11.11" ry="10.56" transform="translate(362.29 1009.53) rotate(-49.29)"/><path class="cls-2" d="M1646.74,936.76c.48-4.14,1-4,2.44-13.2,1.33-8.46,1.17-10.29,2.86-13.23,2.37-4.1,7.66-9.17,12.44-8.21,6,1.19,8.81,11.24,8.48,18.45-.22,4.67-1.73,7.29-7.67,18-11.3,20.44-12.53,23.07-14.29,22.76C1647.14,960.69,1645.59,946.8,1646.74,936.76Z"/><path class="cls-2" d="M1629.21,950.35c-9.59-7.41-18.17-14-17.15-22.67.67-5.64,5.37-11.68,10.71-12.35,10.63-1.31,19.22,19.31,20.92,23.41.94,2.24,7.07,17,2.79,20C1643.08,961.06,1634.89,954.74,1629.21,950.35Z"/><path class="cls-2" d="M1667.67,974.21c6.66,4.93,10.86,6.5,15.77,12.72,2.65,3.36,5.38,6.91,5.68,12,.4,6.77-3.57,14.67-8.88,15.61-.77.14-2.93.37-6-1.55-14.31-9-29.16-52.55-23.72-54.86C1652.71,957.21,1654.64,964.55,1667.67,974.21Z"/><path class="cls-2" d="M1652.16,1001.31c-.94,8.85-2.05,19.4-7.37,20.82-4.63,1.24-11.63-4.68-13.61-11.39-1.83-6.19,1.43-10.32,6.67-23.29,7.51-18.61,7.28-26.17,9.61-26.09C1651.34,961.5,1654.14,982.58,1652.16,1001.31Z"/><path class="cls-2" d="M1684.32,956.41c5-1.37,8.45-2.94,13-1.58,7,2.08,13.13,10.07,11.49,15.29-2.16,6.89-17.37,7.54-25.53,6.73-17.8-1.76-33.17-13.55-31.78-17.58C1652.69,955.83,1664.72,961.84,1684.32,956.41Z"/><path class="cls-2" d="M1667.21,938.64c5.86-6.91,18.82-22.2,26.92-18.75,6,2.55,8.68,15.08,4.11,22.47-2.34,3.78-5.35,4.22-18,9.25-18.75,7.46-23.26,10.91-25,9.09C1652.49,957.68,1662,944.84,1667.21,938.64Z"/><path class="cls-2" d="M1635.3,986c-6.33,6.5-20.32,20.86-28.16,16.87-5.8-3-7.61-15.64-2.53-22.7,2.59-3.61,5.63-3.85,18.58-8,19.23-6.15,24-9.29,25.53-7.36C1651.31,968,1641,980.16,1635.3,986Z"/><path class="cls-2" d="M1615.56,969.13c-5,1.15-8.59,2.55-13.07,1-6.9-2.41-12.63-10.68-10.74-15.82,2.49-6.77,17.71-6.71,25.83-5.52,17.68,2.6,32.47,15.1,30.89,19.06C1647.12,971.2,1635.39,964.64,1615.56,969.13Z"/><ellipse class="cls-8" cx="1649.57" cy="962.54" rx="12.38" ry="11.72" transform="translate(-258.16 1052.59) rotate(-32.97)"/><path class="cls-6" d="M560.74,175.58c0-6.78.88-6.64,1.58-21.79.64-13.91,0-16.85,2.24-21.91,3.06-7,10.65-16.16,18.47-15.45,9.74.88,16.07,16.66,16.82,28.38.48,7.59-1.48,12.09-9.1,30.53-14.48,35-16,39.51-18.86,39.32C565.59,214.23,560.66,192,560.74,175.58Z"/><path class="cls-6" d="M535.07,200.62c-16.67-10.32-31.57-19.54-31.45-33.69.07-9.24,6.54-19.84,15-21.84,16.79-4,34.16,27.88,37.62,34.22,1.89,3.46,14.29,26.22,8,31.79C559.16,215.53,544.93,206.73,535.07,200.62Z"/><path class="cls-6" d="M600.84,232.51c11.53,6.83,18.53,8.63,27.48,17.83,4.84,5,9.83,10.26,11.21,18.45,1.84,10.89-3.12,24.36-11.46,26.81-1.2.35-4.62,1.11-9.89-1.47-24.49-12-55.94-79.94-47.64-84.62C573.89,207.62,578.27,219.17,600.84,232.51Z"/><path class="cls-6" d="M580.78,279.07c.07,14.48.14,31.75-8.11,35-7.2,2.81-19.46-5.56-23.81-16.06-4-9.7.48-16.95,6.58-38.85,8.74-31.42,7-43.62,10.78-43.89C572.45,214.8,580.65,248.42,580.78,279.07Z"/><path class="cls-6" d="M624.35,200.82c7.72-3.09,13-6.23,20.53-4.83,11.59,2.15,22.79,14,21.09,22.74-2.25,11.52-26.48,15.22-39.68,15.34-28.8.25-55.48-16.15-54-22.91C573.62,205.4,593.94,213,624.35,200.82Z"/><path class="cls-6" d="M593.83,175.05c8.17-12.21,26.21-39.2,39.79-35,10,3.08,16.55,22.88,10.54,35.63-3.08,6.53-7.82,7.77-27.16,18.11-28.7,15.33-35.32,21.71-38.34,19.06C573.63,208.42,586.51,186,593.83,175.05Z"/><path class="cls-6" d="M551.1,257.23c-9,11.61-28.85,37.29-42.11,32.2-9.8-3.77-14.93-24-8.05-36.28,3.52-6.3,8.34-7.22,28.34-16.19C559,223.65,566,217.75,568.85,220.59,573.56,225.33,559.16,246.8,551.1,257.23Z"/><path class="cls-6" d="M516.52,233.39c-7.86,2.73-13.29,5.61-20.74,3.86-11.47-2.7-22.1-15.08-20-23.72,2.79-11.4,27.17-13.95,40.37-13.44,28.77,1.12,54.64,18.77,52.81,25.45C567.41,231.24,547.47,222.66,516.52,233.39Z"/><ellipse class="cls-7" cx="569.81" cy="216.79" rx="20" ry="19" transform="translate(12.24 463.36) rotate(-44.69)"/><path class="cls-6" d="M417.23,408.19c-2.56-6.28-1.71-6.47-6.84-20.75-4.71-13.1-6.38-15.59-6.27-21.11.14-7.68,3.68-19,11.18-21.32,9.35-2.9,21.21,9.28,26.36,19.83,3.34,6.84,3.25,11.74,3.23,31.69,0,37.92.27,42.63-2.46,43.54C436.44,442.07,423.42,423.42,417.23,408.19Z"/><path class="cls-6" d="M403,441.12c-19.34-3.18-36.64-6-41.92-19.17-3.45-8.57-1.51-20.83,5.52-25.89,14-10.08,42.21,12.76,47.82,17.3,3.07,2.49,23.21,18.8,19.49,26.36C431,445.73,414.49,443,403,441.12Z"/><path class="cls-6" d="M476,445.55c13.26,1.91,20.42.91,32.2,6,6.37,2.77,13,5.74,17.39,12.79,5.85,9.37,6.39,23.71-.38,29.15-1,.78-3.85,2.79-9.7,2.41-27.22-1.75-82.18-52.59-76.29-60.08C441.6,432.8,450.05,441.81,476,445.55Z"/><path class="cls-6" d="M475.2,496.24c5.57,13.36,12.22,29.3,5.82,35.43-5.59,5.34-20.11,2.28-28.13-5.78-7.41-7.43-6-15.86-8.73-38.43-3.88-32.38-10.1-43-6.75-44.68C443,440,463.4,468,475.2,496.24Z"/><path class="cls-6" d="M485.66,407.29c6-5.8,9.65-10.72,17.14-12.29,11.53-2.43,26.41,4.27,28.16,13,2.31,11.5-18.67,24.16-30.84,29.3-26.53,11.2-57.44,6.21-58.62-.62C440.5,430.85,462.19,430.15,485.66,407.29Z"/><path class="cls-6" d="M447.62,395.09c2.9-14.4,9.3-46.23,23.44-47.55,10.46-1,24,14.85,23.32,28.93-.36,7.21-4.27,10.17-18.21,27.09-20.69,25.11-24.38,33.53-28.18,32.23C441.66,433.64,445,408,447.62,395.09Z"/><path class="cls-6" d="M439.43,487.35c-3.89,14.17-12.47,45.48-26.66,45.82-10.51.25-22.95-16.48-21.27-30.48.85-7.16,5-9.84,20-25.76,22.37-23.62,26.64-31.77,30.34-30.21C448,449.3,442.91,474.64,439.43,487.35Z"/><path class="cls-6" d="M398.38,478.49c-6.23,5.52-10.15,10.25-17.71,11.47-11.63,1.87-26.18-5.52-27.51-14.32-1.76-11.6,19.8-23.25,32.2-27.8,27-9.93,57.67-3.48,58.52,3.4C444.6,457.11,422.9,456.77,398.38,478.49Z"/><ellipse class="cls-3" cx="440.97" cy="440.24" rx="20" ry="19" transform="translate(-136.24 674.98) rotate(-67.08)"/><path class="cls-6" d="M952.81,828.37c2.21-7.15,3.09-6.72,8.7-22.5,5.15-14.49,5.44-17.78,9.45-22.42,5.58-6.46,16.75-13.64,25-10.37,10.32,4.08,12.15,22.78,9.21,35.39-1.91,8.18-5.47,12.3-19.66,29.32-27,32.34-30,36.58-33.11,35.44C945.72,870.75,947.47,845.7,952.81,828.37Z"/><path class="cls-6" d="M916.88,846.54c-14.83-16.27-28.08-30.81-23.43-45.73,3-9.73,13.47-18.84,23.27-18.24,19.54,1.21,28.24,40.47,30,48.28.95,4.26,7.16,32.3-1.49,36.14C938.31,870.05,925.66,856.17,916.88,846.54Z"/><path class="cls-6" d="M978.21,901.43c10.36,10.92,17.4,15.08,24.18,27.69,3.68,6.82,7.41,14,6.3,23.09-1.49,12.1-11.2,24.72-21.05,24.62-1.42,0-5.38-.32-10.29-4.74-22.8-20.55-35.27-102.46-24.74-104.72C956.87,866.45,957.94,880.06,978.21,901.43Z"/><path class="cls-6" d="M941.5,944.14c-4.57,15.3-10,33.57-20,34.32-8.73.65-19.38-12.14-20.75-24.64-1.27-11.54,5.95-17.75,19.59-38.91,19.57-30.36,21.62-43.8,25.77-42.87C953,873.57,951.16,911.72,941.5,944.14Z"/><path class="cls-6" d="M1013.92,875.53c9.39-.78,16.15-2.39,23.88,1.52,11.92,6,20.31,22.14,15.66,30.81-6.13,11.44-33.67,7.55-48.07,3.41-31.4-9-55.17-34.93-51.36-41.59C957.28,864,977,878.61,1013.92,875.53Z"/><path class="cls-6" d="M989,838.48c12.79-10.27,41-33,54.48-24.18,9.94,6.49,10.69,29.51.07,41-5.44,5.9-11,5.68-35.34,10.36-36.12,6.95-45.36,11.54-47.8,7.78C956.33,867.21,977.51,847.68,989,838.48Z"/><path class="cls-6" d="M916.2,911.49c-13.49,9.38-43.32,30.09-56.1,20.44-9.46-7.14-8.58-30.14,2.84-40.91,5.85-5.52,11.39-4.94,36-8,36.55-4.49,46.1-8.46,48.27-4.54C950.84,885.05,928.31,903.08,916.2,911.49Z"/><path class="cls-6" d="M886.22,875.18c-9.42.34-16.25,1.64-23.79-2.62-11.62-6.55-19.22-23-14.15-31.49,6.69-11.14,34-6,48.21-1.18,30.94,10.46,53.43,37.43,49.29,43.9C942.26,889.3,923.32,873.81,886.22,875.18Z"/><ellipse class="cls-4" cx="951.74" cy="873.44" rx="22.52" ry="21.13" transform="translate(-196.08 280.81) rotate(-15.24)"/><path class="cls-6" d="M109.33,213.45c.77-6.73,1.6-6.5,3.93-21.48,2.14-13.77,1.87-16.75,4.6-21.54,3.81-6.68,12.34-14.92,20-13.36,9.59,1.93,14.17,18.3,13.64,30-.34,7.6-2.77,11.86-12.35,29.37-18.19,33.26-20.17,37.55-23,37C110,252.4,107.47,229.79,109.33,213.45Z"/><path class="cls-6" d="M81.1,235.57c-15.45-12.06-29.27-22.85-27.62-36.9,1.08-9.18,8.66-19,17.25-20.09,17.12-2.15,30.94,31.42,33.69,38.09,1.5,3.65,11.37,27.62,4.49,32.47C103.43,253,90.25,242.71,81.1,235.57Z"/><path class="cls-6" d="M143,274.4c10.73,8,17.49,10.58,25.39,20.7,4.27,5.47,8.66,11.25,9.15,19.55.64,11-5.75,23.87-14.3,25.41-1.24.22-4.72.6-9.68-2.53C130.54,323,106.64,252,115.4,248.25,118.94,246.73,122,258.68,143,274.4Z"/><path class="cls-6" d="M118.05,318.51c-1.51,14.4-3.3,31.58-11.86,33.89-7.46,2-18.74-7.63-21.93-18.54-2.94-10.08,2.32-16.8,10.75-37.92,12.1-30.28,11.73-42.59,15.47-42.45C116.73,253.72,121.24,288,118.05,318.51Z"/><path class="cls-6" d="M169.83,245.44c8-2.24,13.61-4.79,20.94-2.59,11.29,3.4,21.14,16.4,18.5,24.9-3.48,11.2-28,12.26-41.11,10.95-28.65-2.87-53.4-22.06-51.16-28.62C118.91,244.49,138.28,254.27,169.83,245.44Z"/><path class="cls-6" d="M142.29,216.51c9.44-11.26,30.3-36.13,43.34-30.52,9.65,4.15,14,24.54,6.62,36.57-3.77,6.15-8.62,6.88-29,15.06-30.19,12.13-37.46,17.75-40.18,14.8C118.59,247.5,133.82,226.61,142.29,216.51Z"/><path class="cls-6" d="M90.91,293.58C80.71,304.15,58.18,327.53,45.56,321c-9.34-4.81-12.25-25.45-4.08-36.94,4.19-5.88,9.07-6.27,29.93-13,31-10,38.6-15.13,41.11-12C116.69,264.3,100.05,284.09,90.91,293.58Z"/><path class="cls-6" d="M59.11,266.14c-8.1,1.86-13.82,4.14-21,1.59C27,263.8,17.74,250.35,20.78,242c4-11,28.52-10.92,41.59-9,28.48,4.23,52.29,24.57,49.74,31C109.94,269.51,91,258.82,59.11,266.14Z"/><ellipse class="cls-5" cx="114.81" cy="254.7" rx="20" ry="19" transform="translate(-133.52 126.71) rotate(-38.47)"/><path class="cls-6" d="M1769.33,519.45c.77-6.73,1.6-6.5,3.93-21.48,2.14-13.77,1.87-16.75,4.6-21.54,3.81-6.68,12.34-14.92,20-13.36,9.59,1.93,14.17,18.3,13.64,30-.34,7.6-2.77,11.86-12.35,29.37-18.19,33.26-20.17,37.55-23,37C1770,558.4,1767.47,535.79,1769.33,519.45Z"/><path class="cls-6" d="M1741.1,541.57c-15.45-12.06-29.27-22.85-27.62-36.9,1.08-9.18,8.66-19,17.25-20.09,17.12-2.15,30.94,31.42,33.69,38.09,1.5,3.65,11.37,27.62,4.49,32.47C1763.43,559,1750.25,548.71,1741.1,541.57Z"/><path class="cls-6" d="M1803,580.4c10.73,8,17.49,10.58,25.39,20.7,4.27,5.47,8.66,11.25,9.15,19.55.64,11-5.75,23.87-14.3,25.41-1.24.22-4.72.6-9.68-2.53-23-14.57-46.95-85.53-38.19-89.28C1778.94,552.73,1782,564.68,1803,580.4Z"/><path class="cls-6" d="M1778.05,624.51c-1.51,14.4-3.3,31.58-11.86,33.89-7.46,2-18.74-7.63-21.93-18.54-2.94-10.08,2.32-16.8,10.75-37.92,12.1-30.28,11.73-42.59,15.47-42.45C1776.73,559.72,1781.24,594,1778.05,624.51Z"/><path class="cls-6" d="M1829.83,551.44c8-2.24,13.61-4.79,20.94-2.59,11.29,3.4,21.14,16.4,18.5,24.9-3.48,11.2-28,12.26-41.11,11-28.65-2.87-53.4-22.06-51.16-28.62C1778.91,550.49,1798.28,560.27,1829.83,551.44Z"/><path class="cls-6" d="M1802.29,522.51c9.44-11.26,30.3-36.13,43.34-30.52,9.65,4.15,14,24.54,6.62,36.57-3.77,6.15-8.62,6.88-29,15.06-30.19,12.13-37.46,17.75-40.18,14.8C1778.59,553.5,1793.82,532.61,1802.29,522.51Z"/><path class="cls-6" d="M1750.91,599.58c-10.2,10.57-32.73,33.95-45.35,27.45-9.34-4.81-12.25-25.45-4.08-36.94,4.19-5.88,9.07-6.27,29.93-13,31-10,38.6-15.13,41.11-12C1776.69,570.3,1760.05,590.09,1750.91,599.58Z"/><path class="cls-6" d="M1719.11,572.14c-8.1,1.86-13.82,4.14-21,1.59-11.11-3.93-20.34-17.38-17.3-25.75,4-11,28.52-10.92,41.59-9,28.48,4.23,52.29,24.57,49.74,31C1769.94,575.51,1751,564.82,1719.11,572.14Z"/><ellipse class="cls-8" cx="1774.07" cy="560.37" rx="20" ry="19" transform="translate(36.46 1225.25) rotate(-38.47)"/><path class="cls-6" d="M1746.68,33c1.31-10.83,2.75-10.45,6.74-34.55,3.67-22.13,3.2-26.92,7.88-34.63,6.52-10.73,21.13-24,34.32-21.48,16.43,3.11,24.28,29.42,23.37,48.28-.59,12.23-4.75,19.08-21.15,47.22-31.16,53.49-34.56,60.38-39.42,59.56C1747.78,95.59,1743.5,59.23,1746.68,33Z"/><path class="cls-6" d="M1698.33,68.53C1671.86,49.14,1648.2,31.8,1651,9.19c1.84-14.75,14.82-30.57,29.54-32.3,29.33-3.45,53,50.52,57.72,61.25,2.57,5.87,19.48,44.41,7.69,52.21C1736.58,96.56,1714,80,1698.33,68.53Z"/><path class="cls-6" d="M1804.41,131c18.37,12.91,30,17,43.48,33.28,7.33,8.81,14.84,18.1,15.68,31.44,1.11,17.73-9.84,38.39-24.49,40.85-2.12.36-8.08,1-16.57-4.07C1783,209,1742.07,95,1757.08,88.92,1763.14,86.48,1768.46,105.7,1804.41,131Z"/><path class="cls-6" d="M1761.62,201.89c-2.58,23.15-5.66,50.77-20.31,54.49-12.78,3.24-32.1-12.27-37.56-29.81-5-16.21,4-27,18.41-61,20.72-48.7,20.08-68.49,26.5-68.27C1759.36,97.71,1767.08,152.87,1761.62,201.89Z"/><path class="cls-6" d="M1850.32,84.4c13.72-3.61,23.31-7.7,35.86-4.16,19.34,5.46,36.22,26.36,31.69,40-6,18-47.91,19.72-70.42,17.6-49.07-4.61-91.47-35.46-87.63-46C1763.09,82.88,1796.28,98.6,1850.32,84.4Z"/><path class="cls-6" d="M1803.14,37.89c16.17-18.1,51.9-58.1,74.24-49.07,16.53,6.67,23.95,39.46,11.34,58.79-6.45,9.9-14.76,11.06-49.6,24.21-51.72,19.51-64.18,28.55-68.83,23.8C1762.54,87.71,1788.64,54.12,1803.14,37.89Z"/><path class="cls-6" d="M1715.13,161.8c-17.46,17-56.05,54.59-77.68,44.14-16-7.73-21-40.92-7-59.39,7.17-9.46,15.54-10.08,51.27-20.94,53-16.11,66.12-24.32,70.42-19.27C1759.29,114.73,1730.79,146.54,1715.13,161.8Z"/><path class="cls-6" d="M1660.67,117.69c-13.89,3-23.68,6.65-36,2.55-19-6.32-34.84-27.95-29.63-41.4,6.86-17.73,48.85-17.56,71.23-14.44,48.78,6.79,89.57,39.5,85.2,49.87C1747.72,123.1,1715.36,105.91,1660.67,117.69Z"/><ellipse class="cls-2" cx="1754.8" cy="98.77" rx="33.84" ry="30.93" transform="translate(46.6 512.44) rotate(-16.83)"/><path class="cls-6" d="M1260.58,227.45c.54-4.73,1.13-4.56,2.76-15.08,1.5-9.65,1.31-11.75,3.23-15.11,2.67-4.68,8.65-10.46,14.06-9.37,6.72,1.35,9.94,12.84,9.57,21.07-.24,5.33-2,8.32-8.67,20.6-12.76,23.34-14.15,26.34-16.14,26C1261,254.77,1259.28,238.91,1260.58,227.45Z"/><path class="cls-6" d="M1240.78,243c-10.84-8.46-20.53-16-19.38-25.89.76-6.44,6.07-13.34,12.1-14.09,12-1.51,21.71,22,23.64,26.72,1,2.56,8,19.38,3.15,22.78C1256.45,255.19,1247.2,248,1240.78,243Z"/><path class="cls-6" d="M1284.23,270.2c7.52,5.64,12.27,7.42,17.81,14.52,3,3.85,6.07,7.9,6.41,13.72.46,7.74-4,16.75-10,17.83-.86.15-3.31.42-6.78-1.78-16.17-10.22-33-60-26.8-62.63C1267.33,250.79,1269.5,259.18,1284.23,270.2Z"/><path class="cls-6" d="M1266.7,301.15c-1.06,10.1-2.32,22.15-8.32,23.77-5.23,1.42-13.15-5.35-15.38-13-2.07-7.07,1.62-11.79,7.54-26.6,8.48-21.25,8.22-29.88,10.85-29.79C1265.77,255.69,1268.94,279.76,1266.7,301.15Z"/><path class="cls-6" d="M1303,249.89c5.62-1.58,9.55-3.36,14.69-1.82,7.92,2.38,14.83,11.5,13,17.47-2.45,7.86-19.63,8.6-28.84,7.68-20.11-2-37.47-15.48-35.9-20.08C1267.3,249.22,1280.9,256.08,1303,249.89Z"/><path class="cls-6" d="M1283.7,229.59c6.63-7.9,21.26-25.35,30.41-21.41,6.77,2.91,9.81,17.22,4.65,25.65-2.65,4.32-6,4.83-20.32,10.57-21.18,8.51-26.28,12.46-28.19,10.38C1267.08,251.33,1277.77,236.67,1283.7,229.59Z"/><path class="cls-6" d="M1247.66,283.66c-7.15,7.42-23,23.82-31.82,19.26-6.55-3.38-8.59-17.86-2.86-25.92,2.94-4.12,6.37-4.4,21-9.13,21.72-7,27.08-10.61,28.84-8.41C1265.75,263.12,1254.07,277,1247.66,283.66Z"/><path class="cls-6" d="M1225.35,264.41c-5.68,1.3-9.69,2.9-14.75,1.11-7.8-2.75-14.27-12.19-12.14-18.06,2.81-7.73,20-7.66,29.17-6.3,20,3,36.69,17.24,34.9,21.76C1261,266.77,1247.76,259.27,1225.35,264.41Z"/><ellipse class="cls-5" cx="1264.43" cy="256.38" rx="14.03" ry="13.33" transform="translate(114.95 842.23) rotate(-38.47)"/><path class="cls-6" d="M56,812.41c.51-4.54,1.07-4.38,2.64-14.46,1.45-9.27,1.26-11.28,3.1-14.5,2.56-4.49,8.3-10,13.49-9,6.45,1.31,9.54,12.32,9.18,20.22-.23,5.12-1.87,8-8.31,19.77-12.25,22.39-13.58,25.27-15.49,24.93C56.43,838.62,54.75,823.4,56,812.41Z"/><path class="cls-6" d="M37,827.29c-10.4-8.11-19.7-15.37-18.59-24.83.72-6.18,5.82-12.8,11.6-13.53,11.53-1.44,20.83,21.15,22.68,25.64,1,2.46,7.66,18.59,3,21.86C52,839,43.15,832.1,37,827.29Z"/><path class="cls-6" d="M78.68,853.43c7.22,5.41,11.77,7.12,17.09,13.93,2.87,3.69,5.83,7.58,6.16,13.16.43,7.43-3.87,16.07-9.63,17.11-.83.14-3.17.4-6.51-1.71-15.51-9.8-31.61-57.56-25.71-60.09C62.47,834.81,64.55,842.85,78.68,853.43Z"/><path class="cls-6" d="M61.87,883.12c-1,9.69-2.23,21.26-8,22.81-5,1.36-12.61-5.13-14.75-12.48-2-6.78,1.55-11.31,7.23-25.52,8.14-20.38,7.89-28.67,10.41-28.57C61,839.51,64,862.6,61.87,883.12Z"/><path class="cls-6" d="M96.72,833.94c5.39-1.51,9.16-3.23,14.09-1.74,7.6,2.28,14.23,11,12.46,16.75-2.35,7.55-18.83,8.26-27.68,7.37-19.28-1.93-35.94-14.84-34.43-19.26C62.44,833.3,75.49,839.88,96.72,833.94Z"/><path class="cls-6" d="M78.18,814.47c6.35-7.58,20.39-24.32,29.17-20.55,6.5,2.8,9.42,16.52,4.46,24.62-2.54,4.14-5.8,4.63-19.49,10.13-20.32,8.17-25.22,12-27,10C62.23,835.32,72.48,821.26,78.18,814.47Z"/><path class="cls-6" d="M43.6,866.34c-6.86,7.12-22,22.85-30.53,18.48-6.28-3.24-8.24-17.13-2.74-24.87,2.81-4,6.1-4.21,20.14-8.76,20.84-6.74,26-10.18,27.67-8.07C61,846.63,49.75,860,43.6,866.34Z"/><path class="cls-6" d="M22.2,847.87c-5.46,1.25-9.31,2.79-14.16,1.07C.56,846.3-5.65,837.24-3.6,831.61c2.69-7.42,19.19-7.35,28-6.05,19.17,2.85,35.19,16.54,33.48,20.88C56.41,850.14,43.69,842.94,22.2,847.87Z"/><ellipse class="cls-8" cx="59.19" cy="839.95" rx="13.46" ry="12.79" transform="translate(-509.67 219.13) rotate(-38.47)"/><path class="cls-8" d="M168.34,101c7.65-1.48,7.67-.47,24.9-3.06,15.83-2.38,19-3.71,25.2-2.34,8.62,1.91,20.57,8.5,21.5,17.57,1.16,11.28-15.22,22-28.27,25.47-8.45,2.25-13.95,1-36.43-3.53-42.7-8.66-48.07-9.38-48.49-12.7C125.84,115.16,149.79,104.59,168.34,101Z"/><path class="cls-8" d="M131.9,77c7.94-21.27,15-40.29,31-43.32,10.43-2,23.81,3,27.93,12.16C199.06,64,167,90.92,160.6,96.27c-3.49,2.92-26.4,22.13-34.08,16.18C120.42,107.72,127.2,89.56,131.9,77Z"/><path class="cls-8" d="M110.49,159c-5.14,14.65-5.62,23-14,35.26-4.55,6.62-9.38,13.47-18.31,16.88C66.29,215.61,50,213,45.4,204c-.66-1.29-2.27-5-.53-11.59,8.1-30.55,77.73-81.52,84.85-73.12C132.59,122.72,120.55,130.29,110.49,159Z"/><path class="cls-8" d="M53.57,146.52c-16.3,3.3-35.75,7.24-41.22-1.43-4.76-7.57,2-23.39,12.84-30.68,10.05-6.74,19.22-3.24,45.25-1.19,37.35,2.94,50.72-1.72,51.85,2.47C124.18,122.69,88.09,139.53,53.57,146.52Z"/><path class="cls-8" d="M151.41,178.63c5.2,8.09,9.91,13.41,10,22.29.13,13.67-10.76,29.07-21,29.08-13.48,0-23-26.73-26.06-41.74-6.65-32.72,5.93-66.75,13.89-66.53C135,121.91,130.94,146.75,151.41,178.63Z"/><path class="cls-8" d="M173.72,138.14c15.57,6.57,50,21.08,48.28,37.46-1.25,12.12-22.13,24-37.83,20-8-2.05-10.49-7.17-26.42-26.87-23.63-29.24-32.28-35.36-30-39.39C131.63,122.6,159.75,132.25,173.72,138.14Z"/><path class="cls-8" d="M71.64,107.86C56.55,100.22,23.21,83.34,26,67.12c2.08-12,23.72-22.35,39.11-17.27,7.88,2.6,10,7.88,24.51,28.65,21.58,30.82,29.79,37.52,27.2,41.38C112.56,126.3,85.17,114.71,71.64,107.86Z"/><path class="cls-8" d="M90.85,63.18C86,54.84,81.59,49.3,81.92,40.43c.51-13.66,12.11-28.52,22.32-28,13.46.64,21.73,27.81,24.07,43,5.1,33-9.06,66.38-17,65.79C104.54,120.62,109.8,96,90.85,63.18Z"/><ellipse class="cls-7" cx="121.36" cy="120.12" rx="21.96" ry="23.05" transform="translate(-48.54 137.21) rotate(-50.45)"/><path class="cls-8" d="M1546.55,376.38c4.79-4.8,5.3-4.1,16.45-14.38,10.24-9.44,11.88-11.95,17-14,7.13-2.86,18.94-4,24,2,6.31,7.48-.29,23.15-8,32-5,5.74-9.55,7.56-27.94,15.31C1533.12,412,1528.91,414.16,1527,412,1522.83,407.27,1534.94,388,1546.55,376.38Z"/><path class="cls-8" d="M1508.67,377.07C1504.07,358,1500,341,1510,331c6.55-6.52,18.6-9.5,26-5,14.74,9,4.68,43.85,2.68,50.79-1.09,3.79-8.27,28.69-16.68,28.21C1515.31,404.62,1511.39,388.35,1508.67,377.07Z"/><path class="cls-8" d="M1533,446c3.4,13,7.11,19.16,7,32-.06,6.95-.22,14.2-5,21-6.35,9-19.35,15.12-27,11-1.1-.59-4.07-2.46-6-8-9-25.75,16.44-96.17,25.63-93.66C1531.35,409.35,1526.34,420.64,1533,446Z"/><path class="cls-8" d="M1486,465c-10.13,10.33-22.23,22.67-30.37,19.16-7.09-3.06-9.92-17.63-5.63-28.16,4-9.72,12.26-11.72,32-23,28.31-16.19,35.68-26.06,38.53-23.62C1525.27,413.45,1507.46,443.12,1486,465Z"/><path class="cls-8" d="M1572,440c7.67,3.23,13.63,4.72,18,11,6.73,9.68,6.35,26-1,31-9.7,6.61-29.53-7.79-39-17-20.65-20.07-28.09-50.49-22.25-54.23C1532.72,407.58,1541.81,427.29,1572,440Z"/><path class="cls-8" d="M1568.43,400.22c14.39-2.94,46.2-9.44,52.92,3.06,5,9.26-4.32,27.92-17.56,32.75-6.78,2.48-11,0-32-6.22-31.18-9.28-40.37-9.41-40.66-13.41C1530.6,409.74,1555.52,402.85,1568.43,400.22Z"/><path class="cls-8" d="M1480.26,428.59c-14.56,1.94-46.74,6.23-52.58-6.71-4.32-9.58,6.24-27.55,19.78-31.46,6.94-2,11,.73,31.54,8.42,30.47,11.42,39.63,12.17,39.64,16.19C1518.66,421.71,1493.32,426.85,1480.26,428.59Z"/><path class="cls-8" d="M1472.43,387.33c-7.5-3.58-13.39-5.35-17.45-11.84-6.26-10-5.11-26.26,2.47-30.92,10-6.14,29.13,9.19,38.15,18.84,19.67,21,25.66,51.77,19.65,55.23C1510.13,421.58,1502,401.46,1472.43,387.33Z"/><ellipse class="cls-3" cx="1522" cy="413" rx="20" ry="19"/><path class="cls-8" d="M748.92,25.86c6-6.76,6.68-5.76,20.75-20.25,12.91-13.31,15-16.84,21.44-19.73,9-4,23.9-5.64,30.28,2.82,8,10.54-.36,32.61-10.09,45.09-6.31,8.08-12,10.65-35.25,21.58-44.08,20.75-49.4,23.74-51.8,20.69C719,69.39,734.26,42.26,748.92,25.86Z"/><path class="cls-8" d="M701.12,26.85C695.32,0,690.14-24,702.8-38.07c8.26-9.18,23.47-13.39,32.8-7,18.6,12.64,5.91,61.79,3.39,71.56-1.38,5.34-10.45,40.44-21,39.76C709.5,65.65,704.55,42.74,701.12,26.85Z"/><path class="cls-8" d="M731.82,124c4.29,18.26,9,27,8.83,45.09-.08,9.79-.28,20-6.31,29.59-8,12.73-24.41,21.3-34.07,15.5-1.39-.84-5.13-3.47-7.57-11.28C681.37,166.6,713.44,67.36,725,70.9,729.73,72.33,723.42,88.24,731.82,124Z"/><path class="cls-8" d="M672.52,150.74c-12.79,14.56-28,31.94-38.31,27-9-4.31-12.53-24.84-7.11-39.67,5-13.7,15.47-16.51,40.37-32.41,35.72-22.81,45-36.71,48.61-33.28C722.07,78.1,699.6,119.9,672.52,150.74Z"/><path class="cls-8" d="M781,115.51c9.67,4.55,17.2,6.65,22.71,15.5,8.49,13.64,8,36.62-1.26,43.68-12.23,9.31-37.26-11-49.21-23.95-26-28.28-35.44-71.14-28.07-76.42C731.46,69.83,742.93,97.6,781,115.51Z"/><path class="cls-8" d="M776.52,59.46c18.15-4.15,58.28-13.31,66.76,4.32,6.28,13-5.45,39.33-22.16,46.15-8.55,3.48-13.91,0-40.42-8.78-39.35-13.07-51-13.25-51.31-18.89C728.79,72.87,760.23,63.17,776.52,59.46Z"/><path class="cls-8" d="M665.28,99.44c-18.38,2.73-59,8.77-66.35-9.46-5.45-13.5,7.87-38.82,25-44.33,8.74-2.82,13.88,1,39.78,11.87,38.45,16.08,50,17.15,50,22.81C713.72,89.74,681.75,97,665.28,99.44Z"/><path class="cls-8" d="M655.4,41.3c-9.46-5-16.9-7.55-22-16.68-7.9-14.08-6.45-37,3.12-43.57,12.61-8.65,36.74,13,48.13,26.54C709.44,37.22,717,80.53,709.42,85.41,703,89.56,692.69,61.22,655.4,41.3Z"/><ellipse class="cls-4" cx="717.94" cy="77.47" rx="25.23" ry="26.77"/><path class="cls-8" d="M463.55,573.38c4.79-4.8,5.3-4.1,16.45-14.38,10.24-9.44,11.88-12,17-14,7.13-2.86,18.94-4,24,2,6.31,7.48-.29,23.15-8,32-5,5.74-9.55,7.56-27.94,15.31C450.12,609,445.91,611.16,444,609,439.83,604.27,451.94,585,463.55,573.38Z"/><path class="cls-8" d="M425.67,574.07C421.07,555,417,538,427,528c6.55-6.52,18.6-9.5,26-5,14.74,9,4.68,43.85,2.68,50.79-1.09,3.79-8.27,28.69-16.68,28.21C432.31,601.62,428.39,585.35,425.67,574.07Z"/><path class="cls-8" d="M450,643c3.4,13,7.11,19.16,7,32-.06,7-.22,14.2-5,21-6.35,9-19.35,15.12-27,11-1.1-.59-4.07-2.46-6-8-9-25.75,16.44-96.17,25.63-93.66C448.35,606.35,443.34,617.64,450,643Z"/><path class="cls-8" d="M403,662c-10.13,10.33-22.23,22.67-30.37,19.16-7.09-3.06-9.92-17.63-5.63-28.16,4-9.72,12.26-11.72,32-23,28.31-16.19,35.68-26.06,38.53-23.62C442.27,610.45,424.46,640.12,403,662Z"/><path class="cls-8" d="M489,637c7.67,3.23,13.63,4.72,18,11,6.73,9.68,6.35,26-1,31-9.7,6.61-29.53-7.79-39-17-20.65-20.07-28.09-50.49-22.25-54.23C449.72,604.58,458.81,624.29,489,637Z"/><path class="cls-8" d="M485.43,597.22c14.39-2.94,46.2-9.44,52.92,3.06,5,9.26-4.32,27.92-17.56,32.75-6.78,2.48-11,0-32-6.22-31.18-9.28-40.37-9.41-40.66-13.41C447.6,606.74,472.52,599.85,485.43,597.22Z"/><path class="cls-8" d="M397.26,625.59c-14.56,1.94-46.74,6.23-52.58-6.71-4.32-9.58,6.24-27.55,19.78-31.46,6.94-2,11,.73,31.54,8.42C426.47,607.26,435.63,608,435.64,612,435.66,618.71,410.32,623.85,397.26,625.59Z"/><path class="cls-8" d="M389.43,584.33C381.93,580.75,376,579,372,572.49c-6.26-10-5.11-26.26,2.47-30.92,10-6.14,29.13,9.19,38.15,18.84,19.67,21,25.66,51.77,19.65,55.23C427.13,618.58,419,598.46,389.43,584.33Z"/><ellipse class="cls-5" cx="439" cy="610" rx="20" ry="19"/><path class="cls-8" d="M1213.23,741c4.19-3.32,4.53-2.73,14.2-9.78,8.89-6.47,10.4-8.28,14.6-9.43,5.86-1.59,15.21-1.42,18.64,3.75,4.26,6.44-2.33,18.12-9.18,24.36-4.44,4.05-8.18,5.07-23.3,9.47-28.73,8.38-32.23,9.66-33.53,7.79C1191.82,763.08,1203.07,749.08,1213.23,741Z"/><path class="cls-8" d="M1183.46,738.12c-1.87-15.36-3.54-29.09,5.23-36,5.73-4.51,15.45-5.76,20.84-1.55,10.75,8.37-.31,34.8-2.51,40.06-1.2,2.87-9.09,21.75-15.64,20.6C1186.17,760.31,1184.57,747.21,1183.46,738.12Z"/><path class="cls-8" d="M1196.28,794.37c1.49,10.47,3.83,15.67,2.58,25.72-.68,5.44-1.47,11.12-5.83,16-5.8,6.51-16.55,10.1-22.17,6.17-.81-.56-3-2.3-4-6.81-4.7-21,21.63-73.91,28.61-71.11C1198.31,765.49,1193.36,773.88,1196.28,794.37Z"/><path class="cls-8" d="M1157.7,805c-8.88,7.18-19.49,15.75-25.55,12.26-5.28-3-6.18-14.72-1.86-22.58,4-7.27,10.68-8.08,27.18-15.13,23.67-10.12,30.34-17.19,32.36-15C1193.18,768.14,1176.52,789.79,1157.7,805Z"/><path class="cls-8" d="M1227.4,793.21c5.72,3.22,10.26,4.93,13.11,10.26,4.4,8.2,2.62,20.95-3.6,24.21-8.2,4.3-22.44-8.79-29-16.87-14.36-17.61-17.44-42.14-12.52-44.54C1199.55,764.22,1204.88,780.5,1227.4,793.21Z"/><path class="cls-8" d="M1228.22,761.69c11.55-1,37.08-3.2,41.21,7.22,3.06,7.7-5.92,21.49-16.75,24.08-5.54,1.32-8.65-1-24.55-7.8-23.61-10.11-30.81-11-30.67-14.2C1197.69,765.72,1217.85,762.59,1228.22,761.69Z"/><path class="cls-8" d="M1156.51,775.93c-11.59.2-37.21.63-40.62-10-2.51-7.9,7.4-21,18.37-22.86,5.62-.94,8.56,1.57,24,9.47,22.86,11.72,30,13.14,29.61,16.29C1187.24,774,1166.91,775.75,1156.51,775.93Z"/><path class="cls-8" d="M1154.12,742.87c-5.55-3.5-10-5.42-12.61-10.87-4-8.4-1.62-21.06,4.75-24,8.4-3.9,22,9.85,28.2,18.23,13.51,18.28,15.41,42.92,10.39,45.09C1180.57,773.15,1176,756.63,1154.12,742.87Z"/><ellipse class="cls-6" cx="1190.65" cy="767.49" rx="15" ry="15.79" transform="translate(291.18 1861.87) rotate(-83.39)"/><path class="cls-8" d="M1857.3,227.5c6.13-6.45,6.78-5.5,21-19.34,13.09-12.7,15.2-16.07,21.74-18.83,9.13-3.84,24.22-5.38,30.7,2.69,8.06,10.06-.37,31.14-10.23,43-6.4,7.71-12.22,10.17-35.74,20.59-44.69,19.81-50.08,22.67-52.52,19.76C1827,269.05,1842.45,243.15,1857.3,227.5Z"/><path class="cls-8" d="M1808.84,228.44c-5.87-25.63-11.13-48.55,1.71-62,8.38-8.77,23.79-12.78,33.25-6.73,18.86,12.07,6,59,3.44,68.31-1.4,5.1-10.59,38.6-21.34,37.95C1817.34,265.48,1812.32,243.61,1808.84,228.44Z"/><path class="cls-8" d="M1840,321.15c4.35,17.43,9.1,25.77,9,43-.08,9.35-.28,19.1-6.4,28.25-8.12,12.15-24.74,20.33-34.53,14.79-1.41-.8-5.2-3.31-7.67-10.76-11.49-34.63,21-129.35,32.78-126C1837.85,271.86,1831.45,287,1840,321.15Z"/><path class="cls-8" d="M1779.85,346.7c-13,13.9-28.43,30.49-38.84,25.77-9.07-4.12-12.69-23.71-7.2-37.87,5.07-13.08,15.68-15.76,40.93-30.94,36.21-21.77,45.63-35,49.27-31.76C1830.08,277.37,1807.3,317.27,1779.85,346.7Z"/><path class="cls-8" d="M1889.85,313.08c9.8,4.34,17.44,6.34,23,14.79,8.6,13,8.13,35-1.28,41.7-12.4,8.89-37.77-10.48-49.88-22.87-26.41-27-35.93-67.91-28.46-72.94C1839.6,269.47,1851.23,296,1889.85,313.08Z"/><path class="cls-8" d="M1885.28,259.57c18.41-4,59.09-12.7,67.69,4.12,6.36,12.45-5.52,37.55-22.46,44.05-8.68,3.33-14.11,0-41-8.37-39.89-12.48-51.64-12.65-52-18C1836.9,272.37,1868.77,263.12,1885.28,259.57Z"/><path class="cls-8" d="M1772.51,297.74c-18.62,2.6-59.79,8.37-67.26-9-5.52-12.88,8-37,25.31-42.31,8.87-2.69,14.07,1,40.33,11.33,39,15.35,50.7,16.37,50.71,21.77C1821.62,288.48,1789.22,295.4,1772.51,297.74Z"/><path class="cls-8" d="M1762.5,242.24c-9.6-4.83-17.13-7.21-22.33-15.93-8-13.43-6.54-35.32,3.16-41.59,12.79-8.25,37.26,12.36,48.8,25.34,25.16,28.28,32.82,69.63,25.13,74.28C1810.72,288.31,1800.3,261.25,1762.5,242.24Z"/><ellipse class="cls-2" cx="1825.9" cy="276.76" rx="25.58" ry="25.56"/><path class="cls-8" d="M1355.86,493.42c1.83-1.59,2-1.35,6.29-4.75,3.92-3.12,4.55-3.95,6.51-4.63,2.73-.94,7.24-1.32,9.18.66,2.41,2.48-.11,7.65-3.06,10.58-1.91,1.89-3.65,2.5-10.69,5.06-13.37,4.86-15,5.56-15.71,4.85C1346.78,503.63,1351.42,497.26,1355.86,493.42Z"/><path class="cls-8" d="M1341.36,493.65c-1.75-6.3-3.33-11.92.51-15.22,2.51-2.15,7.12-3.14,10-1.65,5.64,3,1.79,14.48,1,16.77-.42,1.26-3.17,9.49-6.38,9.33C1343.91,502.75,1342.41,497.38,1341.36,493.65Z"/><path class="cls-8" d="M1350.67,516.42c1.31,4.28,2.73,6.33,2.68,10.57,0,2.3-.08,4.7-1.91,6.94-2.43,3-7.4,5-10.33,3.64a4.68,4.68,0,0,1-2.3-2.65c-3.43-8.5,6.29-31.77,9.81-30.94C1350,504.31,1348.13,508,1350.67,516.42Z"/><path class="cls-8" d="M1332.69,522.7c-3.88,3.41-8.5,7.49-11.62,6.33-2.71-1-3.8-5.83-2.15-9.3,1.51-3.22,4.69-3.88,12.24-7.6,10.83-5.35,13.65-8.61,14.74-7.81C1347.72,505.67,1340.9,515.47,1332.69,522.7Z"/><path class="cls-8" d="M1365.6,514.44c2.93,1.07,5.21,1.56,6.88,3.63,2.58,3.2,2.44,8.59-.38,10.24-3.71,2.19-11.3-2.57-14.92-5.61-7.9-6.63-10.75-16.68-8.52-17.92C1350.57,503.73,1354,510.24,1365.6,514.44Z"/><path class="cls-8" d="M1364.23,501.3c5.51-1,17.68-3.12,20.25,1,1.9,3.06-1.65,9.22-6.72,10.82-2.59.82-4.22,0-12.26-2.06-11.93-3.06-15.45-3.1-15.56-4.43C1349.76,504.44,1359.29,502.17,1364.23,501.3Z"/><path class="cls-8" d="M1330.49,510.67c-5.57.64-17.88,2.06-20.11-2.22-1.66-3.16,2.38-9.1,7.57-10.39,2.65-.66,4.21.24,12.06,2.78,11.66,3.77,15.17,4,15.17,5.35C1345.19,508.4,1335.49,510.1,1330.49,510.67Z"/><path class="cls-8" d="M1327.5,497c-2.87-1.19-5.12-1.77-6.68-3.91-2.39-3.3-2-8.68,1-10.22,3.82-2,11.14,3,14.59,6.22,7.53,6.95,9.82,17.11,7.52,18.25C1341.92,508.35,1338.81,501.71,1327.5,497Z"/><ellipse class="cls-2" cx="1346.47" cy="505.52" rx="7.65" ry="6.28"/><path class="cls-8" d="M1512.67,853.72c7.65-1.48,7.67-.47,24.9-3.06,15.83-2.38,19-3.71,25.2-2.34,8.62,1.91,20.57,8.51,21.5,17.57,1.16,11.29-15.22,22-28.27,25.48-8.45,2.24-14,1-36.43-3.54-42.7-8.66-48.07-9.37-48.49-12.69C1470.17,867.88,1494.12,857.31,1512.67,853.72Z"/><path class="cls-8" d="M1476.23,829.68c7.94-21.27,15-40.29,31-43.32,10.43-2,23.81,3,27.93,12.16,8.21,18.22-23.88,45.12-30.26,50.46-3.48,2.93-26.39,22.13-34.07,16.18C1464.75,860.43,1471.52,842.28,1476.23,829.68Z"/><path class="cls-8" d="M1454.82,911.66c-5.14,14.65-5.62,23-14,35.26-4.55,6.62-9.38,13.48-18.31,16.88-11.88,4.53-28.15,1.88-32.76-7.06-.66-1.29-2.27-5-.53-11.59,8.1-30.55,77.73-81.52,84.84-73.11C1476.92,875.44,1464.87,883,1454.82,911.66Z"/><path class="cls-8" d="M1397.9,899.23c-16.3,3.3-35.76,7.24-41.22-1.43-4.76-7.56,2-23.38,12.84-30.68,10-6.74,19.22-3.24,45.25-1.19,37.35,2.94,50.72-1.72,51.85,2.48C1468.51,875.4,1432.42,892.24,1397.9,899.23Z"/><path class="cls-8" d="M1495.74,931.34c5.2,8.1,9.91,13.42,10,22.29.14,13.67-10.75,29.07-21,29.08-13.48,0-23-26.73-26.06-41.74-6.65-32.71,5.93-66.74,13.89-66.53C1479.37,874.63,1475.27,899.46,1495.74,931.34Z"/><path class="cls-8" d="M1518.05,890.86c15.57,6.56,50,21.07,48.28,37.45-1.25,12.12-22.13,24-37.83,20-8-2-10.5-7.17-26.42-26.87-23.63-29.24-32.28-35.35-30-39.38C1476,875.31,1504.08,885,1518.05,890.86Z"/><path class="cls-8" d="M1416,860.57c-15.08-7.64-48.42-24.51-45.61-40.74,2.09-12,23.72-22.35,39.12-17.27,7.88,2.61,10,7.89,24.51,28.65,21.57,30.82,29.79,37.52,27.2,41.38C1456.88,879,1429.49,867.42,1416,860.57Z"/><path class="cls-8" d="M1435.18,815.89c-4.81-8.33-9.26-13.87-8.93-22.74.51-13.66,12.11-28.52,22.32-28,13.46.63,21.73,27.8,24.07,42.94,5.1,33-9.07,66.39-17,65.79C1448.87,873.33,1454.13,848.72,1435.18,815.89Z"/><ellipse class="cls-7" cx="1465.69" cy="872.84" rx="21.96" ry="23.05" transform="translate(-140.62 1447.18) rotate(-50.45)"/><path class="cls-8" d="M170.55,676.81c5.18-5.46,5.72-4.66,17.77-16.34,11.07-10.74,12.85-13.58,18.38-15.92,7.71-3.25,20.47-4.55,25.94,2.28,6.81,8.5-.31,26.31-8.65,36.37-5.4,6.52-10.32,8.59-30.19,17.4-37.77,16.75-42.32,19.16-44.39,16.7C144.9,711.92,158,690,170.55,676.81Z"/><path class="cls-8" d="M129.6,677.6c-5-21.66-9.41-41,1.44-52.37,7.08-7.4,20.11-10.8,28.1-5.68,15.93,10.2,5.06,49.84,2.9,57.72-1.18,4.31-8.94,32.62-18,32.07C136.78,708.9,132.54,690.42,129.6,677.6Z"/><path class="cls-8" d="M155.9,755.94c3.68,14.74,7.69,21.78,7.56,36.37-.06,7.9-.24,16.15-5.4,23.87-6.87,10.28-20.91,17.19-29.18,12.51-1.2-.68-4.4-2.8-6.49-9.1-9.71-29.26,17.77-109.31,27.7-106.45C154.11,714.29,148.7,727.12,155.9,755.94Z"/><path class="cls-8" d="M105.1,777.54c-11,11.74-24,25.76-32.82,21.77-7.67-3.48-10.73-20-6.09-32,4.28-11,13.25-13.32,34.58-26.14,30.6-18.4,38.57-29.62,41.65-26.85C147.55,718.94,128.29,752.66,105.1,777.54Z"/><path class="cls-8" d="M198.05,749.12c8.29,3.67,14.74,5.36,19.46,12.51,7.27,11,6.86,29.54-1.08,35.23-10.49,7.51-31.92-8.86-42.16-19.32-22.31-22.81-30.36-57.39-24.05-61.64C155.59,712.27,165.42,734.68,198.05,749.12Z"/><path class="cls-8" d="M194.19,703.9c15.56-3.34,49.94-10.73,57.2,3.49,5.37,10.52-4.67,31.73-19,37.23-7.33,2.81-11.92,0-34.64-7.08-33.7-10.55-43.64-10.69-44-15.24C153.3,714.72,180.24,706.9,194.19,703.9Z"/><path class="cls-8" d="M98.89,736.16c-15.73,2.2-50.52,7.07-56.83-7.64-4.67-10.88,6.74-31.31,21.38-35.75,7.5-2.28,11.9.83,34.09,9.57,32.93,13,42.83,13.84,42.85,18.4C140.4,728.34,113,734.18,98.89,736.16Z"/><path class="cls-8" d="M90.44,689.26c-8.11-4.08-14.48-6.09-18.87-13.46C64.8,664.45,66,646,74.24,640.66c10.81-7,31.48,10.44,41.23,21.41,21.26,23.9,27.73,58.84,21.24,62.77C131.18,728.19,122.38,705.32,90.44,689.26Z"/><ellipse class="cls-2" cx="144.01" cy="718.43" rx="21.62" ry="21.6"/><path class="cls-7" d="M1776.12,838.48c2.8-2.87,3.1-2.45,9.62-8.61,6-5.66,7-7.16,10-8.39,4.17-1.72,11.07-2.41,14,1.19,3.68,4.49-.17,13.88-4.68,19.18-2.93,3.44-5.59,4.54-16.35,9.18-20.44,8.83-22.9,10.1-24,8.8C1762.24,857,1769.32,845.45,1776.12,838.48Z"/><path class="cls-7" d="M1754,838.9c-2.68-11.42-5.09-21.63.78-27.61,3.84-3.91,10.89-5.7,15.21-3,8.63,5.38,2.74,26.28,1.57,30.44-.64,2.27-4.84,17.2-9.76,16.91C1757.84,855.41,1755.55,845.66,1754,838.9Z"/><path class="cls-7" d="M1768.19,880.21c2,7.77,4.16,11.49,4.09,19.18,0,4.16-.13,8.51-2.92,12.59-3.72,5.41-11.32,9.06-15.8,6.59-.64-.36-2.38-1.48-3.51-4.8-5.25-15.43,9.62-57.64,15-56.13C1767.22,858.25,1764.3,865,1768.19,880.21Z"/><path class="cls-7" d="M1740.69,891.6c-5.93,6.19-13,13.58-17.76,11.48-4.15-1.84-5.81-10.57-3.3-16.88,2.32-5.82,7.18-7,18.72-13.78,16.57-9.7,20.88-15.62,22.54-14.15C1763.67,860.7,1753.25,878.48,1740.69,891.6Z"/><path class="cls-7" d="M1791,876.61c4.48,1.94,8,2.83,10.53,6.6,3.93,5.8,3.71,15.57-.59,18.58-5.67,4-17.27-4.67-22.82-10.19-12.07-12-16.43-30.26-13-32.51C1768,857.18,1773.34,869,1791,876.61Z"/><path class="cls-7" d="M1788.92,852.77c8.42-1.76,27-5.66,31,1.84,2.9,5.55-2.53,16.73-10.28,19.63-4,1.48-6.45,0-18.74-3.73-18.25-5.57-23.63-5.64-23.79-8C1766.78,858.48,1781.36,854.35,1788.92,852.77Z"/><path class="cls-7" d="M1737.34,869.78c-8.52,1.16-27.35,3.73-30.77-4-2.52-5.74,3.65-16.51,11.58-18.85,4-1.2,6.44.44,18.45,5.05,17.82,6.84,23.18,7.29,23.19,9.7C1759.8,865.65,1745,868.74,1737.34,869.78Z"/><path class="cls-7" d="M1732.76,845.05c-4.39-2.15-7.84-3.21-10.22-7.1-3.66-6-3-15.74,1.45-18.53,5.85-3.68,17,5.51,22.32,11.29,11.51,12.6,15,31,11.5,33.1C1754.81,865.58,1750.05,853.52,1732.76,845.05Z"/><ellipse class="cls-3" cx="1761.75" cy="860.43" rx="11.7" ry="11.39"/><path class="cls-7" d="M1738.66,377c5.07-1.14,5.11-.48,16.55-2.55,10.51-1.9,12.6-2.85,16.75-2.07,5.79,1.08,13.9,5.19,14.71,11.16,1,7.43-9.7,14.86-18.33,17.42-5.59,1.66-9.29,1-24.37-1.58-28.67-4.83-32.26-5.19-32.61-7.37C1710.6,387.22,1726.36,379.74,1738.66,377Z"/><path class="cls-7" d="M1713.85,361.86c4.86-14.21,9.21-26.93,19.8-29.26,6.92-1.53,15.95,1.49,18.88,7.45,5.85,11.86-15,30.3-19.14,34-2.26,2-17.15,15.16-22.39,11.4C1706.83,382.42,1711,370.28,1713.85,361.86Z"/><path class="cls-7" d="M1701.27,416.47c-3.13,9.78-3.28,15.32-8.63,23.58-2.89,4.47-6,9.1-11.86,11.54-7.83,3.23-18.74,1.83-22-4-.47-.84-1.62-3.27-.59-7.65,4.77-20.35,50.16-55.47,55.08-50.07C1715.26,392.08,1707.38,397.32,1701.27,416.47Z"/><path class="cls-7" d="M1663,409.44c-10.8,2.52-23.7,5.53-27.52-.08-3.33-4.9.82-15.49,7.93-20.54,6.56-4.66,12.75-2.54,30.16-1.73,25,1.17,33.8-2.19,34.64.56C1709.65,392.23,1685.93,404.1,1663,409.44Z"/><path class="cls-7" d="M1729,428.62c3.63,5.24,6.88,8.65,7.13,14.51.37,9-6.58,19.43-13.39,19.65-9,.29-15.91-17.18-18.25-27-5.11-21.47,2.57-44.22,7.89-44.24C1716.88,391.49,1714.66,408,1729,428.62Z"/><path class="cls-7" d="M1743,401.4c10.52,4,33.78,12.89,33,23.74-.59,8-14.27,16.29-24.83,14-5.41-1.19-7.15-4.52-18.18-17.2-16.36-18.83-22.26-22.69-20.8-25.4C1714.62,392,1733.57,397.81,1743,401.4Z"/><path class="cls-7" d="M1674.29,383.53c-10.22-4.74-32.8-15.19-31.26-26,1.14-8,15.36-15.26,25.73-12.22,5.31,1.56,6.82,5,16.94,18.42,15,19.91,20.65,24.16,19,26.76C1702,394.86,1683.46,387.77,1674.29,383.53Z"/><path class="cls-7" d="M1686.19,353.61c-3.38-5.41-6.47-9-6.43-14.84.06-9,7.49-19.09,14.31-19,9,.14,15.07,17.92,16.94,27.87,4.09,21.69-4.67,44-10,43.81C1696.5,391.27,1699.51,374.9,1686.19,353.61Z"/><ellipse class="cls-8" cx="1707.71" cy="390.59" rx="14.57" ry="15.33" transform="translate(462.37 1622.65) rotate(-57.58)"/><path class="cls-7" d="M346,332.47c3.67-3.68,4.06-3.14,12.6-11,7.85-7.25,9.11-9.16,13-10.74,5.47-2.19,14.51-3.07,18.4,1.54,4.83,5.73-.23,17.74-6.14,24.53-3.83,4.4-7.32,5.79-21.42,11.74-26.78,11.29-30,12.91-31.47,11.26C327.8,356.15,337.08,341.38,346,332.47Z"/><path class="cls-7" d="M316.94,333c-3.52-14.61-6.67-27.67,1-35.32,5-5,14.26-7.28,19.94-3.83,11.3,6.88,3.59,33.61,2.05,38.93-.84,2.91-6.34,22-12.79,21.63C322,354.11,319,341.65,316.94,333Z"/><path class="cls-7" d="M335.6,385.84c2.6,9.94,5.45,14.69,5.36,24.53,0,5.33-.17,10.89-3.83,16.1-4.87,6.93-14.84,11.59-20.7,8.43-.85-.45-3.12-1.88-4.6-6.13-6.89-19.74,12.6-73.72,19.65-71.8C334.33,357.75,330.49,366.4,335.6,385.84Z"/><path class="cls-7" d="M299.56,400.41c-7.76,7.92-17,17.37-23.27,14.68-5.44-2.34-7.61-13.51-4.32-21.58,3-7.46,9.4-9,24.53-17.64,21.7-12.4,27.35-20,29.53-18.1C329.67,360.89,316,383.63,299.56,400.41Z"/><path class="cls-7" d="M365.49,381.24c5.88,2.48,10.45,3.62,13.8,8.43,5.16,7.42,4.87,19.93-.76,23.77-7.44,5.06-22.64-6-29.9-13C332.8,385,327.09,361.7,331.57,358.83,335.38,356.39,342.35,371.5,365.49,381.24Z"/><path class="cls-7" d="M362.76,350.74c11-2.25,35.41-7.23,40.57,2.35,3.81,7.1-3.32,21.4-13.47,25.11-5.2,1.9-8.45,0-24.56-4.77-23.91-7.12-31-7.21-31.18-10.28C333.75,358,352.86,352.77,362.76,350.74Z"/><path class="cls-7" d="M295.16,372.5c-11.16,1.48-35.83,4.77-40.31-5.15-3.31-7.34,4.79-21.12,15.17-24.12,5.32-1.53,8.44.57,24.18,6.46,23.36,8.75,30.38,9.33,30.39,12.41C324.6,367.22,305.18,371.16,295.16,372.5Z"/><path class="cls-7" d="M289.17,340.87c-5.76-2.75-10.27-4.11-13.39-9.08-4.8-7.66-3.92-20.14,1.9-23.7,7.66-4.71,22.33,7,29.24,14.43C322,338.64,326.59,362.21,322,364.86,318.06,367.12,311.82,351.7,289.17,340.87Z"/><ellipse class="cls-6" cx="327.16" cy="360.54" rx="15.33" ry="14.57"/><path class="cls-7" d="M1633.69,673.9c3.67-3.68,4.06-3.14,12.61-11,7.85-7.24,9.11-9.16,13-10.73,5.47-2.19,14.52-3.07,18.4,1.53,4.83,5.73-.22,17.75-6.13,24.53-3.84,4.4-7.33,5.8-21.42,11.74-26.79,11.29-30,12.92-31.48,11.26C1615.5,697.58,1624.79,682.82,1633.69,673.9Z"/><path class="cls-7" d="M1604.65,674.44c-3.53-14.61-6.68-27.67,1-35.32,5-5,14.26-7.29,19.93-3.84,11.3,6.88,3.59,33.62,2.06,38.94-.84,2.9-6.35,22-12.79,21.62C1609.74,695.55,1606.73,683.08,1604.65,674.44Z"/><path class="cls-7" d="M1623.3,727.28c2.61,9.93,5.45,14.69,5.37,24.53-.05,5.32-.17,10.88-3.84,16.1-4.87,6.92-14.83,11.59-20.7,8.43-.84-.46-3.11-1.89-4.6-6.13-6.88-19.74,12.6-73.73,19.65-71.81C1622,699.18,1618.2,707.84,1623.3,727.28Z"/><path class="cls-7" d="M1587.27,741.84c-7.77,7.92-17,17.38-23.28,14.69-5.44-2.35-7.61-13.52-4.32-21.59,3-7.45,9.4-9,24.53-17.63,21.71-12.41,27.35-20,29.54-18.1C1617.38,702.32,1603.72,725.06,1587.27,741.84Z"/><path class="cls-7" d="M1653.2,722.68c5.87,2.47,10.45,3.61,13.8,8.43,5.15,7.42,4.87,19.92-.77,23.76-7.43,5.07-22.64-6-29.9-13-15.83-15.38-21.53-38.7-17.06-41.57C1623.08,697.82,1630.05,712.93,1653.2,722.68Z"/><path class="cls-7" d="M1650.46,692.18c11-2.26,35.42-7.24,40.57,2.35,3.81,7.09-3.31,21.4-13.46,25.11-5.2,1.89-8.46,0-24.57-4.78-23.91-7.11-31-7.21-31.17-10.28C1621.46,699.47,1640.56,694.2,1650.46,692.18Z"/><path class="cls-7" d="M1582.87,713.93c-11.16,1.49-35.83,4.77-40.31-5.15-3.31-7.34,4.78-21.12,15.16-24.11,5.32-1.54,8.44.56,24.18,6.46,23.36,8.74,30.38,9.33,30.39,12.4C1612.3,708.66,1592.88,712.6,1582.87,713.93Z"/><path class="cls-7" d="M1576.87,682.3c-5.75-2.75-10.27-4.11-13.38-9.08-4.8-7.65-3.92-20.13,1.89-23.7,7.67-4.71,22.33,7,29.25,14.44,15.08,16.12,19.67,39.69,15.06,42.34C1605.77,708.56,1599.53,693.13,1576.87,682.3Z"/><ellipse class="cls-4" cx="1614.87" cy="701.98" rx="15.33" ry="14.57"/><path class="cls-7" d="M254.69,187.9c3.67-3.68,4.06-3.14,12.61-11,7.85-7.24,9.11-9.16,13-10.73,5.47-2.19,14.52-3.07,18.4,1.53,4.83,5.73-.22,17.75-6.13,24.53-3.84,4.4-7.33,5.8-21.42,11.74-26.79,11.29-30,12.92-31.48,11.26C236.5,211.58,245.79,196.82,254.69,187.9Z"/><path class="cls-7" d="M225.65,188.44c-3.53-14.61-6.68-27.67,1-35.32,5-5,14.26-7.29,19.93-3.84,11.3,6.88,3.59,33.62,2.06,38.94-.84,2.9-6.35,22-12.79,21.62C230.74,209.55,227.73,197.08,225.65,188.44Z"/><path class="cls-7" d="M244.3,241.28c2.61,9.93,5.45,14.69,5.37,24.53,0,5.32-.17,10.88-3.84,16.1-4.87,6.92-14.83,11.59-20.7,8.43-.84-.46-3.11-1.89-4.6-6.13-6.88-19.74,12.6-73.73,19.65-71.81C243,213.18,239.2,221.84,244.3,241.28Z"/><path class="cls-7" d="M208.27,255.84c-7.77,7.92-17,17.38-23.28,14.69-5.44-2.35-7.61-13.52-4.32-21.59,3-7.45,9.4-9,24.53-17.63,21.71-12.41,27.35-20,29.54-18.1C238.38,216.32,224.72,239.06,208.27,255.84Z"/><path class="cls-7" d="M274.2,236.68c5.87,2.47,10.45,3.61,13.8,8.43,5.15,7.42,4.87,19.92-.77,23.76-7.43,5.07-22.64-6-29.9-13-15.83-15.38-21.53-38.7-17.06-41.57C244.08,211.82,251.05,226.93,274.2,236.68Z"/><path class="cls-7" d="M271.46,206.18c11-2.26,35.42-7.24,40.57,2.35,3.81,7.09-3.31,21.4-13.46,25.11-5.2,1.89-8.46,0-24.57-4.78-23.91-7.11-30.95-7.21-31.17-10.28C242.46,213.47,261.56,208.2,271.46,206.18Z"/><path class="cls-7" d="M203.87,227.93c-11.16,1.49-35.83,4.77-40.31-5.15-3.31-7.34,4.78-21.12,15.16-24.11,5.32-1.54,8.44.56,24.18,6.46,23.36,8.74,30.38,9.33,30.39,12.4C233.3,222.66,213.88,226.6,203.87,227.93Z"/><path class="cls-7" d="M197.87,196.3c-5.75-2.75-10.27-4.11-13.38-9.08-4.8-7.65-3.92-20.13,1.89-23.7,7.67-4.71,22.33,7,29.25,14.44,15.08,16.12,19.67,39.69,15.06,42.34C226.77,222.56,220.53,207.13,197.87,196.3Z"/><ellipse class="cls-5" cx="235.87" cy="215.98" rx="15.33" ry="14.57"/><path class="cls-7" d="M1070.77,727.55c2.39-2.42,2.64-2.07,8.2-7.26,5.11-4.76,5.93-6,8.48-7.06,3.56-1.45,9.44-2,12,1,3.14,3.77-.15,11.68-4,16.15-2.5,2.89-4.77,3.81-13.94,7.72-17.42,7.44-19.52,8.51-20.47,7.41C1058.94,743.14,1065,733.42,1070.77,727.55Z"/><path class="cls-7" d="M1051.88,727.9c-2.29-9.62-4.34-18.21.66-23.25,3.27-3.29,9.28-4.8,13-2.52,7.35,4.52,2.33,22.12,1.33,25.62-.54,1.92-4.12,14.49-8.32,14.24C1055.19,741.8,1053.23,733.59,1051.88,727.9Z"/><path class="cls-7" d="M1064,762.68c1.7,6.54,3.55,9.67,3.49,16.15,0,3.51-.11,7.17-2.49,10.6-3.17,4.56-9.65,7.63-13.47,5.55a6.76,6.76,0,0,1-3-4c-4.48-13,8.2-48.53,12.78-47.26C1063.19,744.19,1060.69,749.89,1064,762.68Z"/><path class="cls-7" d="M1040.57,772.27c-5,5.21-11.08,11.44-15.14,9.67-3.54-1.55-5-8.9-2.81-14.21,2-4.91,6.12-5.92,16-11.61,14.12-8.17,17.79-13.15,19.21-11.92C1060.16,746.26,1051.27,761.23,1040.57,772.27Z"/><path class="cls-7" d="M1083.46,759.65c3.82,1.63,6.8,2.38,9,5.55,3.36,4.89,3.17,13.12-.49,15.65-4.84,3.33-14.73-3.94-19.45-8.58-10.3-10.13-14-25.48-11.1-27.37C1063.87,743.29,1068.4,753.24,1083.46,759.65Z"/><path class="cls-7" d="M1081.68,739.58c7.17-1.49,23-4.77,26.39,1.55,2.48,4.67-2.16,14.08-8.76,16.52-3.38,1.25-5.5,0-16-3.14-15.55-4.68-20.13-4.74-20.28-6.77C1062.81,744.38,1075.24,740.91,1081.68,739.58Z"/><path class="cls-7" d="M1037.71,753.9c-7.26,1-23.31,3.14-26.22-3.39-2.16-4.83,3.11-13.9,9.86-15.88,3.46-1,5.49.37,15.73,4.26,15.2,5.75,19.76,6.14,19.77,8.16C1056.86,750.42,1044.22,753,1037.71,753.9Z"/><path class="cls-7" d="M1033.81,733.08c-3.74-1.81-6.68-2.71-8.71-6-3.12-5-2.55-13.25,1.24-15.6,5-3.1,14.52,4.64,19,9.5,9.81,10.61,12.79,26.13,9.8,27.87C1052.61,750.36,1048.55,740.21,1033.81,733.08Z"/><ellipse class="cls-2" cx="1058.52" cy="746.03" rx="9.97" ry="9.59"/><path class="cls-7" d="M357.4,807.09c4.79-8.06,5.7-7.27,17.15-24.82,10.52-16.11,11.88-20,18-24.49,8.57-6.2,23.93-11.63,32.68-5.19,10.9,8,7.32,31.34,0,45.83-4.76,9.39-10.22,13.35-32.17,29.86-41.71,31.37-46.62,35.62-49.89,33.33C336,856.59,345.78,826.61,357.4,807.09Z"/><path class="cls-7" d="M307.09,820.49c-12.47-24.21-23.62-45.86-13.55-62.64,6.57-10.94,21.65-18.94,33-15.3,22.65,7.27,20.84,57.66,20.48,67.68-.2,5.48-1.49,41.46-12.87,43.57C325.12,855.48,314.47,834.82,307.09,820.49Z"/><path class="cls-7" d="M362.49,905.53c8.85,16.38,15.86,23.53,20,40.89,2.23,9.4,4.43,19.25.31,30-5.46,14.29-20.78,26.77-32.35,23.73-1.67-.44-6.25-2-10.67-8.83-20.55-31.8-10.08-135.23,3-134.86C348.09,856.6,345.17,873.49,362.49,905.53Z"/><path class="cls-7" d="M306.11,946.63C296,963.92,284,984.54,272,982.48c-10.48-1.8-19.11-20.54-16.88-36.16,2-14.42,12.46-19.85,35-41.57,32.38-31.16,38.92-46.9,43.53-44.55C341.35,864.13,327.46,910,306.11,946.63Z"/><path class="cls-7" d="M412.52,884.6c11.3,1.84,19.75,1.89,27.67,8.93,12.19,10.86,17.12,33,9,42.18-10.73,12.11-42-.81-57.68-10.12-34.22-20.31-54.27-58.92-47.74-65.89C349.33,853.76,368,877.38,412.52,884.6Z"/><path class="cls-7" d="M394.51,832.08c18.22-8.71,58.49-27.94,71.62-13.27,9.71,10.86,3.53,39.1-12.53,50-8.22,5.57-14.7,3.66-44.82,2.13-44.69-2.27-57,.59-58.71-4.73C347.22,857.37,378.17,839.88,394.51,832.08Z"/><path class="cls-7" d="M286.34,899.38c-18.78,7.4-60.28,23.77-72.38,8.22-9-11.5-.84-39.24,15.93-49,8.58-5,14.92-2.63,44.87,1C319.2,865,331.67,863,333,868.45,335.27,877.46,303.19,892.73,286.34,899.38Z"/><path class="cls-7" d="M262.17,846.25c-11.2-2.37-19.65-2.83-27.23-10.24-11.67-11.43-15.55-33.77-7-42.55,11.3-11.58,41.91,2.82,57.16,12.88,33.24,21.92,51.45,61.44,44.59,68.09C323.86,880.09,306.3,855.61,262.17,846.25Z"/><ellipse class="cls-2" cx="336.83" cy="864.6" rx="27.48" ry="26.42" transform="translate(-197.16 105.76) rotate(-13.85)"/><path class="cls-7" d="M1157.8,884.33c3.6-3.69,4-3.15,12.35-11.06,7.69-7.27,8.93-9.19,12.77-10.77,5.36-2.2,14.22-3.08,18,1.54,4.73,5.75-.22,17.81-6,24.62-3.76,4.42-7.18,5.82-21,11.78-26.24,11.34-29.4,13-30.84,11.3C1140,908.1,1149.08,893.28,1157.8,884.33Z"/><path class="cls-7" d="M1129.34,884.87c-3.45-14.66-6.53-27.77,1-35.45,4.92-5,14-7.31,19.53-3.85,11.07,6.9,3.52,33.74,2,39.08-.82,2.92-6.22,22.08-12.53,21.71C1134.33,906.06,1131.39,893.55,1129.34,884.87Z"/><path class="cls-7" d="M1147.62,937.91c2.56,10,5.34,14.74,5.26,24.62-.05,5.35-.17,10.93-3.76,16.16-4.77,6.95-14.53,11.63-20.28,8.46-.83-.45-3-1.89-4.5-6.15-6.75-19.81,12.34-74,19.25-72.07C1146.38,909.71,1142.62,918.4,1147.62,937.91Z"/><path class="cls-7" d="M1112.32,952.53c-7.61,8-16.7,17.44-22.81,14.74-5.33-2.36-7.45-13.57-4.23-21.67,3-7.48,9.21-9,24-17.7,21.27-12.45,26.8-20,28.94-18.17C1141.82,912.86,1128.44,935.69,1112.32,952.53Z"/><path class="cls-7" d="M1176.91,933.29c5.76,2.48,10.24,3.63,13.52,8.46,5,7.45,4.77,20-.75,23.86-7.28,5.08-22.18-6-29.29-13.08-15.51-15.45-21.1-38.85-16.72-41.73C1147.41,908.34,1154.23,923.51,1176.91,933.29Z"/><path class="cls-7" d="M1174.23,902.68c10.81-2.27,34.7-7.27,39.75,2.36,3.73,7.12-3.25,21.48-13.19,25.2-5.1,1.9-8.29,0-24.07-4.79-23.42-7.14-30.33-7.24-30.54-10.32C1145.82,910,1164.53,904.71,1174.23,902.68Z"/><path class="cls-7" d="M1108,924.51c-10.94,1.5-35.11,4.79-39.5-5.17-3.24-7.36,4.69-21.19,14.86-24.2,5.21-1.54,8.27.56,23.69,6.48,22.89,8.78,29.77,9.37,29.77,12.46C1136.85,919.22,1117.82,923.17,1108,924.51Z"/><path class="cls-7" d="M1102.13,892.76c-5.64-2.76-10.06-4.12-13.11-9.11-4.7-7.68-3.84-20.21,1.85-23.79,7.51-4.72,21.88,7.07,28.66,14.49,14.77,16.19,19.27,39.84,14.76,42.5C1130.44,919.12,1124.33,903.64,1102.13,892.76Z"/><ellipse class="cls-3" cx="1139.36" cy="912.51" rx="15.02" ry="14.62"/><path class="cls-7" d="M1551.28,62.58c4.39-4.5,4.85-3.84,15-13.47,9.37-8.85,10.87-11.2,15.55-13.12,6.53-2.68,17.32-3.75,22,1.87,5.77,7-.26,21.69-7.32,30-4.57,5.37-8.73,7.08-25.55,14.34C1539,96,1535.15,98,1533.4,96,1529.58,91.52,1540.66,73.48,1551.28,62.58Z"/><path class="cls-7" d="M1516.64,63.23c-4.21-17.85-8-33.82,1.22-43.17,6-6.1,17-8.9,23.77-4.68,13.48,8.41,4.28,41.08,2.46,47.58-1,3.55-7.57,26.89-15.26,26.43C1522.71,89,1519.12,73.8,1516.64,63.23Z"/><path class="cls-7" d="M1538.89,127.81c3.11,12.14,6.5,17.95,6.4,30-.06,6.51-.2,13.3-4.57,19.67-5.81,8.47-17.7,14.17-24.69,10.31-1-.56-3.72-2.31-5.49-7.5-8.22-24.12,15-90.1,23.44-87.75C1537.38,93.47,1532.8,104.05,1538.89,127.81Z"/><path class="cls-7" d="M1495.91,145.61c-9.27,9.68-20.33,21.23-27.77,17.95-6.49-2.87-9.08-16.52-5.16-26.38,3.63-9.11,11.22-11,29.27-21.55,25.89-15.17,32.63-24.42,35.23-22.13C1531.82,97.31,1515.53,125.1,1495.91,145.61Z"/><path class="cls-7" d="M1574.56,122.19c7,3,12.46,4.41,16.46,10.3,6.15,9.07,5.81,24.35-.92,29-8.87,6.2-27-7.3-35.66-15.92-18.89-18.81-25.69-47.31-20.36-50.81C1538.63,91.81,1546.94,110.28,1574.56,122.19Z"/><path class="cls-7" d="M1571.29,84.91c13.16-2.75,42.25-8.84,48.4,2.88,4.54,8.67-4,26.15-16.07,30.68-6.2,2.32-10.08,0-29.3-5.83-28.52-8.7-36.92-8.81-37.19-12.57C1536.69,93.83,1559.48,87.38,1571.29,84.91Z"/><path class="cls-7" d="M1490.66,111.5c-13.32,1.82-42.75,5.83-48.09-6.3-4-9,5.7-25.8,18.09-29.47,6.34-1.87,10.07.69,28.84,7.9,27.87,10.69,36.25,11.4,36.26,15.16C1525.77,105.05,1502.6,109.87,1490.66,111.5Z"/><path class="cls-7" d="M1483.5,72.84c-6.86-3.36-12.25-5-16-11.09-5.73-9.36-4.68-24.61,2.26-29,9.14-5.75,26.63,8.61,34.88,17.65,18,19.7,23.47,48.5,18,51.74C1518,104.93,1510.53,86.08,1483.5,72.84Z"/><ellipse class="cls-3" cx="1528.83" cy="96.89" rx="18.29" ry="17.8"/><path class="cls-7" d="M593.21,637.05c2.63-2.63,2.91-2.25,9-7.89,5.61-5.18,6.52-6.56,9.32-7.68,3.92-1.57,10.39-2.2,13.17,1.1,3.46,4.1-.15,12.7-4.39,17.56-2.74,3.14-5.24,4.14-15.33,8.4-19.17,8.08-21.48,9.24-22.53,8.06C580.19,654,586.84,643.43,593.21,637.05Z"/><path class="cls-7" d="M572.42,637.43c-2.52-10.45-4.77-19.8.73-25.28,3.6-3.58,10.21-5.21,14.27-2.74,8.09,4.92,2.57,24.06,1.47,27.86-.6,2.08-4.54,15.75-9.15,15.49C576.07,652.54,573.91,643.62,572.42,637.43Z"/><path class="cls-7" d="M585.77,675.25c1.87,7.12,3.91,10.52,3.84,17.56,0,3.82-.12,7.8-2.74,11.53-3.48,5-10.62,8.29-14.81,6-.61-.32-2.24-1.35-3.3-4.39-4.93-14.13,9-52.77,14.07-51.39C584.87,655.15,582.12,661.34,585.77,675.25Z"/><path class="cls-7" d="M560,685.68c-5.56,5.67-12.19,12.44-16.66,10.51-3.89-1.68-5.45-9.67-3.09-15.45,2.17-5.33,6.73-6.43,17.56-12.62,15.53-8.88,19.58-14.3,21.14-13C581.53,657.39,571.76,673.67,560,685.68Z"/><path class="cls-7" d="M607.17,672c4.21,1.77,7.48,2.59,9.88,6,3.69,5.31,3.49,14.26-.55,17-5.32,3.62-16.2-4.28-21.4-9.33-11.33-11-15.41-27.71-12.21-29.76C585.62,654.17,590.61,665,607.17,672Z"/><path class="cls-7" d="M605.21,650.13c7.9-1.61,25.36-5.18,29,1.68,2.73,5.08-2.37,15.32-9.63,18-3.72,1.35-6.06,0-17.59-3.42-17.11-5.09-22.15-5.16-22.31-7.36C584.46,655.35,598.13,651.58,605.21,650.13Z"/><path class="cls-7" d="M556.83,665.7c-8,1.07-25.64,3.42-28.85-3.68-2.37-5.26,3.42-15.12,10.86-17.27,3.8-1.09,6,.41,17.3,4.63,16.72,6.26,21.75,6.68,21.75,8.88C577.9,661.93,564,664.75,556.83,665.7Z"/><path class="cls-7" d="M552.54,643.06c-4.12-2-7.35-2.94-9.58-6.5-3.43-5.48-2.8-14.41,1.36-17,5.48-3.37,16,5,20.93,10.33C576,641.47,579.33,658.34,576,660.24,573.23,661.86,568.76,650.82,552.54,643.06Z"/><ellipse class="cls-6" cx="579.74" cy="657.15" rx="10.97" ry="10.43"/><path class="cls-7" d="M140.4,552c5.08-1.13,5.11-.47,16.56-2.54,10.5-1.9,12.6-2.85,16.75-2.07,5.79,1.08,13.9,5.19,14.71,11.16,1,7.43-9.7,14.86-18.33,17.42-5.59,1.65-9.29,1-24.37-1.58-28.67-4.83-32.27-5.19-32.61-7.37C112.35,562.26,128.11,554.78,140.4,552Z"/><path class="cls-7" d="M115.6,536.9c4.86-14.22,9.2-26.93,19.8-29.27,6.92-1.52,15.95,1.5,18.88,7.46,5.85,11.86-15,30.3-19.14,34-2.26,2-17.15,15.17-22.39,11.4C108.58,557.45,112.73,545.32,115.6,536.9Z"/><path class="cls-7" d="M103,591.5c-3.13,9.79-3.28,15.33-8.63,23.59-2.89,4.47-6,9.1-11.87,11.53-7.82,3.24-18.73,1.83-22-4-.47-.84-1.62-3.26-.59-7.64,4.77-20.35,50.16-55.48,55.08-50.07C117,567.11,109.13,572.36,103,591.5Z"/><path class="cls-7" d="M64.79,584.48C54,587,41.09,590,37.27,584.39c-3.34-4.89.82-15.48,7.93-20.53,6.56-4.66,12.75-2.54,30.16-1.73,25,1.16,33.79-2.2,34.63.55C111.4,567.26,87.67,579.14,64.79,584.48Z"/><path class="cls-7" d="M130.72,603.65c3.63,5.24,6.88,8.66,7.12,14.52.38,9-6.57,19.43-13.38,19.65-9,.29-15.91-17.18-18.25-27-5.11-21.48,2.57-44.22,7.89-44.24C118.62,566.53,116.4,583,130.72,603.65Z"/><path class="cls-7" d="M144.76,576.44c10.52,4,33.78,12.88,33,23.74-.58,8-14.26,16.29-24.82,14-5.41-1.18-7.15-4.51-18.18-17.2-16.36-18.82-22.26-22.68-20.8-25.39C116.37,567.05,135.32,572.84,144.76,576.44Z"/><path class="cls-7" d="M76,558.56c-10.22-4.73-32.8-15.18-31.26-26,1.14-8,15.36-15.26,25.73-12.22,5.31,1.55,6.82,5,16.94,18.41,15,19.91,20.65,24.17,19,26.77C103.72,569.89,85.21,562.8,76,558.56Z"/><path class="cls-7" d="M87.94,528.65c-3.38-5.41-6.47-9-6.43-14.84.06-9,7.49-19.1,14.31-19,9,.13,15.07,17.91,16.94,27.86,4.09,21.7-4.67,44.05-10,43.82C98.25,566.31,101.25,549.94,87.94,528.65Z"/><ellipse class="cls-8" cx="109.46" cy="565.63" rx="14.57" ry="15.33" transform="translate(-426.68 354.74) rotate(-57.58)"/></g></svg>