<svg xmlns="http://www.w3.org/2000/svg" width="1920" height="1080" viewBox="0 0 1920 1080"><defs><style>.cls-1{fill:#939200;}.cls-2{fill:#f4e1c0;}.cls-3{fill:#ff6d00;}.cls-4{fill:#ffa7d7;}.cls-5{fill:#056cf2;}.cls-6{fill:#9c7b6c;}.cls-7{fill:#8d96be;}.cls-8{fill:#00ba60;}</style></defs><g id="_2" data-name="2"><g id="Beige"><rect class="cls-1" width="1920" height="1080"/><path class="cls-2" d="M202.3,166.85c4.76-4.77,5.26-4.06,16.35-14.29,10.18-9.39,11.81-11.87,16.9-13.91,7.09-2.85,18.82-4,23.86,2,6.26,7.44-.29,23-8,31.82-5,5.7-9.49,7.51-27.77,15.22-34.73,14.64-38.92,16.75-40.82,14.6C178.71,197.57,190.75,178.42,202.3,166.85Z"/><path class="cls-2" d="M164.63,167.55c-4.56-18.94-8.65-35.88,1.33-45.8,6.51-6.48,18.49-9.45,25.85-5,14.65,8.92,4.65,43.6,2.66,50.49-1.08,3.77-8.22,28.53-16.58,28.05C171.24,194.93,167.34,178.76,164.63,167.55Z"/><path class="cls-2" d="M188.82,236.07c3.39,12.89,7.08,19.05,7,31.81-.06,6.91-.22,14.12-5,20.88-6.31,9-19.23,15-26.84,10.93-1.1-.59-4-2.45-6-7.95-8.93-25.59,16.34-95.61,25.48-93.11C187.18,199.64,182.21,210.86,188.82,236.07Z"/><path class="cls-2" d="M142.1,255C132,265.23,120,277.49,111.91,274c-7-3-9.87-17.53-5.6-28,3.94-9.66,12.19-11.65,31.81-22.86,28.15-16.09,35.47-25.91,38.3-23.48C181.14,203.71,163.44,233.2,142.1,255Z"/><path class="cls-2" d="M227.59,230.1c7.63,3.21,13.56,4.69,17.9,10.94,6.68,9.62,6.31,25.84-1,30.82-9.63,6.57-29.35-7.75-38.77-16.9C185.2,235,177.8,204.76,183.6,201,188.54,197.87,197.58,217.47,227.59,230.1Z"/><path class="cls-2" d="M224,190.56c14.31-2.93,45.93-9.39,52.61,3.05,5,9.19-4.29,27.74-17.46,32.55-6.74,2.46-11,0-31.85-6.19-31-9.22-40.14-9.35-40.43-13.33C186.44,200,211.21,193.18,224,190.56Z"/><path class="cls-2" d="M136.39,218.76c-14.47,1.93-46.46,6.19-52.27-6.67-4.29-9.52,6.2-27.39,19.67-31.28,6.89-2,10.94.74,31.35,8.38,30.29,11.35,39.4,12.1,39.41,16.09C174.57,211.92,149.38,217,136.39,218.76Z"/><path class="cls-2" d="M128.61,177.75c-7.46-3.57-13.31-5.33-17.35-11.78-6.22-9.93-5.08-26.1,2.46-30.73,9.94-6.1,28.95,9.13,37.92,18.72,19.56,20.91,25.51,51.47,19.54,54.91C166.09,211.8,158,191.8,128.61,177.75Z"/><ellipse class="cls-3" cx="177.89" cy="203.26" rx="19.88" ry="18.89"/><path class="cls-2" d="M502.29,72.45c3.08-7.34,3.95-6.79,11.52-22.9,7-14.79,7.63-18.24,12.29-22.73,6.49-6.26,18.81-12.72,27-8.43,10.16,5.34,9.92,25.28,5.45,38.32-2.9,8.44-7,12.44-23.6,29-31.47,31.45-35.11,35.62-38.14,34.11C490.15,116.51,494.8,90.23,502.29,72.45Z"/><path class="cls-2" d="M461.41,90C448,71.27,436,54.56,442.5,39.28c4.24-10,16-18.55,26.05-16.93,20,3.24,24.47,45.6,25.36,54,.49,4.61,3.69,34.85-5.66,38C480.81,117,469.36,101,461.41,90Z"/><path class="cls-2" d="M518.32,154.12c9.43,12.58,16.21,17.68,21.76,31.69,3,7.57,6,15.53,3.84,25-2.91,12.63-14.35,25-24.48,23.89-1.47-.16-5.51-.88-10.06-6-21.15-24-24.64-111.8-13.54-113.14C500.33,115,499.88,129.5,518.32,154.12Z"/><path class="cls-2" d="M475.63,195.54c-6.44,15.71-14.14,34.46-24.54,34.24-9.06-.19-18.58-14.77-18.56-28.11,0-12.32,8.15-18.16,24.61-39.14,23.62-30.11,27.27-44.1,31.44-42.7C495.54,122.15,489.29,162.27,475.63,195.54Z"/><path class="cls-2" d="M558.07,130.36c9.75.12,16.9-.9,24.42,4,11.59,7.55,18.39,25.44,12.62,34.14-7.62,11.47-35.55,4.58-49.91-1.24-31.31-12.7-52.85-42.47-48.16-49.12C501,112.48,519.63,129.89,558.07,130.36Z"/><path class="cls-2" d="M536.6,88.69c14.35-9.55,46-30.68,58.88-20,9.5,7.86,7.64,32.25-4.62,43.36-6.27,5.69-12,4.9-37.58,7.39-38,3.7-48,7.63-50.13,3.4C499.69,115.76,523.74,97.27,536.6,88.69Z"/><path class="cls-2" d="M453.3,158.5c-15,8.55-48.05,27.43-60.12,15.94-8.93-8.5-5.39-32.7,7.6-42.94,6.66-5.24,12.29-4.06,38-4.77,38.17-1.07,48.46-4.29,50.25.07C492,134.05,466.73,150.84,453.3,158.5Z"/><path class="cls-2" d="M426.56,117.11c-9.74-.58-16.92.1-24.21-5.15-11.21-8.09-17.16-26.29-11-34.7,8.15-11.1,35.72-2.89,49.79,3.61,30.67,14.16,50.77,44.93,45.77,51.35C482.68,137.68,464.93,119.41,426.56,117.11Z"/><ellipse class="cls-4" cx="491.78" cy="123.11" rx="23.47" ry="22.29" transform="translate(-10.15 194.29) rotate(-22.13)"/><path class="cls-2" d="M408.6,291.57c3-3.05,3.37-2.6,10.46-9.13,6.5-6,7.55-7.6,10.8-8.9,4.53-1.82,12-2.55,15.25,1.27,4,4.75-.18,14.71-5.08,20.34-3.18,3.64-6.07,4.8-17.76,9.73-22.2,9.36-24.88,10.7-26.09,9.33C393.53,311.2,401.22,299,408.6,291.57Z"/><path class="cls-2" d="M384.53,292c-2.92-12.1-5.53-22.93.84-29.27,4.17-4.14,11.83-6,16.53-3.18,9.36,5.7,3,27.87,1.7,32.27-.69,2.41-5.26,18.24-10.6,17.93C388.75,309.52,386.26,299.18,384.53,292Z"/><path class="cls-2" d="M400,335.82c2.16,8.23,4.52,12.17,4.45,20.33,0,4.42-.14,9-3.18,13.35-4,5.74-12.29,9.61-17.16,7-.7-.38-2.58-1.57-3.81-5.09-5.71-16.36,10.45-61.11,16.29-59.52C398.94,312.53,395.76,319.7,400,335.82Z"/><path class="cls-2" d="M370.12,347.89c-6.44,6.57-14.12,14.4-19.29,12.17-4.51-1.94-6.31-11.2-3.58-17.89,2.52-6.18,7.79-7.44,20.33-14.61,18-10.29,22.67-16.56,24.48-15C395.08,315.13,383.76,334,370.12,347.89Z"/><path class="cls-2" d="M424.77,332c4.88,2.05,8.67,3,11.44,7,4.28,6.15,4,16.52-.63,19.7-6.16,4.2-18.77-4.95-24.79-10.8-13.12-12.75-17.85-32.09-14.14-34.46C399.81,311.4,405.59,323.93,424.77,332Z"/><path class="cls-2" d="M422.51,306.72c9.14-1.87,29.35-6,33.63,1.95,3.16,5.88-2.75,17.74-11.17,20.81-4.3,1.58-7,0-20.36-4-19.82-5.9-25.66-6-25.84-8.52C398.46,312.77,414.3,308.4,422.51,306.72Z"/><path class="cls-2" d="M366.48,324.75c-9.26,1.24-29.71,4-33.42-4.26-2.75-6.09,4-17.51,12.57-20,4.41-1.28,7,.46,20,5.35,19.37,7.25,25.19,7.73,25.2,10.29C390.88,320.38,374.78,323.65,366.48,324.75Z"/><path class="cls-2" d="M361.5,298.53c-4.77-2.28-8.51-3.4-11.09-7.52-4-6.35-3.25-16.69,1.57-19.65,6.35-3.9,18.51,5.84,24.24,12,12.5,13.36,16.31,32.9,12.49,35.1C385.46,320.3,380.28,307.52,361.5,298.53Z"/><ellipse class="cls-5" cx="393" cy="314.85" rx="12.71" ry="12.07"/><path class="cls-2" d="M97.19,346.06c3.86.66,3.7,1.13,12.27,3,7.88,1.67,9.61,1.61,12.28,3.33,3.74,2.41,8.22,7.6,7.08,12-1.42,5.47-11,7.6-17.76,6.92-4.38-.44-6.76-2-16.56-8.06-18.62-11.55-21-12.83-20.64-14.46C74.69,345.2,87.82,344.47,97.19,346.06Z"/><path class="cls-2" d="M84.2,328.43c7.45-8.53,14.11-16.16,22.17-14.76,5.26.91,10.7,5.59,11,10.59.69,9.94-19.12,16.85-23,18.23-2.16.75-16.3,5.68-18.88,1.56C73.43,340.76,79.79,333.48,84.2,328.43Z"/><path class="cls-2" d="M59.83,362.93c-5,5.94-6.66,9.76-12.75,14-3.3,2.3-6.77,4.64-11.58,4.66-6.38,0-13.59-4.07-14.2-9.05-.09-.72-.2-2.75,1.76-5.51,9.14-12.83,50.85-24.38,52.73-19.2C76.56,349.91,69.56,351.32,59.83,362.93Z"/><path class="cls-2" d="M35.17,347.12c-8.26-1.33-18.12-2.91-19.18-7.92-.93-4.37,5-10.57,11.39-12.07,5.91-1.37,9.63,1.87,21.54,7.41,17.09,7.94,24.21,8.12,24,10.28C72.6,348.41,52.66,349.93,35.17,347.12Z"/><path class="cls-2" d="M75.69,379.32c1,4.69,2.33,8,.82,12.16-2.31,6.41-10.13,11.68-15,9.89-6.35-2.37-6.19-16.53-5-24.07,2.56-16.44,14.42-30.12,18.14-28.62C77.85,350,71.59,360.83,75.69,379.32Z"/><path class="cls-2" d="M93.25,364.34c6.2,5.81,19.89,18.64,16.24,26-2.7,5.44-14.61,7.29-21.31,2.66-3.43-2.37-3.7-5.19-7.77-17.19-6-17.8-9.06-22.18-7.27-23.65C76.13,349.68,87.7,359.14,93.25,364.34Z"/><path class="cls-2" d="M50.42,332.25c-5.78-6.22-18.56-20-14.4-27,3.07-5.24,15.07-6.27,21.44-1.18,3.26,2.6,3.33,5.43,6.56,17.68,4.8,18.18,7.51,22.76,5.62,24.1C66.49,348.05,55.6,337.82,50.42,332.25Z"/><path class="cls-2" d="M67.26,314.77c-.82-4.74-2-8.1-.25-12.19,2.62-6.28,10.68-11.18,15.41-9.16,6.23,2.66,5.39,16.8,3.86,24.28C82.94,334,70.44,347.1,66.8,345.42,63.7,344,70.47,333.43,67.26,314.77Z"/><ellipse class="cls-6" cx="71.71" cy="346.72" rx="10.98" ry="11.56" transform="translate(-187.24 105.27) rotate(-35.32)"/><path class="cls-2" d="M79.47,54.3c1.67-1.67,1.85-1.43,5.73-5,3.57-3.29,4.14-4.16,5.92-4.88,2.49-1,6.6-1.39,8.36.7,2.2,2.61-.1,8.06-2.78,11.15-1.75,2-3.33,2.63-9.74,5.33-12.17,5.13-13.63,5.87-14.3,5.12C71.21,65.06,75.43,58.35,79.47,54.3Z"/><path class="cls-2" d="M66.27,54.54c-1.6-6.64-3-12.57.47-16,2.28-2.27,6.48-3.31,9.06-1.74,5.13,3.13,1.63,15.28.93,17.69-.38,1.32-2.88,10-5.81,9.83C68.59,64.13,67.22,58.47,66.27,54.54Z"/><path class="cls-2" d="M74.75,78.55c1.19,4.52,2.48,6.68,2.44,11.15,0,2.42-.08,4.94-1.74,7.31-2.22,3.15-6.74,5.27-9.41,3.83A4.62,4.62,0,0,1,64,98.06c-3.13-9,5.73-33.5,8.93-32.63C74.18,65.79,72.43,69.72,74.75,78.55Z"/><path class="cls-2" d="M58.38,85.17c-3.53,3.6-7.75,7.89-10.58,6.67-2.47-1.06-3.46-6.14-2-9.81C47.22,78.65,50.11,78,57,74,66.85,68.38,69.41,65,70.41,65.8,72.06,67.21,65.85,77.55,58.38,85.17Z"/><path class="cls-2" d="M88.34,76.46c2.67,1.12,4.74,1.64,6.27,3.83,2.34,3.37,2.21,9.06-.35,10.8-3.38,2.3-10.29-2.71-13.59-5.92-7.19-7-9.78-17.59-7.75-18.89C74.65,65.17,77.82,72,88.34,76.46Z"/><path class="cls-2" d="M87.09,62.6c5-1,16.1-3.29,18.44,1.07,1.73,3.22-1.51,9.72-6.12,11.41-2.36.86-3.84,0-11.16-2.17-10.87-3.23-14.07-3.28-14.17-4.67C73.91,65.92,82.59,63.52,87.09,62.6Z"/><path class="cls-2" d="M56.38,72.49c-5.07.67-16.28,2.17-18.32-2.34-1.5-3.34,2.18-9.6,6.89-11,2.42-.7,3.84.26,11,2.93,10.61,4,13.8,4.24,13.81,5.64C69.75,70.09,60.93,71.88,56.38,72.49Z"/><path class="cls-2" d="M53.65,58.11C51,56.87,49,56.25,47.57,54c-2.18-3.48-1.78-9.15.86-10.77,3.49-2.14,10.15,3.2,13.29,6.56,6.85,7.33,8.94,18,6.85,19.24C66.78,70.05,64,63,53.65,58.11Z"/><ellipse class="cls-7" cx="70.92" cy="67.06" rx="6.97" ry="6.62"/><path class="cls-2" d="M202.52,471.28c2.41-2.41,2.66-2,8.26-7.21,5.14-4.74,6-6,8.53-7,3.58-1.44,9.5-2,12,1,3.17,3.76-.14,11.62-4,16.06-2.51,2.88-4.79,3.8-14,7.69-17.54,7.39-19.65,8.45-20.61,7.37C190.62,486.78,196.7,477.12,202.52,471.28Z"/><path class="cls-2" d="M183.51,471.63c-2.3-9.56-4.37-18.11.67-23.12,3.29-3.27,9.34-4.77,13-2.51,7.4,4.5,2.35,22,1.34,25.49-.54,1.9-4.15,14.4-8.37,14.16C186.84,485.45,184.88,477.29,183.51,471.63Z"/><path class="cls-2" d="M195.72,506.22c1.71,6.51,3.57,9.62,3.52,16.06,0,3.49-.12,7.13-2.51,10.54-3.19,4.54-9.71,7.59-13.55,5.52a6.68,6.68,0,0,1-3-4c-4.51-12.93,8.24-48.27,12.86-47C194.89,487.83,192.38,493.5,195.72,506.22Z"/><path class="cls-2" d="M172.14,515.76c-5.09,5.18-11.16,11.37-15.24,9.61-3.56-1.54-5-8.85-2.83-14.13,2-4.88,6.15-5.88,16.06-11.54,14.21-8.13,17.9-13.08,19.33-11.85C191.85,489.89,182.91,504.77,172.14,515.76Z"/><path class="cls-2" d="M215.29,503.21c3.85,1.62,6.85,2.37,9,5.52,3.37,4.86,3.19,13-.5,15.56-4.87,3.31-14.82-3.91-19.58-8.53-10.36-10.08-14.09-25.34-11.16-27.22C195.58,486.94,200.14,496.83,215.29,503.21Z"/><path class="cls-2" d="M213.5,483.25c7.23-1.48,23.19-4.74,26.56,1.53,2.5,4.65-2.17,14-8.81,16.44-3.41,1.24-5.54,0-16.08-3.12-15.66-4.66-20.27-4.72-20.41-6.73C194.52,488,207,484.57,213.5,483.25Z"/><path class="cls-2" d="M169.25,497.49c-7.3,1-23.45,3.12-26.38-3.38-2.17-4.8,3.13-13.82,9.93-15.78,3.48-1,5.52.37,15.82,4.23,15.29,5.72,19.89,6.1,19.9,8.12C188.53,494,175.81,496.61,169.25,497.49Z"/><path class="cls-2" d="M165.33,476.78c-3.77-1.8-6.72-2.69-8.76-5.94-3.14-5-2.57-13.18,1.24-15.52,5-3.08,14.61,4.61,19.14,9.45,9.87,10.56,12.88,26,9.86,27.72C184.25,494,180.16,483.87,165.33,476.78Z"/><ellipse class="cls-8" cx="190.2" cy="489.66" rx="10.04" ry="9.54"/><path class="cls-2" d="M107.19,653.22c2.67-2.67,3-2.28,9.15-8,5.7-5.25,6.61-6.65,9.46-7.79,4-1.59,10.53-2.22,13.34,1.12,3.51,4.16-.16,12.87-4.45,17.79-2.78,3.2-5.31,4.21-15.53,8.52-19.44,8.19-21.78,9.37-22.84,8.17C94,670.4,100.73,659.69,107.19,653.22Z"/><path class="cls-2" d="M86.12,653.6c-2.55-10.59-4.84-20.07.74-25.62,3.65-3.63,10.35-5.29,14.46-2.78,8.2,5,2.61,24.39,1.5,28.24-.61,2.11-4.61,16-9.28,15.7C89.82,668.92,87.63,659.88,86.12,653.6Z"/><path class="cls-2" d="M99.65,691.94c1.9,7.21,4,10.66,3.9,17.8,0,3.86-.13,7.9-2.78,11.68-3.54,5-10.76,8.41-15,6.11-.61-.33-2.26-1.37-3.34-4.44-5-14.32,9.15-53.49,14.26-52.1C98.74,671.56,96,677.84,99.65,691.94Z"/><path class="cls-2" d="M73.51,702.51c-5.63,5.74-12.36,12.6-16.88,10.65-4-1.7-5.53-9.81-3.14-15.66,2.21-5.41,6.82-6.52,17.8-12.79,15.75-9,19.84-14.49,21.43-13.14C95.36,673.83,85.45,690.34,73.51,702.51Z"/><path class="cls-2" d="M121.35,688.6c4.26,1.8,7.58,2.62,10,6.12,3.74,5.38,3.53,14.45-.56,17.24-5.39,3.68-16.42-4.33-21.69-9.45-11.48-11.17-15.62-28.09-12.38-30.17C99.5,670.57,104.55,681.53,121.35,688.6Z"/><path class="cls-2" d="M119.36,666.48c8-1.64,25.7-5.26,29.43,1.7,2.77,5.15-2.4,15.53-9.77,18.22-3.77,1.37-6.13,0-17.82-3.47-17.34-5.16-22.45-5.23-22.61-7.45C98.32,671.77,112.18,667.94,119.36,666.48Z"/><path class="cls-2" d="M70.32,682.26c-8.1,1.08-26,3.46-29.24-3.74-2.41-5.32,3.47-15.32,11-17.49,3.86-1.12,6.12.41,17.54,4.68,16.95,6.35,22,6.77,22,9C91.68,678.43,77.59,681.29,70.32,682.26Z"/><path class="cls-2" d="M66,659.31c-4.17-2-7.45-3-9.71-6.59-3.48-5.55-2.84-14.6,1.38-17.19,5.56-3.42,16.19,5.11,21.21,10.47,10.94,11.7,14.27,28.79,10.93,30.72C86.94,678.36,82.41,667.17,66,659.31Z"/><ellipse class="cls-3" cx="93.54" cy="673.59" rx="11.12" ry="10.57"/><path class="cls-2" d="M426,875.33c2-4.8,2.58-4.45,7.55-15,4.56-9.69,5-12,8.05-14.89,4.25-4.11,12.33-8.34,17.67-5.53,6.66,3.5,6.5,16.57,3.57,25.11-1.9,5.53-4.61,8.15-15.46,19-20.62,20.61-23,23.34-25,22.35C418.08,904.21,421.13,887,426,875.33Z"/><path class="cls-2" d="M399.25,886.8c-8.79-12.24-16.65-23.19-12.39-33.2,2.78-6.54,10.5-12.16,17.07-11.09,13.1,2.12,16,29.87,16.62,35.39.32,3,2.42,22.84-3.71,24.93C412,904.49,404.46,894.05,399.25,886.8Z"/><path class="cls-2" d="M436.55,928.85c6.17,8.24,10.61,11.59,14.25,20.76,2,5,3.95,10.18,2.52,16.41-1.91,8.27-9.41,16.37-16.05,15.65-1-.1-3.61-.58-6.59-4-13.85-15.74-16.14-73.26-8.87-74.13C424.76,903.22,424.46,912.71,436.55,928.85Z"/><path class="cls-2" d="M408.57,956c-4.22,10.3-9.27,22.58-16.08,22.44-5.94-.13-12.18-9.68-12.17-18.42,0-8.08,5.35-11.9,16.14-25.65,15.47-19.73,17.86-28.89,20.6-28C421.62,907.9,417.52,934.19,408.57,956Z"/><path class="cls-2" d="M462.59,913.28c6.39.08,11.07-.59,16,2.62,7.6,5,12.05,16.67,8.27,22.37-5,7.52-23.29,3-32.7-.81-20.52-8.32-34.63-27.83-31.56-32.19C425.22,901.56,437.4,913,462.59,913.28Z"/><path class="cls-2" d="M448.52,886c9.4-6.27,30.17-20.11,38.58-13.14,6.22,5.15,5,21.13-3,28.41-4.11,3.73-7.85,3.21-24.63,4.84-24.9,2.43-31.48,5-32.85,2.23C424.33,903.71,440.09,891.6,448.52,886Z"/><path class="cls-2" d="M393.94,931.72c-9.81,5.6-31.49,18-39.4,10.45-5.85-5.57-3.53-21.43,5-28.14,4.36-3.43,8.05-2.66,24.91-3.13,25-.7,31.75-2.81,32.92.05C419.3,915.7,402.74,926.7,393.94,931.72Z"/><path class="cls-2" d="M376.42,904.6c-6.39-.38-11.09.06-15.87-3.38-7.35-5.3-11.24-17.22-7.19-22.74,5.35-7.26,23.41-1.89,32.63,2.37,20.1,9.28,33.26,29.44,30,33.65C413.19,918.08,401.56,906.11,376.42,904.6Z"/><ellipse class="cls-4" cx="419.15" cy="908.53" rx="15.38" ry="14.61" transform="translate(-311.33 224.78) rotate(-22.13)"/><path class="cls-2" d="M1339.23,929.31c4.49-4.87,5-4.16,15.4-14.59,9.59-9.59,11.13-12.13,15.92-14.21,6.68-2.9,17.73-4.07,22.47,2,5.91,7.59-.27,23.49-7.49,32.47-4.68,5.83-8.94,7.68-26.16,15.54-32.71,15-36.66,17.1-38.45,14.91C1317,960.65,1328.36,941.11,1339.23,929.31Z"/><path class="cls-2" d="M1303.76,930c-4.31-19.33-8.15-36.62,1.24-46.75,6.14-6.61,17.42-9.64,24.35-5.08,13.8,9.11,4.38,44.5,2.51,51.54-1,3.85-7.75,29.12-15.62,28.63C1310,958,1306.3,941.46,1303.76,930Z"/><path class="cls-2" d="M1326.54,1000c3.19,13.15,6.66,19.45,6.56,32.47-.06,7-.21,14.41-4.69,21.31-5.94,9.17-18.12,15.34-25.28,11.16-1-.6-3.81-2.49-5.62-8.11-8.41-26.13,15.39-97.6,24-95C1325,962.77,1320.31,974.23,1326.54,1000Z"/><path class="cls-2" d="M1282.53,1019.24c-9.49,10.49-20.81,23-28.43,19.44-6.65-3.11-9.3-17.89-5.28-28.57,3.71-9.87,11.48-11.89,30-23.34,26.52-16.43,33.41-26.45,36.08-24C1319.31,966.93,1302.63,997,1282.53,1019.24Z"/><path class="cls-2" d="M1363.06,993.87c7.18,3.27,12.77,4.79,16.85,11.16,6.3,9.83,5.95,26.38-.93,31.46-9.08,6.71-27.65-7.91-36.52-17.25-19.33-20.37-26.3-51.24-20.84-55C1326.28,961,1334.79,981,1363.06,993.87Z"/><path class="cls-2" d="M1359.72,953.5c13.47-3,43.26-9.58,49.55,3.11,4.66,9.39-4,28.33-16.45,33.24-6.34,2.51-10.32,0-30-6.32-29.2-9.42-37.81-9.55-38.08-13.61C1324.29,963.16,1347.63,956.18,1359.72,953.5Z"/><path class="cls-2" d="M1277.16,982.29c-13.64,2-43.77,6.32-49.24-6.81-4.05-9.72,5.84-28,18.52-31.92,6.5-2,10.31.74,29.53,8.55,28.54,11.58,37.11,12.35,37.12,16.42C1313.11,975.31,1289.39,980.53,1277.16,982.29Z"/><path class="cls-2" d="M1269.83,940.42c-7-3.64-12.54-5.43-16.35-12-5.86-10.14-4.78-26.65,2.32-31.38,9.36-6.23,27.27,9.33,35.72,19.11,18.42,21.34,24,52.54,18.4,56.05C1305.13,975.18,1297.5,954.77,1269.83,940.42Z"/><ellipse class="cls-5" cx="1316.24" cy="966.47" rx="18.73" ry="19.28"/><path class="cls-2" d="M260.67,760.37c2.17.37,2.08.63,6.9,1.66,4.42.94,5.39.9,6.9,1.87,2.09,1.36,4.61,4.27,4,6.74-.8,3.07-6.18,4.27-10,3.88-2.46-.24-3.79-1.11-9.3-4.52-10.46-6.49-11.81-7.21-11.6-8.12C248,759.88,255.41,759.48,260.67,760.37Z"/><path class="cls-2" d="M253.38,750.46c4.18-4.79,7.92-9.08,12.45-8.29,3,.51,6,3.14,6.21,6,.39,5.59-10.74,9.47-13,10.24-1.21.42-9.16,3.2-10.61.88C247.33,757.39,250.9,753.3,253.38,750.46Z"/><path class="cls-2" d="M239.68,769.85c-2.79,3.33-3.74,5.48-7.16,7.86-1.85,1.29-3.8,2.6-6.5,2.61-3.59,0-7.64-2.28-8-5.08a4.35,4.35,0,0,1,1-3.09c5.13-7.22,28.56-13.7,29.62-10.79C249.08,762.53,245.15,763.32,239.68,769.85Z"/><path class="cls-2" d="M225.83,761c-4.64-.74-10.18-1.63-10.78-4.45-.52-2.45,2.81-5.94,6.41-6.77,3.32-.78,5.4,1,12.1,4.16,9.6,4.46,13.59,4.56,13.48,5.77C246.86,761.69,235.65,762.54,225.83,761Z"/><path class="cls-2" d="M248.59,779.05c.59,2.64,1.31,4.5.47,6.84-1.3,3.59-5.69,6.56-8.4,5.55-3.57-1.33-3.48-9.29-2.82-13.52,1.44-9.24,8.1-16.92,10.19-16.08C249.81,762.56,246.29,768.67,248.59,779.05Z"/><path class="cls-2" d="M258.46,770.64c3.48,3.26,11.17,10.47,9.12,14.59-1.52,3.06-8.2,4.1-12,1.5-1.93-1.33-2.08-2.92-4.36-9.66-3.4-10-5.09-12.46-4.09-13.29C248.84,762.4,255.34,767.71,258.46,770.64Z"/><path class="cls-2" d="M234.4,752.61c-3.25-3.5-10.43-11.22-8.09-15.19,1.72-2.94,8.46-3.52,12-.67,1.83,1.47,1.87,3.06,3.69,9.94,2.7,10.21,4.21,12.78,3.15,13.54C243.43,761.49,237.31,755.74,234.4,752.61Z"/><path class="cls-2" d="M243.86,742.79c-.46-2.66-1.1-4.55-.14-6.85,1.47-3.53,6-6.28,8.65-5.15,3.51,1.5,3,9.45,2.17,13.65-1.88,9.15-8.89,16.51-10.94,15.57C241.86,759.21,245.66,753.27,243.86,742.79Z"/><ellipse class="cls-6" cx="246.36" cy="760.74" rx="6.17" ry="6.49" transform="translate(-394.45 282.43) rotate(-35.32)"/><path class="cls-2" d="M404.49,612.53c3.15-3.16,3.48-2.69,10.81-9.45,6.73-6.21,7.81-7.86,11.17-9.2,4.69-1.88,12.45-2.64,15.78,1.31,4.14,4.92-.19,15.21-5.26,21-3.29,3.77-6.28,5-18.37,10.07-23,9.68-25.73,11.07-27,9.65C388.89,632.83,396.85,620.17,404.49,612.53Z"/><path class="cls-2" d="M379.59,613c-3-12.52-5.73-23.72.87-30.28,4.31-4.28,12.23-6.24,17.09-3.28,9.69,5.89,3.08,28.82,1.76,33.38-.71,2.49-5.44,18.86-11,18.54C384,631.09,381.37,620.4,379.59,613Z"/><path class="cls-2" d="M395.58,658.29c2.24,8.52,4.67,12.59,4.6,21,0,4.57-.15,9.34-3.29,13.8-4.17,5.94-12.71,9.94-17.74,7.23-.73-.39-2.68-1.61-3.95-5.25-5.9-16.93,10.81-63.21,16.85-61.56C394.49,634.2,391.2,641.62,395.58,658.29Z"/><path class="cls-2" d="M364.69,670.78c-6.66,6.79-14.61,14.89-20,12.59-4.67-2-6.53-11.59-3.71-18.51,2.61-6.39,8.07-7.7,21-15.12,18.61-10.63,23.45-17.12,25.32-15.52C390.5,636.89,378.79,656.39,364.69,670.78Z"/><path class="cls-2" d="M421.21,654.34c5,2.13,9,3.1,11.83,7.23,4.42,6.37,4.18,17.09-.65,20.38-6.38,4.34-19.41-5.12-25.64-11.17-13.57-13.19-18.46-33.19-14.62-35.65C395.39,633,401.37,646,421.21,654.34Z"/><path class="cls-2" d="M418.87,628.2c9.46-1.94,30.36-6.21,34.78,2,3.27,6.08-2.84,18.35-11.54,21.53-4.46,1.63-7.25,0-21.07-4.09-20.49-6.1-26.53-6.18-26.72-8.82C394,634.45,410.38,629.93,418.87,628.2Z"/><path class="cls-2" d="M360.91,646.85c-9.57,1.27-30.72,4.09-34.56-4.42-2.84-6.29,4.1-18.1,13-20.67,4.55-1.32,7.23.48,20.72,5.53,20,7.51,26.05,8,26.06,10.64C386.15,642.32,369.5,645.7,360.91,646.85Z"/><path class="cls-2" d="M355.77,619.73c-4.93-2.36-8.8-3.52-11.47-7.79-4.12-6.56-3.36-17.26,1.62-20.32,6.57-4,19.14,6,25.07,12.38,12.93,13.82,16.87,34,12.92,36.3C380.55,642.24,375.2,629,355.77,619.73Z"/><ellipse class="cls-7" cx="388.35" cy="636.6" rx="13.15" ry="12.49"/><path class="cls-2" d="M166.77,911c5.11-4.93,5.65-4.2,17.54-14.76,10.92-9.7,12.67-12.27,18.13-14.38,7.61-2.94,20.2-4.12,25.6,2.05,6.73,7.68-.3,23.78-8.53,32.87-5.33,5.89-10.19,7.77-29.8,15.73-37.27,15.13-41.77,17.31-43.8,15.08C141.46,942.68,154.38,922.9,166.77,911Z"/><path class="cls-2" d="M126.35,911.67c-4.9-19.57-9.28-37.07,1.42-47.32,7-6.69,19.85-9.76,27.74-5.14,15.72,9.22,5,45,2.86,52.16-1.17,3.9-8.83,29.48-17.8,29C133.44,940,129.26,923.26,126.35,911.67Z"/><path class="cls-2" d="M152.31,982.46c3.63,13.32,7.59,19.69,7.47,32.87-.07,7.14-.24,14.59-5.34,21.57-6.77,9.28-20.64,15.53-28.8,11.3-1.18-.61-4.34-2.53-6.4-8.22-9.58-26.44,17.53-98.78,27.34-96.2C150.55,944.83,145.21,956.42,152.31,982.46Z"/><path class="cls-2" d="M102.17,1002c-10.81,10.61-23.71,23.28-32.39,19.68-7.57-3.15-10.58-18.11-6-28.92,4.23-10,13.09-12,34.14-23.63,30.2-16.62,38.05-26.76,41.09-24.25C144.07,949,125.07,979.5,102.17,1002Z"/><path class="cls-2" d="M193.91,976.3c8.18,3.32,14.54,4.85,19.2,11.3,7.17,9.94,6.78,26.69-1.07,31.84-10.34,6.79-31.5-8-41.6-17.46-22-20.61-30-51.86-23.74-55.7C152,943,161.7,963.25,193.91,976.3Z"/><path class="cls-2" d="M190.1,935.44c15.35-3,49.28-9.7,56.45,3.15,5.3,9.51-4.61,28.67-18.74,33.64-7.23,2.54-11.76,0-34.17-6.4-33.27-9.53-43.07-9.65-43.38-13.77C149.75,945.22,176.33,938.15,190.1,935.44Z"/><path class="cls-2" d="M96.05,964.59c-15.53,2-49.86,6.39-56.09-6.9-4.6-9.84,6.66-28.3,21.11-32.31,7.39-2.06,11.73.75,33.63,8.65,32.51,11.72,42.28,12.5,42.29,16.62C137,957.52,110,962.8,96.05,964.59Z"/><path class="cls-2" d="M87.7,922.21c-8-3.69-14.28-5.51-18.62-12.17-6.67-10.26-5.45-27,2.64-31.75,10.67-6.31,31.07,9.44,40.69,19.34,21,21.6,27.37,53.17,21,56.73C127.92,957.39,119.23,936.72,87.7,922.21Z"/><ellipse class="cls-8" cx="140.57" cy="948.57" rx="21.33" ry="19.52"/><path class="cls-2" d="M1163.43,98c6.94-7.54,7.67-6.43,23.8-22.59,14.82-14.84,17.2-18.77,24.6-22,10.33-4.49,27.4-6.29,34.73,3.15,9.12,11.75-.42,36.36-11.58,50.27-7.23,9-13.82,11.88-40.42,24.06C1144,154,1137.9,157.36,1135.14,154,1129.1,146.53,1146.63,116.27,1163.43,98Z"/><path class="cls-2" d="M1108.61,99.09c-6.65-29.94-12.59-56.7,1.93-72.39,9.48-10.23,26.92-14.93,37.62-7.85,21.33,14.1,6.78,68.89,3.89,79.79-1.59,6-12,45.09-24.14,44.33C1118.22,142.36,1112.55,116.81,1108.61,99.09Z"/><path class="cls-2" d="M1143.82,207.38c4.93,20.37,10.3,30.11,10.13,50.28-.09,10.91-.32,22.31-7.23,33-9.19,14.2-28,23.76-39.07,17.28-1.6-.93-5.89-3.87-8.68-12.56-13-40.45,23.78-151.1,37.08-147.16C1141.43,149.81,1134.19,167.54,1143.82,207.38Z"/><path class="cls-2" d="M1075.81,237.23c-14.66,16.24-32.16,35.62-43.94,30.1-10.27-4.81-14.36-27.7-8.15-44.24,5.74-15.27,17.75-18.41,46.3-36.13,41-25.43,51.63-40.94,55.75-37.11C1132.64,156.24,1106.87,202.85,1075.81,237.23Z"/><path class="cls-2" d="M1200.26,198c11.09,5.07,19.72,7.4,26,17.28,9.73,15.21,9.2,40.83-1.44,48.7-14,10.38-42.73-12.24-56.44-26.71-29.87-31.53-40.64-79.32-32.2-85.2C1143.41,147,1156.57,178,1200.26,198Z"/><path class="cls-2" d="M1195.09,135.45c20.83-4.62,66.85-14.83,76.58,4.82,7.19,14.54-6.25,43.86-25.42,51.46-9.81,3.88-16,0-46.36-9.79-45.13-14.58-58.43-14.77-58.85-21.06C1140.35,150.41,1176.41,139.6,1195.09,135.45Z"/><path class="cls-2" d="M1067.51,180c-21.07,3.05-67.64,9.79-76.09-10.55-6.25-15,9-43.28,28.63-49.42,10-3.15,15.92,1.15,45.63,13.24,44.09,17.93,57.35,19.12,57.36,25.42C1123.07,169.22,1086.41,177.3,1067.51,180Z"/><path class="cls-2" d="M1056.18,115.21c-10.85-5.64-19.38-8.42-25.26-18.61-9.05-15.69-7.39-41.26,3.58-48.57,14.47-9.65,42.15,14.44,55.2,29.59,28.46,33,37.13,81.33,28.44,86.77C1110.73,169,1099,137.41,1056.18,115.21Z"/><ellipse class="cls-5" cx="1127.91" cy="155.54" rx="28.94" ry="29.85"/><path class="cls-2" d="M1489,63.4c2-4.8,2.59-4.44,7.55-15,4.56-9.69,5-11.95,8-14.89,4.26-4.11,12.33-8.34,17.68-5.53,6.65,3.5,6.49,16.57,3.57,25.11-1.9,5.54-4.62,8.15-15.47,19-20.62,20.61-23,23.34-25,22.35C1481.06,92.28,1484.11,75.05,1489,63.4Z"/><path class="cls-2" d="M1462.24,74.87c-8.79-12.24-16.66-23.18-12.4-33.2,2.78-6.54,10.5-12.15,17.07-11.09,13.1,2.12,16,29.88,16.62,35.4.32,3,2.42,22.83-3.71,24.92C1474.94,92.57,1467.44,82.12,1462.24,74.87Z"/><path class="cls-2" d="M1499.53,116.92c6.17,8.25,10.61,11.59,14.25,20.76,2,5,4,10.18,2.52,16.41-1.91,8.28-9.4,16.37-16,15.65-1-.1-3.61-.57-6.59-4-13.85-15.73-16.14-73.26-8.86-74.13C1487.74,91.3,1487.44,100.79,1499.53,116.92Z"/><path class="cls-2" d="M1471.55,144.06c-4.22,10.3-9.27,22.58-16.08,22.44-5.94-.12-12.17-9.68-12.16-18.42,0-8.08,5.34-11.9,16.13-25.65,15.48-19.73,17.86-28.89,20.6-28C1484.6,96,1480.5,122.26,1471.55,144.06Z"/><path class="cls-2" d="M1525.57,101.35c6.39.08,11.07-.59,16,2.62,7.6,5,12.06,16.67,8.27,22.37-5,7.52-23.29,3-32.7-.81-20.52-8.32-34.63-27.83-31.56-32.18C1488.2,89.64,1500.38,101,1525.57,101.35Z"/><path class="cls-2" d="M1511.5,74.05c9.4-6.26,30.18-20.1,38.58-13.14,6.23,5.15,5,21.13-3,28.41-4.11,3.73-7.85,3.21-24.63,4.85-24.9,2.42-31.48,5-32.84,2.22C1487.31,91.79,1503.07,79.67,1511.5,74.05Z"/><path class="cls-2" d="M1456.92,119.79c-9.81,5.6-31.49,18-39.4,10.45-5.85-5.57-3.53-21.43,5-28.14,4.36-3.43,8-2.66,24.9-3.13,25-.69,31.75-2.81,32.92,0C1482.28,103.77,1465.72,114.77,1456.92,119.79Z"/><path class="cls-2" d="M1439.4,92.67c-6.38-.38-11.09.07-15.86-3.38-7.35-5.3-11.25-17.22-7.2-22.73,5.35-7.27,23.41-1.89,32.63,2.36,20.1,9.29,33.27,29.44,30,33.65C1476.17,106.15,1464.54,94.18,1439.4,92.67Z"/><ellipse class="cls-4" cx="1482.14" cy="96.6" rx="15.38" ry="14.61" transform="translate(72.76 565.35) rotate(-22.13)"/><path class="cls-2" d="M1380.87,233.55c3.36-3.25,3.72-2.77,11.55-9.73,7.2-6.39,8.35-8.09,11.95-9.48,5-1.93,13.31-2.71,16.87,1.36,4.43,5.06-.2,15.66-5.62,21.65-3.52,3.88-6.72,5.12-19.64,10.36-24.55,10-27.51,11.41-28.85,9.94C1364.19,254.45,1372.7,241.42,1380.87,233.55Z"/><path class="cls-2" d="M1354.24,234c-3.23-12.9-6.11-24.43.94-31.18,4.6-4.41,13.07-6.43,18.27-3.38,10.36,6.07,3.29,29.67,1.89,34.36-.77,2.57-5.82,19.42-11.73,19.1C1358.91,252.66,1356.15,241.65,1354.24,234Z"/><path class="cls-2" d="M1371.34,280.66c2.39,8.77,5,13,4.92,21.65,0,4.71-.15,9.61-3.51,14.21-4.47,6.12-13.6,10.24-19,7.45-.77-.4-2.86-1.67-4.21-5.42-6.32-17.42,11.55-65.07,18-63.37C1370.18,255.86,1366.66,263.5,1371.34,280.66Z"/><path class="cls-2" d="M1338.31,293.52c-7.12,7-15.62,15.33-21.34,13-5-2.07-7-11.93-4-19.05,2.79-6.58,8.62-7.93,22.49-15.57,19.9-10.95,25.07-17.63,27.08-16C1365.91,258.63,1353.4,278.71,1338.31,293.52Z"/><path class="cls-2" d="M1398.75,276.6c5.39,2.18,9.58,3.19,12.65,7.44,4.73,6.55,4.46,17.59-.7,21-6.82,4.47-20.76-5.27-27.41-11.5-14.51-13.58-19.74-34.17-15.64-36.7C1371.14,254.66,1377.53,268,1398.75,276.6Z"/><path class="cls-2" d="M1396.24,249.68c10.11-2,32.47-6.39,37.19,2.07,3.49,6.27-3,18.89-12.34,22.17-4.77,1.67-7.75,0-22.52-4.22-21.92-6.28-28.38-6.36-28.58-9.07C1369.65,256.12,1387.17,251.46,1396.24,249.68Z"/><path class="cls-2" d="M1334.28,268.88c-10.23,1.31-32.85,4.21-37-4.54-3-6.48,4.38-18.65,13.9-21.29,4.87-1.36,7.73.5,22.16,5.7,21.42,7.72,27.85,8.24,27.86,10.95C1361.26,264.22,1343.46,267.7,1334.28,268.88Z"/><path class="cls-2" d="M1328.78,241c-5.27-2.43-9.41-3.63-12.27-8-4.4-6.76-3.59-17.77,1.74-20.92,7-4.16,20.47,6.21,26.81,12.74,13.82,14.23,18,35,13.81,37.37C1355.27,264.14,1349.55,250.52,1328.78,241Z"/><ellipse class="cls-8" cx="1363.61" cy="258.33" rx="14.06" ry="12.86"/><path class="cls-2" d="M774,232.94c6.13,1,5.87,1.79,19.48,4.68,12.49,2.66,15.24,2.56,19.49,5.3,5.92,3.82,13,12.05,11.22,19-2.25,8.68-17.47,12.06-28.18,11-7-.7-10.72-3.14-26.27-12.79-29.55-18.33-33.37-20.36-32.76-22.94C738.31,231.56,759.14,230.41,774,232.94Z"/><path class="cls-2" d="M753.39,205c11.83-13.54,22.4-25.65,35.19-23.43,8.34,1.45,17,8.88,17.52,16.8,1.1,15.79-30.33,26.76-36.58,28.94-3.41,1.19-25.86,9-29.95,2.47C736.31,224.53,746.4,213,753.39,205Z"/><path class="cls-2" d="M714.72,259.71c-7.9,9.42-10.57,15.48-20.23,22.2-5.24,3.64-10.75,7.36-18.37,7.39-10.13,0-21.57-6.46-22.54-14.37-.14-1.14-.32-4.35,2.8-8.73,14.5-20.37,80.68-38.69,83.67-30.48C741.26,239,730.16,241.28,714.72,259.71Z"/><path class="cls-2" d="M675.59,234.61c-13.11-2.1-28.75-4.62-30.44-12.56-1.47-6.94,7.93-16.78,18.08-19.15,9.38-2.18,15.27,3,34.18,11.75,27.12,12.61,38.41,12.89,38.1,16.31C735,236.67,703.34,239.07,675.59,234.61Z"/><path class="cls-2" d="M739.88,285.71c1.65,7.45,3.7,12.7,1.32,19.3-3.68,10.16-16.08,18.53-23.73,15.69-10.08-3.76-9.82-26.23-8-38.2,4.08-26.09,22.89-47.79,28.79-45.4C743.32,239.13,733.39,256.38,739.88,285.71Z"/><path class="cls-2" d="M767.76,262c9.83,9.21,31.56,29.56,25.76,41.22-4.29,8.63-23.18,11.57-33.82,4.22-5.44-3.76-5.86-8.24-12.32-27.28-9.59-28.25-14.37-35.19-11.53-37.53C740.58,238.68,758.94,253.68,767.76,262Z"/><path class="cls-2" d="M699.78,211c-9.17-9.87-29.43-31.68-22.85-42.91,4.88-8.31,23.92-9.94,34-1.87,5.17,4.12,5.28,8.62,10.41,28.06,7.62,28.85,11.91,36.11,8.91,38.24C725.29,236.1,708,219.87,699.78,211Z"/><path class="cls-2" d="M726.51,183.29c-1.29-7.52-3.09-12.87-.39-19.34,4.15-10,16.94-17.75,24.44-14.55,9.9,4.23,8.57,26.67,6.13,38.53-5.31,25.87-25.13,46.65-30.91,44C720.87,229.65,731.6,212.89,726.51,183.29Z"/><ellipse class="cls-6" cx="733.58" cy="233.98" rx="17.42" ry="18.34" transform="translate(-0.26 467.15) rotate(-35.32)"/><path class="cls-2" d="M1609.55,295.38c1.67-1.67,1.85-1.42,5.73-5,3.57-3.29,4.14-4.17,5.92-4.88,2.49-1,6.6-1.4,8.37.7,2.19,2.6-.11,8.06-2.79,11.14-1.74,2-3.33,2.64-9.73,5.34-12.17,5.13-13.64,5.87-14.31,5.11C1601.29,306.14,1605.51,299.44,1609.55,295.38Z"/><path class="cls-2" d="M1596.36,295.63c-1.6-6.64-3-12.58.46-16.05,2.28-2.27,6.48-3.31,9.06-1.74,5.13,3.12,1.63,15.27.93,17.69-.38,1.32-2.88,10-5.81,9.82C1598.67,305.22,1597.3,299.56,1596.36,295.63Z"/><path class="cls-2" d="M1604.83,319.64c1.19,4.51,2.48,6.67,2.44,11.14,0,2.42-.08,5-1.74,7.32-2.21,3.15-6.74,5.27-9.41,3.83a4.73,4.73,0,0,1-2.09-2.79c-3.13-9,5.73-33.5,8.93-32.62C1604.26,306.87,1602.51,310.8,1604.83,319.64Z"/><path class="cls-2" d="M1588.46,326.25c-3.53,3.6-7.74,7.9-10.58,6.68-2.47-1.07-3.45-6.14-2-9.81,1.38-3.39,4.27-4.08,11.15-8,9.86-5.64,12.43-9.08,13.42-8.23C1602.14,308.3,1595.94,318.63,1588.46,326.25Z"/><path class="cls-2" d="M1618.42,317.55c2.67,1.12,4.75,1.64,6.27,3.83,2.34,3.37,2.21,9.05-.35,10.8-3.38,2.3-10.29-2.72-13.59-5.93-7.19-7-9.78-17.58-7.75-18.89C1604.73,306.25,1607.9,313.12,1618.42,317.55Z"/><path class="cls-2" d="M1617.17,303.69c5-1,16.1-3.29,18.44,1.07,1.73,3.22-1.51,9.72-6.12,11.4-2.36.87-3.84,0-11.16-2.16-10.86-3.24-14.07-3.28-14.17-4.67C1604,307,1612.68,304.61,1617.17,303.69Z"/><path class="cls-2" d="M1586.46,313.57c-5.07.68-16.28,2.17-18.32-2.34-1.5-3.33,2.18-9.59,6.9-11,2.41-.7,3.83.25,11,2.93,10.62,4,13.81,4.24,13.81,5.64C1599.84,311.18,1591,313,1586.46,313.57Z"/><path class="cls-2" d="M1583.74,299.2c-2.62-1.25-4.67-1.87-6.09-4.12-2.18-3.48-1.78-9.15.87-10.77,3.48-2.14,10.14,3.2,13.28,6.56,6.86,7.32,8.94,18,6.85,19.23C1596.87,311.13,1594,304.12,1583.74,299.2Z"/><ellipse class="cls-7" cx="1601" cy="308.14" rx="6.97" ry="6.62"/><path class="cls-2" d="M1794.38,422.42c5.77-5.79,6.38-4.94,19.82-17.33,12.33-11.38,14.31-14.39,20.48-16.86,8.59-3.45,22.81-4.83,28.92,2.41,7.59,9-.35,27.88-9.64,38.55-6,6.92-11.51,9.11-33.67,18.45-42.09,17.75-47.17,20.3-49.47,17.7C1765.79,459.64,1780.38,436.43,1794.38,422.42Z"/><path class="cls-2" d="M1748.73,423.26c-5.53-23-10.49-43.49,1.61-55.52,7.89-7.85,22.41-11.45,31.32-6,17.76,10.81,5.65,52.83,3.24,61.19-1.32,4.57-10,34.58-20.1,34C1756.73,456.44,1752,436.85,1748.73,423.26Z"/><path class="cls-2" d="M1778.05,506.3c4.1,15.62,8.57,23.09,8.43,38.56-.07,8.37-.26,17.11-6,25.3-7.65,10.89-23.32,18.22-32.53,13.26-1.33-.72-4.9-3-7.23-9.64-10.83-31,19.8-115.88,30.88-112.85C1776.06,462.15,1770,475.75,1778.05,506.3Z"/><path class="cls-2" d="M1721.42,529.2c-12.21,12.45-26.78,27.31-36.59,23.08-8.55-3.69-12-21.25-6.79-33.93,4.78-11.71,14.78-14.12,38.56-27.71,34.11-19.5,43-31.39,46.42-28.45C1768.74,467.08,1747.28,502.83,1721.42,529.2Z"/><path class="cls-2" d="M1825,499.07c9.24,3.89,16.43,5.69,21.69,13.26,8.1,11.66,7.65,31.31-1.21,37.35-11.68,8-35.58-9.39-47-20.48-24.88-24.19-33.84-60.84-26.81-65.35C1777.71,460,1788.66,483.76,1825,499.07Z"/><path class="cls-2" d="M1820.74,451.14c17.34-3.54,55.66-11.37,63.76,3.7,6,11.15-5.2,33.63-21.16,39.46-8.17,3-13.29,0-38.61-7.51-37.58-11.18-48.65-11.33-49-16.15C1775.16,462.61,1805.18,454.32,1820.74,451.14Z"/><path class="cls-2" d="M1714.5,485.33c-17.54,2.34-56.31,7.5-63.35-8.09-5.21-11.54,7.51-33.2,23.84-37.91,8.35-2.41,13.25.89,38,10.16,36.72,13.75,47.75,14.66,47.77,19.5C1760.77,477,1730.24,483.23,1714.5,485.33Z"/><path class="cls-2" d="M1705.07,435.62c-9-4.33-16.13-6.46-21-14.27-7.54-12-6.16-31.64,3-37.25,12-7.4,35.09,11.07,46,22.69,23.7,25.34,30.92,62.37,23.68,66.54C1750.5,476.89,1740.68,452.64,1705.07,435.62Z"/><ellipse class="cls-7" cx="1764.8" cy="466.54" rx="24.1" ry="22.89"/><path class="cls-2" d="M1848.41,718.82c3.37-3.25,3.73-2.77,11.56-9.73,7.2-6.39,8.35-8.09,12-9.47,5-1.94,13.31-2.71,16.86,1.35,4.43,5.06-.2,15.66-5.62,21.65-3.51,3.89-6.71,5.12-19.63,10.37-24.56,10-27.52,11.4-28.86,9.93C1831.74,739.72,1840.25,726.69,1848.41,718.82Z"/><path class="cls-2" d="M1821.79,719.29c-3.23-12.89-6.12-24.42.93-31.18,4.61-4.41,13.08-6.43,18.28-3.38,10.36,6.07,3.29,29.67,1.88,34.36-.77,2.57-5.81,19.42-11.72,19.1C1826.46,737.93,1823.7,726.92,1821.79,719.29Z"/><path class="cls-2" d="M1838.89,765.93c2.39,8.77,5,13,4.92,21.66,0,4.7-.16,9.61-3.52,14.21-4.46,6.11-13.59,10.23-19,7.44-.78-.4-2.86-1.67-4.22-5.41-6.31-17.43,11.55-65.08,18-63.38C1837.73,741.13,1834.21,748.77,1838.89,765.93Z"/><path class="cls-2" d="M1805.86,778.79c-7.12,7-15.62,15.34-21.34,13-5-2.07-7-11.93-4-19,2.79-6.58,8.62-7.93,22.49-15.57,19.89-11,25.07-17.63,27.07-16C1833.46,743.9,1820.94,764,1805.86,778.79Z"/><path class="cls-2" d="M1866.3,761.87c5.38,2.19,9.58,3.19,12.65,7.44,4.72,6.56,4.46,17.59-.71,21-6.81,4.47-20.75-5.27-27.41-11.5-14.5-13.58-19.74-34.17-15.63-36.7C1838.69,739.93,1845.08,753.27,1866.3,761.87Z"/><path class="cls-2" d="M1863.79,735c10.11-2,32.46-6.39,37.19,2.08,3.49,6.26-3,18.89-12.35,22.16-4.76,1.67-7.75,0-22.51-4.22-21.92-6.28-28.38-6.36-28.58-9.07C1837.2,741.39,1854.71,736.74,1863.79,735Z"/><path class="cls-2" d="M1801.82,754.15c-10.23,1.31-32.84,4.22-37-4.54-3-6.48,4.39-18.64,13.91-21.29,4.87-1.35,7.73.5,22.16,5.7,21.41,7.72,27.85,8.24,27.86,11C1828.81,749.5,1811,753,1801.82,754.15Z"/><path class="cls-2" d="M1796.33,726.23c-5.28-2.43-9.42-3.62-12.27-8-4.4-6.76-3.59-17.77,1.73-20.92,7-4.16,20.47,6.21,26.81,12.74,13.83,14.23,18,35,13.81,37.37C1822.82,749.41,1817.1,735.8,1796.33,726.23Z"/><ellipse class="cls-8" cx="1831.16" cy="743.6" rx="14.06" ry="12.86"/><path class="cls-2" d="M1641.05,893.28c2.42-5.76,3.1-5.34,9-18,5.47-11.62,6-14.33,9.66-17.86,5.1-4.92,14.78-10,21.19-6.62,8,4.2,7.79,19.86,4.28,30.1-2.28,6.64-5.53,9.78-18.54,22.78-24.73,24.71-27.59,28-30,26.8C1631.51,927.9,1635.17,907.25,1641.05,893.28Z"/><path class="cls-2" d="M1608.94,907c-10.54-14.68-20-27.8-14.86-39.81,3.33-7.84,12.59-14.57,20.47-13.3,15.7,2.55,19.22,35.83,19.92,42.44.38,3.62,2.9,27.38-4.45,29.89C1624.17,928.24,1615.18,915.72,1608.94,907Z"/><path class="cls-2" d="M1653.65,957.44c7.4,9.89,12.73,13.9,17.09,24.9,2.36,5.95,4.74,12.2,3,19.66-2.29,9.93-11.28,19.63-19.24,18.77-1.15-.12-4.33-.69-7.9-4.75-16.61-18.86-19.36-87.83-10.63-88.88C1639.51,926.72,1639.16,938.1,1653.65,957.44Z"/><path class="cls-2" d="M1620.11,990c-5.07,12.35-11.11,27.08-19.28,26.91-7.12-.15-14.6-11.61-14.59-22.09,0-9.68,6.41-14.27,19.34-30.75,18.56-23.66,21.42-34.64,24.7-33.55C1635.75,932.33,1630.84,963.84,1620.11,990Z"/><path class="cls-2" d="M1684.87,938.78c7.67.09,13.28-.71,19.19,3.14,9.1,5.93,14.45,20,9.91,26.82-6,9-27.92,3.6-39.21-1-24.6-10-41.52-33.36-37.83-38.58C1640.07,924.73,1654.67,938.4,1684.87,938.78Z"/><path class="cls-2" d="M1668,906c11.27-7.51,36.17-24.1,46.25-15.75,7.46,6.17,6,25.33-3.62,34.06-4.93,4.47-9.41,3.85-29.53,5.81-29.85,2.9-37.74,6-39.38,2.67C1639,927.31,1657.9,912.78,1668,906Z"/><path class="cls-2" d="M1602.57,960.89c-11.76,6.71-37.76,21.54-47.24,12.52-7-6.68-4.24-25.69,6-33.73,5.23-4.12,9.66-3.2,29.86-3.76,30-.83,38.07-3.37,39.47.06C1633,941.68,1613.12,954.87,1602.57,960.89Z"/><path class="cls-2" d="M1581.56,928.37c-7.65-.46-13.3.08-19-4-8.81-6.36-13.48-20.65-8.62-27.26,6.4-8.72,28.06-2.27,39.11,2.84,24.1,11.12,39.89,35.29,36,40.34C1625.64,944.53,1611.7,930.18,1581.56,928.37Z"/><ellipse class="cls-4" cx="1632.8" cy="933.08" rx="18.44" ry="17.51" transform="translate(-231.2 683.7) rotate(-22.13)"/><path class="cls-2" d="M1759,68.53c3-3,3.37-2.61,10.45-9.14,6.51-6,7.55-7.59,10.81-8.9,4.53-1.82,12-2.54,15.25,1.27,4,4.76-.18,14.71-5.09,20.34-3.17,3.65-6.07,4.8-17.75,9.73-22.2,9.36-24.88,10.71-26.09,9.33C1743.87,88.16,1751.57,75.92,1759,68.53Z"/><path class="cls-2" d="M1734.88,69c-2.92-12.11-5.53-22.94.84-29.28,4.17-4.14,11.82-6,16.53-3.18,9.36,5.7,3,27.87,1.7,32.28-.69,2.41-5.26,18.23-10.6,17.92C1739.1,86.47,1736.6,76.14,1734.88,69Z"/><path class="cls-2" d="M1750.34,112.77c2.16,8.24,4.52,12.18,4.45,20.34,0,4.41-.14,9-3.18,13.34-4,5.74-12.3,9.61-17.16,7-.7-.38-2.58-1.56-3.81-5.08-5.71-16.36,10.44-61.12,16.29-59.52C1749.29,89.48,1746.11,96.66,1750.34,112.77Z"/><path class="cls-2" d="M1720.47,124.84c-6.44,6.57-14.12,14.41-19.3,12.18-4.51-2-6.3-11.21-3.58-17.9,2.52-6.17,7.8-7.44,20.34-14.61,18-10.29,22.67-16.56,24.48-15C1745.43,92.08,1734.11,110.94,1720.47,124.84Z"/><path class="cls-2" d="M1775.12,109c4.87,2.05,8.67,3,11.44,7,4.28,6.15,4,16.51-.63,19.7-6.17,4.2-18.77-5-24.79-10.81C1748,112.09,1743.29,92.76,1747,90.38,1750.16,88.35,1755.94,100.88,1775.12,109Z"/><path class="cls-2" d="M1772.85,83.68c9.15-1.87,29.36-6,33.63,1.95,3.16,5.88-2.74,17.73-11.16,20.81-4.31,1.57-7,0-20.36-4-19.82-5.9-25.66-6-25.84-8.52C1748.81,89.72,1764.65,85.35,1772.85,83.68Z"/><path class="cls-2" d="M1716.82,101.71c-9.25,1.23-29.7,4-33.41-4.27-2.75-6.09,4-17.51,12.57-20,4.41-1.27,7,.47,20,5.35,19.37,7.26,25.19,7.74,25.19,10.29C1741.22,97.33,1725.12,100.6,1716.82,101.71Z"/><path class="cls-2" d="M1711.85,75.49c-4.77-2.28-8.51-3.41-11.09-7.53-4-6.35-3.25-16.69,1.57-19.65,6.35-3.9,18.51,5.84,24.24,12,12.5,13.37,16.31,32.9,12.49,35.1C1735.81,97.25,1730.63,84.47,1711.85,75.49Z"/><ellipse class="cls-5" cx="1743.35" cy="91.8" rx="12.71" ry="12.07"/><path class="cls-2" d="M1414.83,601.64c3.87.65,3.7,1.13,12.28,3,7.87,1.67,9.6,1.61,12.28,3.34,3.73,2.41,8.21,7.59,7.07,12-1.42,5.48-11,7.6-17.76,6.92-4.38-.44-6.76-2-16.56-8.05-18.61-11.56-21-12.84-20.64-14.46C1392.34,600.77,1405.47,600.05,1414.83,601.64Z"/><path class="cls-2" d="M1401.85,584c7.45-8.53,14.11-16.16,22.17-14.76,5.26.91,10.69,5.6,11,10.59.69,9.95-19.11,16.86-23,18.23-2.15.75-16.3,5.69-18.88,1.56C1391.08,596.34,1397.43,589.06,1401.85,584Z"/><path class="cls-2" d="M1377.47,618.51c-5,5.93-6.66,9.75-12.75,14-3.3,2.29-6.77,4.64-11.57,4.66-6.39,0-13.6-4.08-14.21-9.06-.09-.72-.2-2.74,1.77-5.5,9.14-12.84,50.84-24.38,52.73-19.21C1394.2,605.49,1387.2,606.9,1377.47,618.51Z"/><path class="cls-2" d="M1352.81,602.69c-8.26-1.32-18.12-2.91-19.18-7.92-.93-4.37,5-10.57,11.4-12.06,5.91-1.38,9.62,1.87,21.53,7.4,17.09,7.95,24.21,8.12,24,10.28C1390.24,604,1370.3,605.5,1352.81,602.69Z"/><path class="cls-2" d="M1393.33,634.89c1,4.7,2.33,8,.83,12.17-2.32,6.4-10.14,11.68-15,9.88-6.36-2.36-6.2-16.53-5-24.07,2.57-16.44,14.43-30.11,18.14-28.61C1395.49,605.54,1389.24,616.41,1393.33,634.89Z"/><path class="cls-2" d="M1410.9,619.92c6.19,5.8,19.89,18.63,16.23,26-2.7,5.43-14.6,7.29-21.31,2.66-3.43-2.37-3.7-5.19-7.77-17.19-6-17.81-9-22.18-7.26-23.66C1393.77,605.26,1405.34,614.71,1410.9,619.92Z"/><path class="cls-2" d="M1368.06,587.82c-5.78-6.22-18.55-20-14.4-27,3.07-5.23,15.07-6.26,21.44-1.18,3.26,2.6,3.33,5.44,6.57,17.69,4.8,18.18,7.5,22.75,5.61,24.1C1384.13,603.63,1373.24,593.4,1368.06,587.82Z"/><path class="cls-2" d="M1384.9,570.35c-.81-4.74-2-8.11-.25-12.19,2.62-6.29,10.68-11.19,15.41-9.17,6.23,2.67,5.4,16.81,3.86,24.29-3.34,16.3-15.84,29.39-19.47,27.71C1381.35,599.57,1388.11,589,1384.9,570.35Z"/><ellipse class="cls-6" cx="1389.36" cy="602.29" rx="10.98" ry="11.56" transform="translate(-92.49 914.04) rotate(-35.32)"/><path class="cls-2" d="M1603.8,687.09c3.67-3.68,4.06-3.14,12.61-11,7.85-7.24,9.11-9.16,13-10.73,5.47-2.19,14.52-3.07,18.4,1.53,4.83,5.74-.22,17.75-6.13,24.53-3.84,4.4-7.33,5.8-21.42,11.74-26.79,11.29-30,12.92-31.48,11.26C1585.61,710.77,1594.9,696,1603.8,687.09Z"/><path class="cls-2" d="M1574.76,687.63c-3.53-14.61-6.68-27.67,1-35.32,5-5,14.26-7.29,19.93-3.84,11.3,6.88,3.59,33.62,2.06,38.94-.84,2.9-6.35,22-12.79,21.63C1579.85,708.74,1576.84,696.27,1574.76,687.63Z"/><path class="cls-2" d="M1593.41,740.47c2.61,9.93,5.45,14.69,5.37,24.53,0,5.32-.17,10.88-3.84,16.1-4.87,6.93-14.83,11.59-20.7,8.43-.84-.46-3.11-1.89-4.6-6.13-6.88-19.74,12.6-73.73,19.65-71.8C1592.14,712.37,1588.31,721,1593.41,740.47Z"/><path class="cls-2" d="M1557.38,755c-7.77,7.92-17,17.38-23.28,14.69-5.44-2.35-7.61-13.52-4.32-21.59,3-7.45,9.4-9,24.53-17.63,21.71-12.41,27.35-20,29.54-18.1C1587.49,715.51,1573.83,738.26,1557.38,755Z"/><path class="cls-2" d="M1623.31,735.87c5.87,2.47,10.45,3.61,13.8,8.43,5.15,7.42,4.87,19.92-.77,23.76-7.43,5.07-22.64-6-29.9-13-15.83-15.38-21.53-38.7-17.06-41.57C1593.19,711,1600.16,726.12,1623.31,735.87Z"/><path class="cls-2" d="M1620.57,705.37c11-2.26,35.42-7.24,40.57,2.35,3.81,7.09-3.31,21.4-13.47,25.11-5.19,1.89-8.45,0-24.56-4.78-23.91-7.11-30.95-7.21-31.17-10.28C1591.57,712.67,1610.67,707.39,1620.57,705.37Z"/><path class="cls-2" d="M1553,727.12c-11.17,1.49-35.84,4.78-40.31-5.15-3.31-7.34,4.78-21.12,15.16-24.11,5.32-1.54,8.44.56,24.18,6.46,23.36,8.75,30.38,9.33,30.39,12.4C1582.41,721.85,1563,725.79,1553,727.12Z"/><path class="cls-2" d="M1547,695.49c-5.75-2.75-10.27-4.11-13.38-9.08-4.8-7.65-3.92-20.13,1.89-23.7,7.67-4.71,22.33,7,29.25,14.44,15.08,16.12,19.67,39.69,15.06,42.34C1575.88,721.75,1569.64,706.33,1547,695.49Z"/><ellipse class="cls-3" cx="1584.98" cy="715.17" rx="15.33" ry="14.57"/><path class="cls-2" d="M569.49,1000.46c1.86-2,2.06-1.67,6.38-5.87,4-3.86,4.61-4.88,6.59-5.72,2.77-1.17,7.34-1.64,9.3.82,2.45,3-.11,9.45-3.1,13.07-1.93,2.35-3.7,3.09-10.83,6.26-13.54,6-15.18,6.88-15.92,6C560.29,1013.09,565,1005.22,569.49,1000.46Z"/><path class="cls-2" d="M554.8,1000.75c-1.78-7.79-3.37-14.75.52-18.83,2.54-2.66,7.21-3.88,10.08-2,5.72,3.67,1.82,17.92,1,20.75-.42,1.55-3.21,11.73-6.47,11.53C557.38,1012,555.86,1005.36,554.8,1000.75Z"/><path class="cls-2" d="M564.24,1028.91c1.32,5.3,2.76,7.83,2.71,13.08,0,2.84-.08,5.8-1.94,8.58-2.46,3.69-7.5,6.18-10.47,4.49a5.43,5.43,0,0,1-2.32-3.27c-3.48-10.52,6.37-39.29,9.94-38.27C563.6,1013.94,561.66,1018.55,564.24,1028.91Z"/><path class="cls-2" d="M546,1036.68c-3.92,4.22-8.61,9.26-11.77,7.82-2.75-1.25-3.85-7.2-2.18-11.5,1.53-4,4.75-4.79,12.4-9.4,11-6.61,13.84-10.65,14.94-9.65C561.24,1015.61,554.34,1027.73,546,1036.68Z"/><path class="cls-2" d="M579.36,1026.46c3,1.32,5.28,1.93,7,4.5,2.6,4,2.46,10.62-.39,12.66-3.76,2.7-11.45-3.18-15.12-6.94-8-8.2-10.89-20.63-8.63-22.16C564.13,1013.21,567.65,1021.27,579.36,1026.46Z"/><path class="cls-2" d="M578,1010.21c5.58-1.21,17.92-3.86,20.52,1.25,1.93,3.78-1.67,11.4-6.81,13.38-2.63,1-4.27,0-12.42-2.54-12.09-3.8-15.66-3.85-15.77-5.48C563.31,1014.09,573,1011.28,578,1010.21Z"/><path class="cls-2" d="M543.79,1021.8c-5.65.79-18.12,2.54-20.39-2.74-1.67-3.92,2.42-11.26,7.67-12.86,2.69-.82,4.27.3,12.23,3.44,11.81,4.67,15.37,5,15.37,6.62C558.68,1019,548.85,1021.09,543.79,1021.8Z"/><path class="cls-2" d="M540.76,1004.94c-2.91-1.46-5.2-2.19-6.77-4.84-2.43-4.08-2-10.73,1-12.63,3.87-2.51,11.29,3.75,14.79,7.69,7.62,8.6,9.94,21.16,7.62,22.57C555.37,1018.94,552.21,1010.72,540.76,1004.94Z"/><ellipse class="cls-7" cx="559.97" cy="1015.43" rx="7.75" ry="7.76"/><path class="cls-2" d="M904.41,72.19c1.93-1.94,2.13-1.65,6.63-5.8,4.13-3.81,4.79-4.82,6.86-5.65,2.88-1.15,7.64-1.61,9.68.81,2.54,3-.12,9.34-3.23,12.91-2,2.31-3.85,3.05-11.27,6.17-14.09,6-15.79,6.8-16.56,5.93C894.83,84.65,899.72,76.88,904.41,72.19Z"/><path class="cls-2" d="M889.12,72.47c-1.85-7.69-3.51-14.56.54-18.58,2.64-2.63,7.5-3.84,10.49-2,5.94,3.62,1.89,17.69,1.08,20.48-.44,1.53-3.34,11.58-6.73,11.39C891.8,83.58,890.22,77,889.12,72.47Z"/><path class="cls-2" d="M898.94,100.27c1.37,5.23,2.87,7.73,2.82,12.91,0,2.8-.09,5.73-2,8.47-2.57,3.65-7.81,6.1-10.9,4.44a5.41,5.41,0,0,1-2.42-3.23c-3.62-10.38,6.63-38.79,10.34-37.78C898.27,85.49,896.25,90.05,898.94,100.27Z"/><path class="cls-2" d="M880,107.94c-4.09,4.17-9,9.14-12.25,7.73-2.86-1.24-4-7.12-2.27-11.36,1.6-3.92,4.95-4.73,12.91-9.28,11.42-6.53,14.39-10.51,15.54-9.53C895.82,87.14,888.64,99.11,880,107.94Z"/><path class="cls-2" d="M914.67,97.85c3.09,1.31,5.5,1.91,7.26,4.44,2.71,3.91,2.56,10.48-.4,12.51-3.91,2.66-11.91-3.15-15.73-6.86-8.33-8.1-11.33-20.37-9-21.88C898.82,84.78,902.49,92.73,914.67,97.85Z"/><path class="cls-2" d="M913.23,81.81C919,80.62,931.87,78,934.58,83c2,3.74-1.75,11.26-7.09,13.21-2.73,1-4.45,0-12.92-2.51C902,90,898.28,90,898.16,88.33,898,85.65,908,82.87,913.23,81.81Z"/><path class="cls-2" d="M877.66,93.25c-5.87.78-18.85,2.51-21.21-2.71-1.74-3.86,2.52-11.11,8-12.69,2.8-.8,4.44.3,12.72,3.4,12.3,4.61,16,4.91,16,6.53C893.15,90.48,882.93,92.55,877.66,93.25Z"/><path class="cls-2" d="M874.51,76.61c-3-1.45-5.41-2.16-7-4.78-2.53-4-2.07-10.59,1-12.47,4-2.48,11.75,3.71,15.39,7.6,7.94,8.48,10.35,20.88,7.93,22.28C889.71,90.43,886.43,82.31,874.51,76.61Z"/><ellipse class="cls-3" cx="894.5" cy="86.96" rx="8.07" ry="7.66"/><path class="cls-2" d="M674.7,861.28c2.67-2.67,2.95-2.28,9.17-8,5.7-5.27,6.62-6.66,9.47-7.81,4-1.59,10.56-2.23,13.38,1.12,3.51,4.17-.16,12.9-4.46,17.84-2.79,3.19-5.32,4.21-15.57,8.53-19.48,8.21-21.83,9.39-22.89,8.19C661.47,878.5,668.22,867.77,674.7,861.28Z"/><path class="cls-2" d="M653.58,861.67c-2.56-10.62-4.85-20.12.74-25.68,3.65-3.63,10.37-5.3,14.49-2.79,8.22,5,2.62,24.44,1.5,28.31-.61,2.11-4.61,16-9.3,15.73C657.28,877,655.1,868,653.58,861.67Z"/><path class="cls-2" d="M667.14,900.09c1.9,7.23,4,10.68,3.9,17.84,0,3.87-.12,7.91-2.78,11.7-3.54,5-10.79,8.43-15,6.13-.62-.33-2.27-1.37-3.35-4.45-5-14.36,9.16-53.61,14.29-52.21C666.22,879.66,663.43,886,667.14,900.09Z"/><path class="cls-2" d="M640.94,910.68c-5.64,5.76-12.39,12.64-16.92,10.68-4-1.71-5.54-9.83-3.14-15.7,2.21-5.42,6.83-6.53,17.83-12.82,15.79-9,19.89-14.52,21.48-13.16C662.84,882,652.91,898.48,640.94,910.68Z"/><path class="cls-2" d="M688.88,896.75c4.27,1.79,7.6,2.62,10,6.13,3.74,5.39,3.54,14.48-.56,17.28-5.41,3.68-16.46-4.35-21.74-9.48-11.51-11.19-15.66-28.14-12.41-30.23C667,878.67,672.05,889.66,688.88,896.75Z"/><path class="cls-2" d="M686.89,874.57c8-1.64,25.75-5.26,29.5,1.71,2.77,5.16-2.41,15.56-9.79,18.25-3.78,1.38-6.15,0-17.86-3.47-17.39-5.17-22.51-5.24-22.67-7.47C665.8,879.88,679.7,876,686.89,874.57Z"/><path class="cls-2" d="M637.74,890.39c-8.11,1.08-26,3.47-29.31-3.75-2.4-5.33,3.48-15.35,11-17.53,3.87-1.12,6.14.41,17.58,4.69,17,6.37,22.09,6.79,22.1,9C659.15,886.55,645,889.42,637.74,890.39Z"/><path class="cls-2" d="M633.38,867.39c-4.18-2-7.46-3-9.73-6.6-3.49-5.57-2.85-14.64,1.38-17.24,5.57-3.42,16.23,5.12,21.26,10.5,11,11.72,14.31,28.86,11,30.79C654.4,886.48,649.86,875.27,633.38,867.39Z"/><ellipse class="cls-3" cx="661.01" cy="881.7" rx="11.15" ry="10.59"/><path class="cls-2" d="M895.6,966.32c6.13,1,5.87,1.8,19.48,4.69,12.49,2.65,15.24,2.56,19.49,5.3,5.92,3.82,13,12,11.22,19-2.25,8.68-17.47,12-28.18,11-7-.7-10.72-3.14-26.27-12.79-29.55-18.34-33.37-20.37-32.76-22.94C859.91,965,880.74,963.8,895.6,966.32Z"/><path class="cls-2" d="M875,938.35c11.82-13.54,22.39-25.65,35.18-23.43,8.34,1.44,17,8.88,17.52,16.8,1.1,15.79-30.33,26.75-36.58,28.93-3.41,1.19-25.86,9-30,2.48C857.91,957.92,868,946.36,875,938.35Z"/><path class="cls-2" d="M836.32,993.09c-7.9,9.42-10.57,15.49-20.23,22.21-5.24,3.63-10.75,7.36-18.37,7.39-10.13,0-21.57-6.47-22.54-14.37-.14-1.14-.32-4.35,2.8-8.73,14.5-20.38,80.68-38.69,83.67-30.48C862.86,972.43,851.76,974.67,836.32,993.09Z"/><path class="cls-2" d="M797.19,968c-13.11-2.11-28.75-4.62-30.44-12.57-1.47-6.93,7.93-16.77,18.08-19.14,9.38-2.19,15.27,3,34.18,11.75,27.12,12.6,38.41,12.88,38.1,16.31C856.58,970.06,824.94,972.46,797.19,968Z"/><path class="cls-2" d="M861.48,1019.1c1.65,7.44,3.7,12.7,1.32,19.3-3.68,10.16-16.08,18.53-23.73,15.68-10.08-3.75-9.82-26.23-8-38.19,4.07-26.09,22.88-47.79,28.78-45.41C864.92,972.51,855,989.76,861.48,1019.1Z"/><path class="cls-2" d="M889.36,995.33c9.83,9.21,31.56,29.57,25.76,41.23-4.29,8.62-23.18,11.56-33.82,4.22-5.44-3.76-5.86-8.24-12.32-27.28-9.59-28.26-14.37-35.2-11.53-37.54C862.18,972.07,880.54,987.07,889.36,995.33Z"/><path class="cls-2" d="M821.38,944.4c-9.17-9.87-29.43-31.67-22.85-42.9,4.88-8.31,23.92-9.94,34-1.88,5.18,4.13,5.28,8.63,10.42,28.07,7.61,28.85,11.9,36.1,8.9,38.24C846.89,969.49,829.61,953.25,821.38,944.4Z"/><path class="cls-2" d="M848.11,916.67c-1.29-7.51-3.09-12.86-.39-19.34,4.15-10,16.94-17.75,24.44-14.54,9.9,4.23,8.57,26.67,6.13,38.53-5.3,25.87-25.13,46.64-30.91,44C842.47,963,853.2,946.28,848.11,916.67Z"/><ellipse class="cls-6" cx="855.18" cy="967.37" rx="17.42" ry="18.34" transform="translate(-401.86 672.42) rotate(-35.32)"/><path class="cls-2" d="M1071.7,852.22c3.37-3.25,3.72-2.77,11.56-9.73,7.2-6.39,8.35-8.08,12-9.47,5-1.94,13.3-2.71,16.86,1.35,4.43,5.06-.2,15.66-5.62,21.65-3.51,3.89-6.71,5.12-19.63,10.37-24.56,10-27.52,11.4-28.86,9.94C1055,873.12,1063.54,860.09,1071.7,852.22Z"/><path class="cls-2" d="M1045.08,852.69c-3.23-12.89-6.12-24.42.93-31.18,4.61-4.4,13.08-6.43,18.28-3.38,10.35,6.07,3.29,29.67,1.88,34.37-.77,2.56-5.81,19.42-11.72,19.09C1049.75,871.33,1047,860.32,1045.08,852.69Z"/><path class="cls-2" d="M1062.18,899.33c2.39,8.77,5,13,4.92,21.66,0,4.7-.16,9.61-3.52,14.21-4.46,6.11-13.6,10.23-19,7.44-.78-.4-2.86-1.67-4.22-5.41-6.31-17.42,11.55-65.08,18-63.38C1061,874.54,1057.5,882.17,1062.18,899.33Z"/><path class="cls-2" d="M1029.15,912.19c-7.12,7-15.62,15.34-21.34,13-5-2.07-7-11.93-4-19,2.79-6.58,8.62-7.93,22.49-15.56,19.89-11,25.07-17.64,27.07-16C1056.75,877.31,1044.23,897.38,1029.15,912.19Z"/><path class="cls-2" d="M1089.58,895.27c5.39,2.19,9.59,3.19,12.65,7.45,4.73,6.55,4.47,17.58-.7,21-6.81,4.48-20.75-5.27-27.41-11.5-14.51-13.58-19.74-34.17-15.63-36.7C1062,873.33,1068.37,886.67,1089.58,895.27Z"/><path class="cls-2" d="M1087.08,868.35c10.11-2,32.46-6.39,37.19,2.08,3.49,6.26-3,18.89-12.35,22.16-4.76,1.67-7.75,0-22.51-4.21-21.92-6.28-28.38-6.37-28.58-9.08C1060.49,874.79,1078,870.14,1087.08,868.35Z"/><path class="cls-2" d="M1025.11,887.55c-10.23,1.32-32.84,4.22-36.95-4.54-3-6.48,4.39-18.64,13.91-21.29,4.87-1.35,7.73.5,22.16,5.7,21.41,7.73,27.85,8.24,27.86,11C1052.1,882.9,1034.29,886.38,1025.11,887.55Z"/><path class="cls-2" d="M1019.61,859.63c-5.27-2.42-9.41-3.62-12.26-8-4.4-6.76-3.6-17.77,1.73-20.92,7-4.16,20.47,6.22,26.81,12.74,13.83,14.23,18,35,13.81,37.38C1046.11,882.81,1040.38,869.2,1019.61,859.63Z"/><ellipse class="cls-8" cx="1054.45" cy="877" rx="14.06" ry="12.86"/></g></g></svg>