<svg xmlns="http://www.w3.org/2000/svg" width="134" height="130" viewBox="0 0 134 130"><defs><style>.cls-1{fill:#939200;stroke:#ffa7d7;stroke-miterlimit:10;stroke-width:2px;}.cls-2{fill:#ffa7d7;}</style></defs><g id="_1" data-name="1"><rect class="cls-1" x="10" y="50" width="117" height="40" rx="20"/><path class="cls-2" d="M57.61,67H55.15v-.89h6V67H58.66v7.2h-1Z"/><path class="cls-2" d="M61.74,71.53a1.85,1.85,0,0,0,2,2,3.83,3.83,0,0,0,1.61-.3l.18.76a4.9,4.9,0,0,1-1.94.36,2.7,2.7,0,0,1-2.85-2.93c0-1.75,1-3.13,2.72-3.13A2.46,2.46,0,0,1,65.85,71a4.92,4.92,0,0,1,0,.5Zm3.09-.76a1.5,1.5,0,0,0-1.46-1.71,1.74,1.74,0,0,0-1.62,1.71Z"/><path class="cls-2" d="M68.21,71.09h0c.14-.2.35-.45.52-.66l1.7-2h1.27l-2.24,2.39L72,74.24H70.75l-2-2.79-.54.6v2.19h-1V65.72h1Z"/><path class="cls-2" d="M72.65,73.16a2.79,2.79,0,0,0,1.39.42c.76,0,1.12-.39,1.12-.87s-.3-.78-1.08-1.06c-1-.38-1.53-1-1.53-1.65a1.79,1.79,0,0,1,2-1.7,2.91,2.91,0,0,1,1.43.36l-.26.77a2.22,2.22,0,0,0-1.19-.34c-.62,0-1,.36-1,.79s.35.7,1.1,1c1,.38,1.52.88,1.52,1.75s-.79,1.74-2.17,1.74a3.33,3.33,0,0,1-1.63-.4Z"/><path class="cls-2" d="M78.81,66.76v1.67h1.51v.8H78.81v3.14c0,.71.21,1.12.79,1.12a2.29,2.29,0,0,0,.62-.07l0,.79a2.39,2.39,0,0,1-.93.15,1.46,1.46,0,0,1-1.14-.45,2.15,2.15,0,0,1-.41-1.51V69.23h-.9v-.8h.9V67Z"/></g></svg>