<svg xmlns="http://www.w3.org/2000/svg" width="1920" height="1080" viewBox="0 0 1920 1080"><defs><style>.cls-1{fill:#f6ded8;}.cls-2{fill:#00ba60;}.cls-3{fill:#ffb500;}.cls-4{fill:#ff6d00;}.cls-5{fill:#9c7b6c;}.cls-6{fill:#8d96be;}.cls-7{fill:#ffa7d7;}.cls-8{fill:#056cf2;}</style></defs><g id="_1" data-name="1"><rect class="cls-1" x="-4" y="-2" width="1924" height="1083"/><g id="Grøn"><path class="cls-2" d="M222.89,564.31c1-8.49,2-8.19,4.86-27.08,2.65-17.35,2.32-21.11,5.69-27.15,4.71-8.41,15.26-18.8,24.78-16.84,11.85,2.44,17.52,23.07,16.87,37.85-.43,9.58-3.43,14.95-15.27,37-22.5,41.93-24.95,47.32-28.46,46.68C223.68,613.4,220.59,584.9,222.89,564.31Z"/><path class="cls-2" d="M188,592.18c-19.11-15.2-36.19-28.79-34.15-46.51,1.33-11.56,10.7-24,21.32-25.32,21.17-2.7,38.26,39.6,41.66,48,1.86,4.6,14.06,34.81,5.55,40.93C215.6,614.15,199.3,601.18,188,592.18Z"/><path class="cls-2" d="M264.56,641.12c13.27,10.12,21.63,13.33,31.39,26.09,5.29,6.9,10.71,14.19,11.31,24.64.81,13.9-7.1,30.09-17.67,32-1.53.27-5.84.75-12-3.19-28.5-18.37-58.06-107.79-47.23-112.52C234.77,606.25,238.61,621.32,264.56,641.12Z"/><path class="cls-2" d="M233.67,696.72c-1.86,18.14-4.08,39.79-14.66,42.71-9.22,2.54-23.17-9.61-27.11-23.37-3.64-12.7,2.86-21.17,13.29-47.78,15-38.17,14.5-53.69,19.13-53.51C232,615.06,237.62,658.3,233.67,696.72Z"/><path class="cls-2" d="M297.7,604.62c9.9-2.82,16.83-6,25.89-3.26,14,4.28,26.14,20.67,22.88,31.38-4.31,14.12-34.59,15.46-50.84,13.8-35.42-3.62-66-27.8-63.26-36.07C234.73,603.43,258.69,615.75,297.7,604.62Z"/><path class="cls-2" d="M263.64,568.16c11.67-14.18,37.47-45.54,53.6-38.46,11.93,5.23,17.29,30.93,8.18,46.09-4.66,7.75-10.65,8.67-35.81,19-37.33,15.3-46.32,22.38-49.68,18.66C234.34,607.22,253.17,580.89,263.64,568.16Z"/><path class="cls-2" d="M200.11,665.29c-12.6,13.33-40.46,42.8-56.07,34.6-11.55-6.06-15.15-32.07-5-46.55,5.17-7.41,11.22-7.9,37-16.41,38.28-12.63,47.73-19.07,50.83-15.11C232,628.4,211.42,653.34,200.11,665.29Z"/><path class="cls-2" d="M160.8,630.71c-10,2.35-17.09,5.22-26,2-13.74-5-25.15-21.9-21.39-32.44,5-13.9,35.27-13.77,51.42-11.33,35.22,5.33,64.66,31,61.51,39.09C223.64,635,200.28,621.49,160.8,630.71Z"/><ellipse class="cls-3" cx="228.53" cy="617.18" rx="24.96" ry="23.73" transform="translate(-388.38 387.91) rotate(-49.29)"/><path class="cls-2" d="M257.61,36.42c1.71-5.61,2.29-5.25,6.54-17.61,3.91-11.35,4.22-13.95,7.05-17.51,3.94-5,11.64-10.35,17.07-7.52,6.77,3.53,7.4,18.42,5,28.35-1.54,6.43-4.05,9.6-14.09,22.7C260.12,69.72,257.93,73,255.91,72,251.51,69.85,253.48,50,257.61,36.42Z"/><path class="cls-2" d="M233,49.82C223.6,36.49,215.2,24.57,218.8,12.87,221.14,5.23,228.41-1.7,235-.94,248,.57,252.53,32,253.44,38.21c.49,3.42,3.75,25.84-2.16,28.64C246.57,69.08,238.55,57.71,233,49.82Z"/><path class="cls-2" d="M272.25,95.11c6.58,9,11.15,12.46,15.28,22.66,2.24,5.52,4.51,11.31,3.46,18.5-1.38,9.56-8.28,19.29-14.86,18.94-.95-.06-3.6-.41-6.73-4.06-14.59-17-20.29-82.29-13.18-83.79C259.1,66.75,259.38,77.58,272.25,95.11Z"/><path class="cls-2" d="M246.32,128c-3.55,12-7.78,26.36-14.5,26.66-5.86.27-12.58-10.18-13.09-20.13-.47-9.19,4.55-13.92,14.36-30.32C247.15,80.63,249,70,251.7,70.88,256.29,72.29,253.83,102.51,246.32,128Z"/><path class="cls-2" d="M297,75.58c6.3-.35,10.87-1.43,15.92,1.88,7.78,5.11,12.87,18.15,9.48,24.9-4.47,8.9-22.76,5-32.26,1.33-20.71-8-35.78-29.28-33-34.46C259.45,64.83,272.14,77,297,75.58Z"/><path class="cls-2" d="M281.48,45.47c8.88-7.78,28.52-25,37.22-17.63,6.43,5.43,6.19,23.71-1.28,32.56-3.83,4.53-7.54,4.2-24,7.22-24.38,4.48-30.71,7.86-32.22,4.81C258.71,67.34,273.51,52.45,281.48,45.47Z"/><path class="cls-2" d="M230.45,101.33c-9.33,7.06-29.94,22.64-38.18,14.62-6.1-5.94-4.77-24.15,3.22-32.38,4.09-4.21,7.77-3.59,24.34-5.29,24.59-2.52,31.11-5.39,32.43-2.22C254.47,81.33,238.82,95,230.45,101.33Z"/><path class="cls-2" d="M211.57,71.66c-6.32,0-10.93.84-15.83-2.75-7.56-5.52-12.11-18.83-8.45-25.39,4.83-8.64,22.94-3.77,32.28.44,20.36,9.18,34.53,31.22,31.56,36.23C248.59,84.47,236.42,71.64,211.57,71.66Z"/><ellipse class="cls-4" cx="253.9" cy="73.18" rx="16.88" ry="14.98" transform="translate(138.82 311.04) rotate(-80.26)"/><path class="cls-2" d="M105.44,929.37c.76-6.73,1.6-6.5,3.93-21.48,2.14-13.77,1.87-16.75,4.6-21.54,3.81-6.68,12.34-14.92,20-13.36,9.58,1.93,14.17,18.3,13.64,30-.35,7.6-2.78,11.86-12.35,29.37-18.19,33.26-20.17,37.55-23,37C106.08,968.32,103.58,945.71,105.44,929.37Z"/><path class="cls-2" d="M77.21,951.49c-15.45-12.06-29.27-22.85-27.62-36.91,1.07-9.17,8.65-19,17.24-20.08,17.13-2.15,31,31.42,33.7,38.09,1.5,3.65,11.37,27.62,4.49,32.47C99.54,968.92,86.35,958.63,77.21,951.49Z"/><path class="cls-2" d="M139.14,990.32c10.72,8,17.49,10.58,25.38,20.7,4.28,5.47,8.66,11.25,9.15,19.55.65,11-5.74,23.87-14.29,25.41-1.24.22-4.72.6-9.68-2.53-23-14.57-47-85.53-38.2-89.28C115.05,962.65,118.15,974.6,139.14,990.32Z"/><path class="cls-2" d="M114.16,1034.43c-1.51,14.4-3.31,31.58-11.86,33.89-7.46,2-18.74-7.63-21.93-18.54-2.94-10.08,2.32-16.8,10.75-37.92,12.1-30.28,11.72-42.59,15.47-42.45C112.84,969.64,117.35,1004,114.16,1034.43Z"/><path class="cls-2" d="M165.94,961.36c8-2.24,13.61-4.79,20.93-2.59,11.29,3.4,21.15,16.4,18.51,24.9-3.49,11.2-28,12.26-41.11,11-28.66-2.87-53.41-22.06-51.17-28.62C115,960.41,134.39,970.19,165.94,961.36Z"/><path class="cls-2" d="M138.39,932.43c9.44-11.26,30.3-36.13,43.35-30.52,9.65,4.15,14,24.54,6.62,36.57-3.77,6.15-8.62,6.88-29,15.06-30.19,12.13-37.47,17.75-40.18,14.8C114.7,963.42,129.93,942.53,138.39,932.43Z"/><path class="cls-2" d="M87,1009.5c-10.19,10.57-32.72,34-45.34,27.45-9.34-4.81-12.26-25.45-4.08-36.94,4.18-5.88,9.07-6.27,29.93-13,31-10,38.6-15.13,41.11-12C112.8,980.22,96.16,1000,87,1009.5Z"/><path class="cls-2" d="M55.22,982.06c-8.11,1.86-13.82,4.14-21,1.59-11.12-3.93-20.34-17.38-17.3-25.75,4-11,28.52-10.92,41.58-9,28.48,4.23,52.3,24.57,49.75,31C106,985.43,87.15,974.74,55.22,982.06Z"/><ellipse class="cls-5" cx="109.99" cy="971.32" rx="20" ry="19" transform="translate(-580.37 279.25) rotate(-38.47)"/><path class="cls-2" d="M694.32,199.64c.76-6.74,1.6-6.5,3.93-21.49,2.14-13.76,1.87-16.75,4.6-21.54,3.81-6.67,12.34-14.91,20-13.36,9.59,1.93,14.17,18.3,13.64,30-.34,7.6-2.77,11.86-12.35,29.37-18.19,33.27-20.17,37.55-23,37C695,238.59,692.46,216,694.32,199.64Z"/><path class="cls-2" d="M666.09,221.75c-15.45-12.06-29.27-22.84-27.62-36.9,1.07-9.18,8.65-19,17.25-20.09,17.12-2.14,30.94,31.42,33.69,38.1,1.5,3.64,11.37,27.61,4.49,32.46C688.42,239.18,675.23,228.89,666.09,221.75Z"/><path class="cls-2" d="M728,260.58c10.72,8,17.49,10.58,25.38,20.7,4.28,5.48,8.66,11.26,9.15,19.55.65,11-5.74,23.88-14.29,25.41-1.24.22-4.72.6-9.68-2.53-23.05-14.57-47-85.52-38.2-89.27C703.93,232.92,707,244.87,728,260.58Z"/><path class="cls-2" d="M703,304.7c-1.51,14.39-3.31,31.57-11.86,33.88-7.46,2-18.74-7.62-21.93-18.54-2.94-10.07,2.32-16.8,10.75-37.91,12.1-30.29,11.72-42.6,15.47-42.46C701.72,239.9,706.23,274.21,703,304.7Z"/><path class="cls-2" d="M754.82,231.62c8-2.24,13.61-4.79,20.94-2.58,11.28,3.39,21.14,16.39,18.5,24.89-3.48,11.21-28,12.27-41.11,10.95-28.65-2.87-53.41-22-51.16-28.62C703.89,230.68,723.27,240.45,754.82,231.62Z"/><path class="cls-2" d="M727.28,202.7c9.43-11.26,30.29-36.14,43.34-30.52,9.65,4.15,14,24.54,6.62,36.56-3.77,6.16-8.62,6.88-29,15.06-30.19,12.14-37.46,17.76-40.18,14.8C703.58,233.68,718.81,212.79,727.28,202.7Z"/><path class="cls-2" d="M675.9,279.76c-10.2,10.58-32.73,33.95-45.35,27.45-9.34-4.81-12.26-25.45-4.08-36.93,4.18-5.88,9.07-6.27,29.93-13,31-10,38.6-15.13,41.11-12C701.68,250.49,685,270.27,675.9,279.76Z"/><path class="cls-2" d="M644.1,252.33c-8.11,1.85-13.82,4.13-21,1.58-11.12-3.92-20.34-17.38-17.3-25.74,4-11,28.52-10.93,41.58-9,28.48,4.23,52.3,24.57,49.75,31C694.92,255.69,676,245,644.1,252.33Z"/><ellipse class="cls-6" cx="698.88" cy="241.59" rx="20" ry="19" transform="translate(1.4 487.19) rotate(-38.47)"/><path class="cls-2" d="M991.38,878.11c1.07-9.3,2.24-9,5.49-29.66,3-19,2.61-23.12,6.42-29.74,5.32-9.22,17.22-20.59,28-18.45,13.38,2.67,19.78,25.27,19,41.46-.48,10.5-3.87,16.38-17.23,40.55-25.39,45.93-28.15,51.84-32.11,51.14C992.28,931.88,988.79,900.66,991.38,878.11Z"/><path class="cls-2" d="M952,908.64C930.43,892,911.15,877.1,913.45,857.7,915,845,925.53,831.45,937.52,830c23.89-3,43.18,43.38,47,52.59,2.09,5,15.87,38.13,6.26,44.83C983.16,932.71,964.76,918.5,952,908.64Z"/><path class="cls-2" d="M1038.41,962.25c15,11.09,24.41,14.6,35.43,28.58,6,7.56,12.08,15.54,12.77,27,.9,15.22-8,33-20,35.08-1.72.31-6.58.83-13.5-3.49-32.16-20.12-65.52-118.08-53.3-123.26C1004.8,924.06,1009.13,940.56,1038.41,962.25Z"/><path class="cls-2" d="M1003.55,1023.15c-2.1,19.88-4.61,43.59-16.54,46.79-10.41,2.78-26.15-10.53-30.6-25.6-4.11-13.91,3.23-23.2,15-52.34,16.89-41.81,16.37-58.81,21.6-58.62C1001.71,933.7,1008,981.07,1003.55,1023.15Z"/><path class="cls-2" d="M1075.81,922.27c11.18-3.1,19-6.61,29.22-3.57,15.75,4.69,29.5,22.64,25.82,34.37-4.86,15.47-39,16.93-57.37,15.12-40-4-74.52-30.45-71.39-39.51C1004.75,921,1031.79,934.46,1075.81,922.27Z"/><path class="cls-2" d="M1037.38,882.33c13.17-15.54,42.28-49.88,60.48-42.13,13.46,5.73,19.51,33.88,9.24,50.48-5.26,8.5-12,9.5-40.41,20.79-42.14,16.76-52.28,24.52-56.07,20.43C1004.31,925.11,1025.56,896.27,1037.38,882.33Z"/><path class="cls-2" d="M965.68,988.73c-14.23,14.6-45.67,46.87-63.28,37.9-13-6.64-17.1-35.14-5.7-51,5.84-8.12,12.67-8.65,41.77-18,43.2-13.84,53.87-20.89,57.37-16.55C1001.66,948.31,978.44,975.63,965.68,988.73Z"/><path class="cls-2" d="M921.31,950.85C910,953.42,902,956.56,892,953c-15.51-5.42-28.38-24-24.14-35.54,5.59-15.22,39.8-15.08,58-12.41,39.74,5.84,73,33.93,69.41,42.83C992.23,955.5,965.87,940.74,921.31,950.85Z"/><ellipse class="cls-7" cx="997.75" cy="936.03" rx="27.81" ry="26.33" transform="translate(-348.69 693.63) rotate(-32.97)"/><path class="cls-2" d="M1651.24,235.6c.77-6.74,1.6-6.5,3.93-21.49,2.15-13.77,1.87-16.75,4.61-21.54,3.8-6.68,12.33-14.92,20-13.36,9.59,1.93,14.17,18.3,13.64,30-.34,7.6-2.77,11.86-12.34,29.37-18.2,33.27-20.18,37.55-23,37C1651.88,274.54,1649.38,251.93,1651.24,235.6Z"/><path class="cls-2" d="M1623,257.71c-15.45-12.06-29.27-22.84-27.62-36.9,1.08-9.18,8.66-19,17.25-20.09,17.12-2.15,30.94,31.42,33.69,38.09,1.51,3.65,11.38,27.62,4.49,32.47C1645.34,275.14,1632.16,264.85,1623,257.71Z"/><path class="cls-2" d="M1684.94,296.54c10.73,8,17.49,10.58,25.39,20.7,4.27,5.48,8.66,11.26,9.15,19.55.65,11-5.75,23.88-14.3,25.41-1.23.22-4.72.6-9.67-2.53-23-14.57-47-85.52-38.2-89.28C1660.85,268.87,1664,280.83,1684.94,296.54Z"/><path class="cls-2" d="M1660,340.65c-1.5,14.4-3.3,31.58-11.86,33.89-7.46,2-18.74-7.63-21.92-18.54-3-10.08,2.31-16.8,10.74-37.91,12.1-30.29,11.73-42.6,15.48-42.46C1658.64,275.86,1663.15,310.17,1660,340.65Z"/><path class="cls-2" d="M1711.74,267.58c8-2.24,13.61-4.79,20.94-2.59,11.29,3.4,21.14,16.4,18.5,24.9-3.48,11.2-28,12.27-41.11,10.95-28.65-2.87-53.4-22.06-51.16-28.62C1660.82,266.63,1680.2,276.41,1711.74,267.58Z"/><path class="cls-2" d="M1684.2,238.65c9.44-11.25,30.3-36.13,43.34-30.52,9.65,4.16,14,24.55,6.62,36.57-3.76,6.16-8.61,6.88-29,15.06-30.19,12.13-37.46,17.75-40.18,14.8C1660.5,269.64,1675.73,248.75,1684.2,238.65Z"/><path class="cls-2" d="M1632.82,315.72c-10.19,10.58-32.72,33.95-45.35,27.45-9.34-4.81-12.25-25.45-4.08-36.94,4.19-5.88,9.07-6.27,29.93-13,31-10,38.6-15.12,41.11-12C1658.6,286.44,1642,306.23,1632.82,315.72Z"/><path class="cls-2" d="M1601,288.28c-8.11,1.86-13.82,4.14-21,1.59-11.11-3.93-20.34-17.38-17.3-25.74,4-11,28.52-10.93,41.59-9,28.48,4.23,52.29,24.57,49.74,31C1651.85,291.65,1633,281,1601,288.28Z"/><ellipse class="cls-8" cx="1655.8" cy="277.54" rx="20" ry="19" transform="translate(186.73 1090.29) rotate(-38.47)"/><path class="cls-2" d="M856.7,16.32C870,26.45,878.32,29.66,888.09,42.41c5.28,6.91,10.71,14.19,11.31,24.65.8,13.89-7.1,30.09-17.68,32-1.52.28-5.83.76-12-3.19C841.26,77.53,811.7-11.9,822.53-16.63,826.91-18.54,830.75-3.48,856.7,16.32Z"/><path class="cls-2" d="M825.81,71.92c-1.86,18.15-4.09,39.8-14.66,42.72C801.92,117.18,788,105,784,91.27c-3.64-12.71,2.86-21.18,13.28-47.79,15-38.17,14.5-53.68,19.14-53.51C824.18-9.74,829.75,33.5,825.81,71.92Z"/><path class="cls-2" d="M889.84-20.17c9.9-2.83,16.82-6,25.88-3.26,14,4.28,26.15,20.66,22.88,31.37C934.3,22.06,904,23.4,887.77,21.74c-35.43-3.61-66-27.8-63.26-36.06C826.87-21.37,850.83-9,889.84-20.17Z"/><path class="cls-2" d="M792.25,40.5c-12.61,13.33-40.46,42.79-56.07,34.6C724.63,69,721,43,731.13,28.54c5.18-7.41,11.22-7.9,37-16.41C806.42-.5,815.87-6.93,819-3,824.13,3.6,803.55,28.54,792.25,40.5Z"/><path class="cls-2" d="M752.94,5.92c-10,2.34-17.09,5.21-26,2C713.18,3,701.78-14,705.54-24.53c5-13.9,35.26-13.77,51.42-11.32,35.21,5.33,64.66,31,61.5,39.09C815.78,10.16,792.42-3.31,752.94,5.92Z"/><ellipse class="cls-3" cx="820.66" cy="-7.62" rx="24.96" ry="23.73" transform="translate(291.22 619.47) rotate(-49.29)"/></g><g id="Blå"><path class="cls-8" d="M498.18,119.73c.76-6.74,1.6-6.5,3.93-21.49,2.14-13.76,1.87-16.75,4.6-21.54,3.81-6.67,12.34-14.91,20-13.36,9.59,1.93,14.17,18.3,13.64,30-.34,7.6-2.77,11.86-12.35,29.37-18.19,33.27-20.17,37.55-23,37C498.82,158.67,496.32,136.06,498.18,119.73Z"/><path class="cls-8" d="M470,141.84c-15.45-12.06-29.27-22.84-27.62-36.9,1.08-9.18,8.65-19,17.25-20.09,17.12-2.14,30.94,31.42,33.69,38.09,1.5,3.65,11.37,27.62,4.49,32.47C492.28,159.27,479.1,149,470,141.84Z"/><path class="cls-8" d="M531.88,180.67c10.73,8,17.49,10.58,25.39,20.7,4.27,5.48,8.66,11.26,9.14,19.55.65,11-5.74,23.88-14.29,25.41-1.24.22-4.72.6-9.68-2.53-23.05-14.57-47-85.52-38.19-89.28C507.79,153,510.89,165,531.88,180.67Z"/><path class="cls-8" d="M506.9,224.78c-1.51,14.4-3.3,31.58-11.86,33.89-7.46,2-18.74-7.63-21.93-18.54-2.94-10.08,2.32-16.8,10.75-37.91,12.1-30.29,11.73-42.6,15.47-42.46C505.58,160,510.09,194.3,506.9,224.78Z"/><path class="cls-8" d="M558.68,151.71c8-2.24,13.61-4.79,20.94-2.58,11.28,3.39,21.14,16.39,18.5,24.89-3.48,11.21-28,12.27-41.11,10.95-28.65-2.87-53.4-22.06-51.16-28.62C507.76,150.77,527.13,160.54,558.68,151.71Z"/><path class="cls-8" d="M531.14,122.78c9.44-11.25,30.3-36.13,43.34-30.51,9.65,4.15,14,24.54,6.62,36.56-3.77,6.16-8.62,6.88-29,15.06C522,156,514.68,161.65,512,158.69,507.44,153.77,522.67,132.88,531.14,122.78Z"/><path class="cls-8" d="M479.76,199.85c-10.2,10.58-32.73,34-45.35,27.45-9.34-4.81-12.25-25.45-4.08-36.94,4.18-5.88,9.07-6.26,29.93-13,31-10,38.6-15.12,41.11-12C505.54,170.58,488.9,190.36,479.76,199.85Z"/><path class="cls-8" d="M448,172.41c-8.1,1.86-13.82,4.14-21,1.59-11.12-3.93-20.34-17.38-17.3-25.74,4-11,28.52-10.93,41.58-9,28.49,4.23,52.3,24.57,49.75,31C498.79,175.78,479.89,165.09,448,172.41Z"/><ellipse class="cls-3" cx="502.74" cy="161.68" rx="20" ry="19" transform="translate(8.54 347.84) rotate(-38.47)"/><path class="cls-8" d="M344.23,460.19c-2.56-6.28-1.71-6.47-6.84-20.75-4.71-13.1-6.38-15.59-6.27-21.11.14-7.68,3.68-19,11.18-21.32,9.35-2.9,21.21,9.28,26.36,19.83,3.34,6.84,3.25,11.74,3.23,31.69,0,37.92.27,42.63-2.46,43.54C363.44,494.07,350.42,475.42,344.23,460.19Z"/><path class="cls-8" d="M330,493.12c-19.34-3.18-36.64-6-41.92-19.17-3.45-8.57-1.51-20.83,5.52-25.89,14-10.08,42.21,12.76,47.82,17.3,3.07,2.49,23.21,18.8,19.49,26.36C358,497.73,341.49,495,330,493.12Z"/><path class="cls-8" d="M403,497.55c13.26,1.91,20.42.91,32.2,6,6.37,2.77,13,5.74,17.39,12.79,5.85,9.37,6.39,23.71-.38,29.15-1,.78-3.85,2.79-9.7,2.41-27.22-1.75-82.18-52.59-76.29-60.08C368.6,484.8,377.05,493.81,403,497.55Z"/><path class="cls-8" d="M402.2,548.24c5.57,13.36,12.22,29.3,5.82,35.43-5.59,5.34-20.11,2.28-28.13-5.78-7.41-7.43-6-15.86-8.73-38.43-3.88-32.38-10.1-43-6.75-44.68C370,492,390.4,520,402.2,548.24Z"/><path class="cls-8" d="M412.66,459.29c6-5.8,9.65-10.72,17.14-12.29,11.53-2.43,26.41,4.27,28.16,13,2.31,11.5-18.67,24.16-30.84,29.3-26.53,11.2-57.44,6.21-58.62-.62C367.5,482.85,389.19,482.15,412.66,459.29Z"/><path class="cls-8" d="M374.62,447.09c2.9-14.4,9.3-46.23,23.44-47.55,10.46-1,24,14.85,23.32,28.93-.36,7.21-4.27,10.17-18.21,27.09-20.69,25.11-24.38,33.53-28.18,32.23C368.66,485.64,372,460,374.62,447.09Z"/><path class="cls-8" d="M366.43,539.35c-3.89,14.17-12.47,45.48-26.66,45.82-10.51.25-22.95-16.48-21.27-30.48.85-7.16,5-9.84,20-25.76,22.37-23.62,26.64-31.77,30.34-30.21C375,501.3,369.91,526.64,366.43,539.35Z"/><path class="cls-8" d="M325.38,530.49c-6.23,5.52-10.15,10.25-17.71,11.47-11.63,1.87-26.18-5.52-27.51-14.32-1.76-11.6,19.8-23.25,32.2-27.8,27-9.93,57.67-3.48,58.52,3.4C371.6,509.11,349.9,508.77,325.38,530.49Z"/><ellipse class="cls-4" cx="367.97" cy="492.24" rx="20" ry="19" transform="translate(-228.71 639.49) rotate(-67.08)"/><path class="cls-8" d="M1155.9,808c2.11-7.18,3-6.76,8.41-22.61,5-14.56,5.22-17.85,9.16-22.53,5.51-6.53,16.58-13.86,24.91-10.69,10.36,3.94,12.43,22.62,9.65,35.27-1.8,8.2-5.31,12.37-19.29,29.57-26.56,32.67-29.57,37-32.66,35.85C1149.34,850.47,1150.77,825.4,1155.9,808Z"/><path class="cls-8" d="M1120.2,826.62c-15-16.08-28.47-30.46-24-45.43,2.91-9.77,13.22-19,23-18.53,19.56,1,28.75,40.11,30.58,47.89,1,4.26,7.56,32.21-1,36.17C1141.92,849.86,1129.1,836.14,1120.2,826.62Z"/><path class="cls-8" d="M1182.22,880.73c10.49,10.79,17.58,14.86,24.53,27.38,3.75,6.78,7.58,13.9,6.58,23C1212,943.24,1202.45,956,1192.6,956c-1.42,0-5.39-.25-10.35-4.61-23.06-20.27-36.56-102-26.06-104.4C1160.44,846,1161.68,859.62,1182.22,880.73Z"/><path class="cls-8" d="M1146,923.9c-4.37,15.36-9.59,33.7-19.59,34.57-8.72.76-19.53-11.89-21.06-24.37-1.41-11.52,5.72-17.83,19.1-39.16,19.18-30.61,21.06-44.06,25.23-43.19C1156.66,853.2,1155.3,891.37,1146,923.9Z"/><path class="cls-8" d="M1217.6,854.39c9.38-.9,16.11-2.59,23.9,1.21,12,5.86,20.58,21.88,16,30.62-6,11.51-33.57,8-48,4-31.51-8.62-55.61-34.23-51.88-40.94C1160.82,843.58,1180.67,857.93,1217.6,854.39Z"/><path class="cls-8" d="M1192.19,817.65c12.66-10.43,40.63-33.47,54.17-24.86,10,6.36,11.06,29.37.59,41-5.37,6-10.93,5.82-35.21,10.81-36,7.4-45.21,12.11-47.7,8.38C1159.9,846.79,1180.84,827,1192.19,817.65Z"/><path class="cls-8" d="M1120.34,891.58c-13.38,9.54-42.94,30.63-55.84,21.14-9.55-7-9-30,2.33-41,5.78-5.59,11.31-5.07,35.91-8.41,36.49-5,46-9,48.21-5.14C1154.64,864.7,1132.34,883,1120.34,891.58Z"/><path class="cls-8" d="M1089.9,855.64c-9.41.47-16.23,1.85-23.82-2.31-11.7-6.41-19.51-22.81-14.55-31.32,6.55-11.22,33.94-6.4,48.19-1.78,31.07,10.07,53.91,36.75,49.85,43.27C1146.12,869.06,1127,853.81,1089.9,855.64Z"/><ellipse class="cls-5" cx="1155.4" cy="853.08" rx="22.52" ry="21.13" transform="translate(-190.02 350.54) rotate(-15.96)"/><path class="cls-8" d="M34.33,180.45c.77-6.73,1.6-6.5,3.93-21.48,2.14-13.77,1.87-16.75,4.6-21.54,3.81-6.68,12.34-14.92,20-13.36,9.59,1.93,14.17,18.3,13.64,30-.34,7.6-2.77,11.86-12.35,29.37C46,216.73,44,221,41.18,220.51,35,219.4,32.47,196.79,34.33,180.45Z"/><path class="cls-8" d="M6.1,202.57c-15.45-12.06-29.27-22.85-27.62-36.9,1.08-9.18,8.66-19,17.25-20.09,17.12-2.15,30.94,31.42,33.69,38.09,1.5,3.65,11.37,27.62,4.49,32.47C28.43,220,15.25,209.71,6.1,202.57Z"/><path class="cls-8" d="M68,241.4c10.73,8,17.49,10.58,25.39,20.7,4.27,5.47,8.66,11.25,9.15,19.55.64,11-5.75,23.87-14.3,25.41-1.24.22-4.72.6-9.68-2.53C55.54,290,31.64,219,40.4,215.25,43.94,213.73,47,225.68,68,241.4Z"/><path class="cls-8" d="M43.05,285.51c-1.51,14.4-3.3,31.58-11.86,33.89-7.46,2-18.74-7.63-21.93-18.54-2.94-10.08,2.32-16.8,10.75-37.92,12.1-30.28,11.73-42.59,15.47-42.45C41.73,220.72,46.24,255,43.05,285.51Z"/><path class="cls-8" d="M94.83,212.44c8-2.24,13.61-4.79,20.94-2.59,11.29,3.4,21.14,16.4,18.5,24.9-3.48,11.2-28,12.26-41.11,10.95-28.65-2.87-53.4-22.06-51.16-28.62C43.91,211.49,63.28,221.27,94.83,212.44Z"/><path class="cls-8" d="M67.29,183.51c9.44-11.26,30.3-36.13,43.34-30.52,9.65,4.15,14,24.54,6.62,36.57-3.77,6.15-8.62,6.88-29,15.06-30.19,12.13-37.46,17.75-40.18,14.8C43.59,214.5,58.82,193.61,67.29,183.51Z"/><path class="cls-8" d="M15.91,260.58C5.71,271.15-16.82,294.53-29.44,288c-9.34-4.81-12.25-25.45-4.08-36.94,4.19-5.88,9.07-6.27,29.93-13,31-10,38.6-15.13,41.11-12C41.69,231.3,25.05,251.09,15.91,260.58Z"/><path class="cls-8" d="M-15.89,233.14c-8.1,1.86-13.82,4.14-21,1.59C-48,230.8-57.26,217.35-54.22,209c4-11,28.52-10.92,41.59-9,28.48,4.23,52.29,24.57,49.74,31C34.94,236.51,16,225.82-15.89,233.14Z"/><ellipse class="cls-6" cx="39.81" cy="221.7" rx="20" ry="19" transform="translate(-129.27 72.89) rotate(-38.47)"/><path class="cls-8" d="M1744.33,557.45c.77-6.73,1.6-6.5,3.93-21.48,2.14-13.77,1.87-16.75,4.6-21.54,3.81-6.68,12.34-14.92,20-13.36,9.59,1.93,14.17,18.3,13.64,30-.34,7.6-2.77,11.86-12.35,29.37-18.19,33.26-20.17,37.55-23,37C1745,596.4,1742.47,573.79,1744.33,557.45Z"/><path class="cls-8" d="M1716.1,579.57c-15.45-12.06-29.27-22.85-27.62-36.9,1.08-9.18,8.66-19,17.25-20.09,17.12-2.15,30.94,31.42,33.69,38.09,1.5,3.65,11.37,27.62,4.49,32.47C1738.43,597,1725.25,586.71,1716.1,579.57Z"/><path class="cls-8" d="M1778,618.4c10.73,8,17.49,10.58,25.39,20.7,4.27,5.47,8.66,11.25,9.15,19.55.64,11-5.75,23.87-14.3,25.41-1.24.22-4.72.6-9.68-2.53-23-14.57-46.95-85.53-38.19-89.28C1753.94,590.73,1757,602.68,1778,618.4Z"/><path class="cls-8" d="M1753.05,662.51c-1.51,14.4-3.3,31.58-11.86,33.89-7.46,2-18.74-7.63-21.93-18.54-2.94-10.08,2.32-16.8,10.75-37.92,12.1-30.28,11.73-42.59,15.47-42.45C1751.73,597.72,1756.24,632,1753.05,662.51Z"/><path class="cls-8" d="M1804.83,589.44c8-2.24,13.61-4.79,20.94-2.59,11.29,3.4,21.14,16.4,18.5,24.9-3.48,11.2-28,12.26-41.11,11-28.65-2.87-53.4-22.06-51.16-28.62C1753.91,588.49,1773.28,598.27,1804.83,589.44Z"/><path class="cls-8" d="M1777.29,560.51c9.44-11.26,30.3-36.13,43.34-30.52,9.65,4.15,14,24.54,6.62,36.57-3.77,6.15-8.62,6.88-29,15.06-30.19,12.13-37.46,17.75-40.18,14.8C1753.59,591.5,1768.82,570.61,1777.29,560.51Z"/><path class="cls-8" d="M1725.91,637.58c-10.2,10.57-32.73,33.95-45.35,27.45-9.34-4.81-12.25-25.45-4.08-36.94,4.19-5.88,9.07-6.27,29.93-13,31-10,38.6-15.13,41.11-12C1751.69,608.3,1735.05,628.09,1725.91,637.58Z"/><path class="cls-8" d="M1694.11,610.14c-8.1,1.86-13.82,4.14-21,1.59-11.11-3.93-20.34-17.38-17.3-25.75,4-11,28.52-10.92,41.59-9,28.48,4.23,52.29,24.57,49.74,31C1744.94,613.51,1726,602.82,1694.11,610.14Z"/><ellipse class="cls-7" cx="1749.07" cy="598.37" rx="20" ry="19" transform="translate(7.4 1217.94) rotate(-38.47)"/><path class="cls-8" d="M1782.68,22c1.31-10.83,2.75-10.45,6.74-34.55,3.67-22.13,3.2-26.92,7.88-34.63,6.52-10.73,21.13-24,34.32-21.48,16.43,3.11,24.28,29.42,23.37,48.28-.59,12.23-4.75,19.08-21.15,47.22-31.16,53.49-34.56,60.38-39.42,59.56C1783.78,84.59,1779.5,48.23,1782.68,22Z"/><path class="cls-8" d="M1734.33,57.53C1707.86,38.14,1684.2,20.8,1687-1.81c1.84-14.75,14.82-30.57,29.54-32.3,29.33-3.45,53,50.52,57.72,61.25,2.57,5.87,19.48,44.41,7.69,52.21C1772.58,85.56,1750,69,1734.33,57.53Z"/><path class="cls-8" d="M1840.41,120c18.37,12.91,30,17,43.48,33.28,7.33,8.81,14.84,18.1,15.68,31.44,1.11,17.73-9.84,38.39-24.49,40.85-2.12.36-8.08,1-16.57-4.07C1819,198,1778.07,84,1793.08,77.92,1799.14,75.48,1804.46,94.7,1840.41,120Z"/><path class="cls-8" d="M1797.62,190.89c-2.58,23.15-5.66,50.77-20.31,54.49-12.78,3.24-32.1-12.27-37.56-29.81-5-16.21,4-27,18.41-61,20.72-48.7,20.08-68.49,26.5-68.27C1795.36,86.71,1803.08,141.87,1797.62,190.89Z"/><path class="cls-8" d="M1886.32,73.4c13.72-3.61,23.31-7.7,35.86-4.16,19.34,5.46,36.22,26.36,31.69,40-6,18-47.91,19.72-70.42,17.6-49.07-4.61-91.47-35.46-87.63-46C1799.09,71.88,1832.28,87.6,1886.32,73.4Z"/><path class="cls-8" d="M1839.14,26.89c16.17-18.1,51.9-58.1,74.24-49.07,16.53,6.67,23.95,39.46,11.34,58.79-6.45,9.9-14.76,11.06-49.6,24.21-51.72,19.51-64.18,28.55-68.83,23.8C1798.54,76.71,1824.64,43.12,1839.14,26.89Z"/><path class="cls-8" d="M1751.13,150.8c-17.46,17-56.05,54.59-77.68,44.14-16-7.73-21-40.92-7-59.39,7.17-9.46,15.54-10.08,51.27-20.94,53-16.11,66.12-24.32,70.42-19.27C1795.29,103.73,1766.79,135.54,1751.13,150.8Z"/><path class="cls-8" d="M1696.67,106.69c-13.89,3-23.68,6.65-36,2.55-19-6.32-34.84-27.95-29.63-41.4,6.86-17.73,48.85-17.56,71.23-14.44,48.78,6.79,89.57,39.5,85.2,49.87C1783.72,112.1,1751.36,94.91,1696.67,106.69Z"/><ellipse class="cls-2" cx="1790.8" cy="87.77" rx="33.84" ry="30.93" transform="translate(51.33 522.39) rotate(-16.83)"/></g><g id="Lyserød"><path class="cls-7" d="M136.34,58c7.65-1.48,7.67-.47,24.9-3.06,15.83-2.38,19-3.71,25.2-2.34,8.62,1.91,20.57,8.5,21.5,17.57,1.16,11.28-15.22,22-28.27,25.47-8.45,2.25-13.95,1-36.43-3.53-42.7-8.66-48.07-9.38-48.49-12.7C93.84,72.16,117.79,61.59,136.34,58Z"/><path class="cls-7" d="M99.9,34c7.94-21.27,15-40.29,31-43.32,10.43-2,23.81,3,27.93,12.16C167.06,21,135,47.92,128.6,53.27c-3.49,2.92-26.4,22.13-34.08,16.18C88.42,64.72,95.2,46.56,99.9,34Z"/><path class="cls-7" d="M78.49,116c-5.14,14.65-5.62,23-14,35.26-4.55,6.62-9.38,13.47-18.31,16.88C34.29,172.61,18,170,13.4,161c-.66-1.29-2.27-5-.53-11.59C21,118.89,90.6,67.92,97.72,76.32,100.59,79.72,88.55,87.29,78.49,116Z"/><path class="cls-7" d="M21.57,103.52c-16.3,3.3-35.75,7.24-41.22-1.43-4.76-7.57,2-23.39,12.84-30.68,10.05-6.74,19.22-3.24,45.25-1.19,37.35,2.94,50.72-1.72,51.85,2.47C92.18,79.69,56.09,96.53,21.57,103.52Z"/><path class="cls-7" d="M119.41,135.63c5.2,8.09,9.91,13.41,10,22.29.13,13.67-10.76,29.07-21,29.08-13.48,0-23-26.73-26.06-41.74-6.65-32.72,5.93-66.75,13.89-66.53C103,78.91,98.94,103.75,119.41,135.63Z"/><path class="cls-7" d="M141.72,95.14c15.57,6.57,50,21.08,48.28,37.46-1.25,12.12-22.13,24-37.83,20-8-2.05-10.49-7.17-26.42-26.87-23.63-29.24-32.28-35.36-30-39.39C99.63,79.6,127.75,89.25,141.72,95.14Z"/><path class="cls-7" d="M39.64,64.86C24.55,57.22-8.79,40.34-6,24.12c2.08-12,23.72-22.35,39.11-17.27,7.88,2.6,10,7.88,24.51,28.65C79.23,66.32,87.44,73,84.85,76.88,80.56,83.3,53.17,71.71,39.64,64.86Z"/><path class="cls-7" d="M58.85,20.18C54,11.84,49.59,6.3,49.92-2.57c.51-13.66,12.11-28.52,22.32-28C85.7-30,94-2.8,96.31,12.34c5.1,33-9.06,66.38-17,65.79C72.54,77.62,77.8,53,58.85,20.18Z"/><ellipse class="cls-3" cx="89.36" cy="77.12" rx="21.96" ry="23.05" transform="translate(-27.01 96.91) rotate(-50.45)"/><path class="cls-7" d="M1571.55,459.38c4.79-4.8,5.3-4.1,16.45-14.38,10.24-9.44,11.88-11.95,17-14,7.13-2.86,18.94-4,24,2,6.31,7.48-.29,23.15-8,32-5,5.74-9.55,7.56-27.94,15.31C1558.12,495,1553.91,497.16,1552,495,1547.83,490.27,1559.94,471,1571.55,459.38Z"/><path class="cls-7" d="M1533.67,460.07C1529.07,441,1525,424,1535,414c6.55-6.52,18.6-9.5,26-5,14.74,9,4.68,43.85,2.68,50.79-1.09,3.79-8.27,28.69-16.68,28.21C1540.31,487.62,1536.39,471.35,1533.67,460.07Z"/><path class="cls-7" d="M1558,529c3.4,13,7.11,19.16,7,32-.06,7-.22,14.2-5,21-6.35,9-19.35,15.12-27,11-1.1-.59-4.07-2.46-6-8-9-25.75,16.44-96.17,25.63-93.66C1556.35,492.35,1551.34,503.64,1558,529Z"/><path class="cls-7" d="M1511,548c-10.13,10.33-22.23,22.67-30.37,19.16-7.09-3.06-9.92-17.63-5.63-28.16,4-9.72,12.26-11.72,32-23,28.31-16.19,35.68-26.06,38.53-23.62C1550.27,496.45,1532.46,526.12,1511,548Z"/><path class="cls-7" d="M1597,523c7.67,3.23,13.63,4.72,18,11,6.73,9.68,6.35,26-1,31-9.7,6.61-29.53-7.79-39-17-20.65-20.07-28.09-50.49-22.25-54.23C1557.72,490.58,1566.81,510.29,1597,523Z"/><path class="cls-7" d="M1593.43,483.22c14.39-2.94,46.2-9.44,52.92,3.06,5,9.26-4.32,27.92-17.56,32.75-6.78,2.48-11,0-32-6.22-31.18-9.28-40.37-9.41-40.66-13.41C1555.6,492.74,1580.52,485.85,1593.43,483.22Z"/><path class="cls-7" d="M1505.26,511.59c-14.56,1.94-46.74,6.23-52.58-6.71-4.32-9.58,6.24-27.55,19.78-31.46,6.94-2,11,.73,31.54,8.42,30.47,11.42,39.63,12.17,39.64,16.19C1543.66,504.71,1518.32,509.85,1505.26,511.59Z"/><path class="cls-7" d="M1497.43,470.33c-7.5-3.58-13.39-5.35-17.45-11.84-6.26-10-5.11-26.26,2.47-30.92,10-6.14,29.13,9.19,38.15,18.84,19.67,21,25.66,51.77,19.65,55.23C1535.13,504.58,1527,484.46,1497.43,470.33Z"/><ellipse class="cls-4" cx="1547" cy="496" rx="20" ry="19"/><path class="cls-7" d="M677.92,38.86c6-6.76,6.68-5.76,20.75-20.25,12.91-13.31,15-16.84,21.44-19.73,9-4,23.9-5.64,30.28,2.82,8,10.54-.36,32.61-10.09,45.09-6.31,8.08-12,10.65-35.25,21.58-44.08,20.75-49.4,23.74-51.8,20.69C648,82.39,663.26,55.26,677.92,38.86Z"/><path class="cls-7" d="M630.12,39.85c-5.8-26.85-11-50.86,1.68-64.92,8.26-9.18,23.47-13.39,32.8-7,18.6,12.64,5.91,61.79,3.39,71.56-1.38,5.34-10.45,40.44-21,39.76C638.5,78.65,633.55,55.74,630.12,39.85Z"/><path class="cls-7" d="M660.82,137c4.29,18.26,9,27,8.83,45.09-.08,9.79-.28,20-6.31,29.59-8,12.73-24.41,21.3-34.07,15.5-1.39-.84-5.13-3.47-7.57-11.28C610.37,179.6,642.44,80.36,654,83.9,658.73,85.33,652.42,101.24,660.82,137Z"/><path class="cls-7" d="M601.52,163.74c-12.79,14.56-28,31.94-38.31,27-9-4.31-12.53-24.84-7.11-39.67,5-13.7,15.47-16.51,40.37-32.41,35.72-22.81,45-36.71,48.61-33.28C651.07,91.1,628.6,132.9,601.52,163.74Z"/><path class="cls-7" d="M710,128.51c9.67,4.55,17.2,6.65,22.71,15.5,8.49,13.64,8,36.62-1.26,43.68-12.23,9.31-37.26-11-49.21-23.95-26-28.28-35.44-71.14-28.07-76.42C660.46,82.83,671.93,110.6,710,128.51Z"/><path class="cls-7" d="M705.52,72.46c18.15-4.15,58.28-13.31,66.76,4.32,6.28,13-5.45,39.33-22.16,46.15-8.55,3.48-13.91,0-40.42-8.78-39.35-13.07-51-13.25-51.31-18.89C657.79,85.87,689.23,76.17,705.52,72.46Z"/><path class="cls-7" d="M594.28,112.44c-18.38,2.73-59,8.77-66.35-9.46-5.45-13.5,7.87-38.82,25-44.33,8.74-2.82,13.88,1,39.78,11.87,38.45,16.08,50,17.15,50,22.81C642.72,102.74,610.75,110,594.28,112.44Z"/><path class="cls-7" d="M584.4,54.3c-9.46-5-16.9-7.55-22-16.68-7.9-14.08-6.45-37,3.12-43.57,12.61-8.65,36.74,13,48.13,26.54C638.44,50.22,646,93.53,638.42,98.41,632,102.56,621.69,74.22,584.4,54.3Z"/><ellipse class="cls-5" cx="646.94" cy="90.47" rx="25.23" ry="26.77"/><path class="cls-7" d="M408.55,582.38c4.79-4.8,5.3-4.1,16.45-14.38,10.24-9.44,11.88-12,17-14,7.13-2.86,18.94-4,24,2,6.31,7.48-.29,23.15-8,32-5,5.74-9.55,7.56-27.94,15.31C395.12,618,390.91,620.16,389,618,384.83,613.27,396.94,594,408.55,582.38Z"/><path class="cls-7" d="M370.67,583.07C366.07,564,362,547,372,537c6.55-6.52,18.6-9.5,26-5,14.74,9,4.68,43.85,2.68,50.79-1.09,3.79-8.27,28.69-16.68,28.21C377.31,610.62,373.39,594.35,370.67,583.07Z"/><path class="cls-7" d="M395,652c3.4,13,7.11,19.16,7,32-.06,7-.22,14.2-5,21-6.35,9-19.35,15.12-27,11-1.1-.59-4.07-2.46-6-8-9-25.75,16.44-96.17,25.63-93.66C393.35,615.35,388.34,626.64,395,652Z"/><path class="cls-7" d="M348,671c-10.13,10.33-22.23,22.67-30.37,19.16-7.09-3.06-9.92-17.63-5.63-28.16,4-9.72,12.26-11.72,32-23,28.31-16.19,35.68-26.06,38.53-23.62C387.27,619.45,369.46,649.12,348,671Z"/><path class="cls-7" d="M434,646c7.67,3.23,13.63,4.72,18,11,6.73,9.68,6.35,26-1,31-9.7,6.61-29.53-7.79-39-17-20.65-20.07-28.09-50.49-22.25-54.23C394.72,613.58,403.81,633.29,434,646Z"/><path class="cls-7" d="M430.43,606.22c14.39-2.94,46.2-9.44,52.92,3.06,5,9.26-4.32,27.92-17.56,32.75-6.78,2.48-11,0-32.05-6.22-31.18-9.28-40.37-9.41-40.66-13.41C392.6,615.74,417.52,608.85,430.43,606.22Z"/><path class="cls-7" d="M342.26,634.59c-14.56,1.94-46.74,6.23-52.58-6.71-4.32-9.58,6.24-27.55,19.78-31.46,6.94-2,11,.73,31.54,8.42C371.47,616.26,380.63,617,380.64,621,380.66,627.71,355.32,632.85,342.26,634.59Z"/><path class="cls-7" d="M334.43,593.33C326.93,589.75,321,588,317,581.49c-6.26-10-5.11-26.26,2.47-30.92,10-6.14,29.13,9.19,38.15,18.84,19.67,21,25.66,51.77,19.65,55.23C372.13,627.58,364,607.46,334.43,593.33Z"/><ellipse class="cls-6" cx="384" cy="619" rx="20" ry="19"/><path class="cls-7" d="M1272.55,930.38c4.79-4.8,5.3-4.1,16.45-14.38,10.24-9.44,11.88-12,17-14,7.13-2.86,18.94-4,24,2,6.31,7.48-.29,23.15-8,32-5,5.74-9.55,7.56-27.94,15.31C1259.12,966,1254.91,968.16,1253,966,1248.83,961.27,1260.94,942,1272.55,930.38Z"/><path class="cls-7" d="M1234.67,931.07C1230.07,912,1226,895,1236,885c6.55-6.52,18.6-9.5,26-5,14.74,9,4.68,43.85,2.68,50.79-1.09,3.79-8.27,28.69-16.68,28.21C1241.31,958.62,1237.39,942.35,1234.67,931.07Z"/><path class="cls-7" d="M1259,1000c3.4,13,7.11,19.16,7,32-.06,7-.22,14.2-5,21-6.35,9-19.35,15.12-27,11-1.1-.59-4.07-2.46-6-8-9-25.75,16.44-96.17,25.63-93.66C1257.35,963.35,1252.34,974.64,1259,1000Z"/><path class="cls-7" d="M1212,1019c-10.13,10.33-22.23,22.67-30.37,19.16-7.09-3.06-9.92-17.63-5.63-28.16,4-9.72,12.26-11.72,32-23,28.31-16.19,35.68-26.06,38.53-23.62C1251.27,967.45,1233.46,997.12,1212,1019Z"/><path class="cls-7" d="M1298,994c7.67,3.23,13.63,4.72,18,11,6.73,9.68,6.35,26-1,31-9.7,6.61-29.53-7.79-39-17-20.65-20.07-28.09-50.49-22.25-54.23C1258.72,961.58,1267.81,981.29,1298,994Z"/><path class="cls-7" d="M1294.43,954.22c14.39-2.94,46.2-9.44,52.92,3.06,5,9.26-4.32,27.92-17.56,32.75-6.78,2.48-11,0-32-6.22-31.18-9.28-40.37-9.41-40.66-13.41C1256.6,963.74,1281.52,956.85,1294.43,954.22Z"/><path class="cls-7" d="M1206.26,982.59c-14.56,1.94-46.74,6.23-52.58-6.71-4.32-9.58,6.24-27.55,19.78-31.46,6.94-2,11,.73,31.54,8.42,30.47,11.42,39.63,12.17,39.64,16.19C1244.66,975.71,1219.32,980.85,1206.26,982.59Z"/><path class="cls-7" d="M1198.43,941.33c-7.5-3.58-13.39-5.35-17.45-11.84-6.26-10-5.11-26.26,2.47-30.92,10-6.14,29.13,9.19,38.15,18.84,19.67,21,25.66,51.77,19.65,55.23C1236.13,975.58,1228,955.46,1198.43,941.33Z"/><ellipse class="cls-8" cx="1248" cy="967" rx="20" ry="19"/><path class="cls-7" d="M1878.3,230.5c6.13-6.45,6.78-5.5,21-19.34,13.09-12.7,15.2-16.07,21.74-18.83,9.13-3.84,24.22-5.38,30.7,2.69,8.06,10.06-.37,31.14-10.23,43-6.4,7.71-12.22,10.17-35.74,20.59-44.69,19.81-50.08,22.67-52.52,19.76C1848,272.05,1863.45,246.15,1878.3,230.5Z"/><path class="cls-7" d="M1829.84,231.44c-5.87-25.63-11.13-48.55,1.71-62,8.38-8.77,23.79-12.78,33.25-6.73,18.86,12.07,6,59,3.44,68.31-1.4,5.1-10.59,38.6-21.34,37.95C1838.34,268.48,1833.32,246.61,1829.84,231.44Z"/><path class="cls-7" d="M1861,324.15c4.35,17.43,9.1,25.77,9,43-.08,9.35-.28,19.1-6.4,28.25-8.12,12.15-24.74,20.33-34.53,14.79-1.41-.8-5.2-3.31-7.67-10.76-11.49-34.63,21-129.35,32.78-126C1858.85,274.86,1852.45,290,1861,324.15Z"/><path class="cls-7" d="M1800.85,349.7c-13,13.9-28.43,30.49-38.84,25.77-9.07-4.12-12.69-23.71-7.2-37.87,5.07-13.08,15.68-15.76,40.93-30.94,36.21-21.77,45.63-35,49.27-31.76C1851.08,280.37,1828.3,320.27,1800.85,349.7Z"/><path class="cls-7" d="M1910.85,316.08c9.8,4.34,17.44,6.34,23,14.79,8.6,13,8.13,35-1.28,41.7-12.4,8.89-37.77-10.48-49.88-22.87-26.41-27-35.93-67.91-28.46-72.94C1860.6,272.47,1872.23,299,1910.85,316.08Z"/><path class="cls-7" d="M1906.28,262.57c18.41-4,59.09-12.7,67.69,4.12,6.36,12.45-5.52,37.55-22.46,44.05-8.68,3.33-14.11,0-41-8.37-39.89-12.48-51.64-12.65-52-18C1857.9,275.37,1889.77,266.12,1906.28,262.57Z"/><path class="cls-7" d="M1793.51,300.74c-18.62,2.6-59.79,8.37-67.26-9-5.52-12.88,8-37,25.31-42.31,8.87-2.69,14.07,1,40.33,11.33,39,15.35,50.7,16.37,50.71,21.77C1842.62,291.48,1810.22,298.4,1793.51,300.74Z"/><path class="cls-7" d="M1783.5,245.24c-9.6-4.83-17.13-7.21-22.33-15.93-8-13.43-6.54-35.32,3.16-41.59,12.79-8.25,37.26,12.36,48.8,25.34,25.16,28.28,32.82,69.63,25.13,74.28C1831.72,291.31,1821.3,264.25,1783.5,245.24Z"/><ellipse class="cls-2" cx="1846.9" cy="279.76" rx="25.58" ry="25.56"/><path class="cls-7" d="M999.78,114.87c3.79-3.28,4.19-2.8,13-9.82,8.1-6.45,9.4-8.16,13.45-9.56,5.64-1.95,15-2.73,19,1.37,5,5.1-.22,15.8-6.32,21.85-4,3.91-7.55,5.16-22.09,10.45-27.63,10.06-31,11.51-32.47,10C981,136,990.59,122.81,999.78,114.87Z"/><path class="cls-7" d="M969.82,115.34c-3.63-13-6.88-24.64,1-31.46,5.18-4.44,14.71-6.48,20.56-3.41,11.66,6.13,3.71,29.94,2.12,34.68-.86,2.59-6.54,19.59-13.19,19.26C975.07,134.15,972,123,969.82,115.34Z"/><path class="cls-7" d="M989.06,162.4c2.69,8.85,5.63,13.09,5.54,21.85-.05,4.75-.18,9.7-4,14.34-5,6.17-15.3,10.33-21.35,7.51a9.53,9.53,0,0,1-4.74-5.46c-7.11-17.58,13-65.66,20.26-63.95C987.75,137.38,983.8,145.09,989.06,162.4Z"/><path class="cls-7" d="M951.89,175.38c-8,7.05-17.57,15.47-24,13.08-5.61-2.09-7.85-12-4.45-19.23,3.13-6.64,9.7-8,25.3-15.7,22.39-11.05,28.21-17.79,30.47-16.13C983,140.18,968.87,160.43,951.89,175.38Z"/><path class="cls-7" d="M1019.9,158.31c6.06,2.2,10.78,3.22,14.23,7.51,5.32,6.61,5,17.74-.79,21.16-7.66,4.52-23.35-5.32-30.84-11.6-16.32-13.71-22.21-34.48-17.59-37C988.84,136.17,996,149.63,1019.9,158.31Z"/><path class="cls-7" d="M1017.08,131.14c11.38-2,36.53-6.44,41.84,2.1,3.94,6.32-3.41,19.06-13.88,22.36-5.37,1.69-8.72,0-25.34-4.25-24.66-6.34-31.93-6.42-32.16-9.16C987.16,137.64,1006.87,133,1017.08,131.14Z"/><path class="cls-7" d="M947.36,150.52c-11.52,1.32-37,4.25-41.58-4.59-3.42-6.53,4.93-18.81,15.64-21.48,5.48-1.36,8.7.51,24.94,5.76,24.09,7.79,31.34,8.31,31.35,11C977.72,145.82,957.68,149.33,947.36,150.52Z"/><path class="cls-7" d="M941.17,122.35c-5.94-2.45-10.59-3.66-13.81-8.09-5-6.82-4-17.93,2-21.11,7.91-4.19,23,6.28,30.16,12.86C975,120.37,979.77,141.36,975,143.72,971,145.73,964.54,132,941.17,122.35Z"/><ellipse class="cls-2" cx="980.36" cy="139.87" rx="15.82" ry="12.97"/></g><g id="Orange"><path class="cls-3" d="M1814.12,918.48c2.8-2.87,3.1-2.45,9.62-8.61,6-5.66,7-7.16,10-8.39,4.17-1.72,11.07-2.41,14,1.19,3.68,4.49-.17,13.88-4.68,19.18-2.93,3.44-5.59,4.54-16.35,9.18-20.44,8.83-22.9,10.1-24,8.8C1800.24,937,1807.32,925.45,1814.12,918.48Z"/><path class="cls-3" d="M1792,918.9c-2.68-11.42-5.09-21.63.78-27.61,3.84-3.91,10.89-5.7,15.21-3,8.63,5.38,2.74,26.28,1.57,30.44-.64,2.27-4.84,17.2-9.76,16.91C1795.84,935.41,1793.55,925.66,1792,918.9Z"/><path class="cls-3" d="M1806.19,960.21c2,7.77,4.16,11.49,4.09,19.18,0,4.16-.13,8.51-2.92,12.59-3.72,5.41-11.32,9.06-15.8,6.59-.64-.36-2.38-1.48-3.51-4.8-5.25-15.43,9.62-57.64,15-56.13C1805.22,938.25,1802.3,945,1806.19,960.21Z"/><path class="cls-3" d="M1778.69,971.6c-5.93,6.19-13,13.58-17.76,11.48-4.15-1.84-5.81-10.57-3.3-16.88,2.32-5.82,7.18-7,18.72-13.78,16.57-9.7,20.88-15.62,22.54-14.15C1801.67,940.7,1791.25,958.48,1778.69,971.6Z"/><path class="cls-3" d="M1829,956.61c4.48,1.94,8,2.83,10.53,6.6,3.93,5.8,3.71,15.57-.59,18.58-5.67,4-17.27-4.67-22.82-10.19-12.07-12-16.43-30.26-13-32.51C1806,937.18,1811.34,949,1829,956.61Z"/><path class="cls-3" d="M1826.92,932.77c8.42-1.76,27-5.66,31,1.84,2.9,5.55-2.53,16.73-10.28,19.63-4,1.48-6.45,0-18.74-3.73-18.25-5.57-23.63-5.64-23.79-8C1804.78,938.48,1819.36,934.35,1826.92,932.77Z"/><path class="cls-3" d="M1775.34,949.78c-8.52,1.16-27.35,3.73-30.77-4-2.52-5.74,3.65-16.51,11.58-18.85,4-1.2,6.44.44,18.45,5.05,17.82,6.84,23.18,7.29,23.19,9.7C1797.8,945.65,1783,948.74,1775.34,949.78Z"/><path class="cls-3" d="M1770.76,925.05c-4.39-2.15-7.84-3.21-10.22-7.1-3.66-6-3-15.74,1.45-18.53,5.85-3.68,17,5.51,22.32,11.29,11.51,12.6,15,31,11.5,33.1C1792.81,945.58,1788.05,933.52,1770.76,925.05Z"/><ellipse class="cls-4" cx="1799.75" cy="940.43" rx="11.7" ry="11.39"/><path class="cls-3" d="M1751.66,385c5.07-1.14,5.11-.48,16.55-2.55,10.51-1.9,12.6-2.85,16.75-2.07,5.79,1.08,13.9,5.19,14.71,11.16,1,7.43-9.7,14.86-18.33,17.42-5.59,1.66-9.29,1-24.37-1.58-28.67-4.83-32.26-5.19-32.61-7.37C1723.6,395.22,1739.36,387.74,1751.66,385Z"/><path class="cls-3" d="M1726.85,369.86c4.86-14.21,9.21-26.93,19.8-29.26,6.92-1.53,15.95,1.49,18.88,7.45,5.85,11.86-15,30.3-19.14,34-2.26,2-17.15,15.16-22.39,11.4C1719.83,390.42,1724,378.28,1726.85,369.86Z"/><path class="cls-3" d="M1714.27,424.47c-3.13,9.78-3.28,15.32-8.63,23.58-2.89,4.47-6,9.1-11.86,11.54-7.83,3.23-18.74,1.83-22-4-.47-.84-1.62-3.27-.59-7.65,4.77-20.35,50.16-55.47,55.08-50.07C1728.26,400.08,1720.38,405.32,1714.27,424.47Z"/><path class="cls-3" d="M1676,417.44c-10.8,2.52-23.7,5.53-27.52-.08-3.33-4.9.82-15.49,7.93-20.54,6.56-4.66,12.75-2.54,30.16-1.73,25,1.17,33.8-2.19,34.64.56C1722.65,400.23,1698.93,412.1,1676,417.44Z"/><path class="cls-3" d="M1742,436.62c3.63,5.24,6.88,8.65,7.13,14.51.37,9-6.58,19.43-13.39,19.65-9,.29-15.91-17.18-18.25-27-5.11-21.47,2.57-44.22,7.89-44.24C1729.88,399.49,1727.66,416,1742,436.62Z"/><path class="cls-3" d="M1756,409.4c10.52,4,33.78,12.89,33,23.74-.59,8-14.27,16.29-24.83,14-5.41-1.19-7.15-4.52-18.18-17.2-16.36-18.83-22.26-22.69-20.8-25.4C1727.62,400,1746.57,405.81,1756,409.4Z"/><path class="cls-3" d="M1687.29,391.53c-10.22-4.74-32.8-15.19-31.26-26,1.14-8,15.36-15.26,25.73-12.22,5.31,1.56,6.82,5,16.94,18.42,15,19.91,20.65,24.16,19,26.76C1715,402.86,1696.46,395.77,1687.29,391.53Z"/><path class="cls-3" d="M1699.19,361.61c-3.38-5.41-6.47-9-6.43-14.84.06-9,7.49-19.09,14.31-19,9,.14,15.07,17.92,16.94,27.87,4.09,21.69-4.67,44-10,43.81C1709.5,399.27,1712.51,382.9,1699.19,361.61Z"/><ellipse class="cls-7" cx="1720.71" cy="398.59" rx="14.57" ry="15.33" transform="translate(461.64 1637.33) rotate(-57.58)"/><path class="cls-3" d="M252,441.47c3.67-3.68,4.06-3.14,12.6-11,7.85-7.25,9.11-9.16,13-10.74,5.47-2.19,14.51-3.07,18.4,1.54,4.83,5.73-.23,17.74-6.14,24.53-3.83,4.4-7.32,5.79-21.42,11.74-26.78,11.29-30,12.91-31.47,11.26C233.8,465.15,243.08,450.38,252,441.47Z"/><path class="cls-3" d="M222.94,442c-3.52-14.61-6.67-27.67,1-35.32,5-5,14.26-7.28,19.94-3.83,11.3,6.88,3.59,33.61,2,38.93-.84,2.91-6.34,22-12.79,21.63C228,463.11,225,450.65,222.94,442Z"/><path class="cls-3" d="M241.6,494.84c2.6,9.94,5.45,14.69,5.36,24.53-.05,5.33-.17,10.89-3.83,16.1-4.87,6.93-14.84,11.59-20.7,8.43-.85-.45-3.12-1.88-4.6-6.13-6.89-19.74,12.6-73.72,19.65-71.8C240.33,466.75,236.49,475.4,241.6,494.84Z"/><path class="cls-3" d="M205.56,509.41c-7.76,7.92-17,17.37-23.27,14.68-5.44-2.34-7.61-13.51-4.32-21.58,3-7.46,9.4-9,24.53-17.64,21.7-12.4,27.35-20,29.53-18.1C235.67,469.89,222,492.63,205.56,509.41Z"/><path class="cls-3" d="M271.49,490.24c5.88,2.48,10.45,3.62,13.8,8.43,5.16,7.42,4.87,19.93-.76,23.77-7.44,5.06-22.64-6-29.9-13C238.8,494,233.09,470.7,237.57,467.83,241.38,465.39,248.35,480.5,271.49,490.24Z"/><path class="cls-3" d="M268.76,459.74c11-2.25,35.41-7.23,40.57,2.35,3.81,7.1-3.32,21.4-13.47,25.11-5.2,1.9-8.45,0-24.56-4.77-23.91-7.12-31-7.21-31.18-10.28C239.75,467,258.86,461.77,268.76,459.74Z"/><path class="cls-3" d="M201.16,481.5c-11.16,1.48-35.83,4.77-40.31-5.15-3.31-7.34,4.79-21.12,15.17-24.12,5.32-1.53,8.44.57,24.18,6.46,23.36,8.75,30.38,9.33,30.39,12.41C230.6,476.22,211.18,480.16,201.16,481.5Z"/><path class="cls-3" d="M195.17,449.87c-5.76-2.75-10.27-4.11-13.39-9.08-4.8-7.66-3.92-20.14,1.9-23.7,7.66-4.71,22.33,7,29.24,14.43C228,447.64,232.59,471.21,228,473.86,224.06,476.12,217.82,460.7,195.17,449.87Z"/><ellipse class="cls-8" cx="233.16" cy="469.54" rx="15.33" ry="14.57"/><path class="cls-3" d="M1626.69,753.9c3.67-3.68,4.06-3.14,12.61-11,7.85-7.24,9.11-9.16,13-10.73,5.47-2.19,14.52-3.07,18.4,1.53,4.83,5.73-.22,17.75-6.13,24.53-3.84,4.4-7.33,5.8-21.42,11.74-26.79,11.29-30,12.92-31.48,11.26C1608.5,777.58,1617.79,762.82,1626.69,753.9Z"/><path class="cls-3" d="M1597.65,754.44c-3.53-14.61-6.68-27.67,1-35.32,5-5,14.26-7.29,19.93-3.84,11.3,6.88,3.59,33.62,2.06,38.94-.84,2.9-6.35,22-12.79,21.62C1602.74,775.55,1599.73,763.08,1597.65,754.44Z"/><path class="cls-3" d="M1616.3,807.28c2.61,9.93,5.45,14.69,5.37,24.53-.05,5.32-.17,10.88-3.84,16.1-4.87,6.92-14.83,11.59-20.7,8.43-.84-.46-3.11-1.89-4.6-6.13-6.88-19.74,12.6-73.73,19.65-71.81C1615,779.18,1611.2,787.84,1616.3,807.28Z"/><path class="cls-3" d="M1580.27,821.84c-7.77,7.92-17,17.38-23.28,14.69-5.44-2.35-7.61-13.52-4.32-21.59,3-7.45,9.4-9,24.53-17.63,21.71-12.41,27.35-20,29.54-18.1C1610.38,782.32,1596.72,805.06,1580.27,821.84Z"/><path class="cls-3" d="M1646.2,802.68c5.87,2.47,10.45,3.61,13.8,8.43,5.15,7.42,4.87,19.92-.77,23.76-7.43,5.07-22.64-6-29.9-13-15.83-15.38-21.53-38.7-17.06-41.57C1616.08,777.82,1623.05,792.93,1646.2,802.68Z"/><path class="cls-3" d="M1643.46,772.18c11-2.26,35.42-7.24,40.57,2.35,3.81,7.09-3.31,21.4-13.46,25.11-5.2,1.89-8.46,0-24.57-4.78-23.91-7.11-31-7.21-31.17-10.28C1614.46,779.47,1633.56,774.2,1643.46,772.18Z"/><path class="cls-3" d="M1575.87,793.93c-11.16,1.49-35.83,4.77-40.31-5.15-3.31-7.34,4.78-21.12,15.16-24.11,5.32-1.54,8.44.56,24.18,6.46,23.36,8.74,30.38,9.33,30.39,12.4C1605.3,788.66,1585.88,792.6,1575.87,793.93Z"/><path class="cls-3" d="M1569.87,762.3c-5.75-2.75-10.27-4.11-13.38-9.08-4.8-7.65-3.92-20.13,1.89-23.7,7.67-4.71,22.33,7,29.25,14.44,15.08,16.12,19.67,39.69,15.06,42.34C1598.77,788.56,1592.53,773.13,1569.87,762.3Z"/><ellipse class="cls-5" cx="1607.87" cy="781.98" rx="15.33" ry="14.57"/><path class="cls-3" d="M202.69,157.9c3.67-3.68,4.06-3.14,12.61-11,7.85-7.24,9.11-9.16,13-10.73,5.47-2.19,14.52-3.07,18.4,1.53,4.83,5.73-.22,17.75-6.13,24.53-3.84,4.4-7.33,5.8-21.42,11.74-26.79,11.29-30,12.92-31.48,11.26C184.5,181.58,193.79,166.82,202.69,157.9Z"/><path class="cls-3" d="M173.65,158.44c-3.53-14.61-6.68-27.67,1-35.32,5-5,14.26-7.29,19.93-3.84,11.3,6.88,3.59,33.62,2.06,38.94-.84,2.9-6.35,22-12.79,21.62C178.74,179.55,175.73,167.08,173.65,158.44Z"/><path class="cls-3" d="M192.3,211.28c2.61,9.93,5.45,14.69,5.37,24.53,0,5.32-.17,10.88-3.84,16.1-4.87,6.92-14.83,11.59-20.7,8.43-.84-.46-3.11-1.89-4.6-6.13-6.88-19.74,12.6-73.73,19.65-71.81C191,183.18,187.2,191.84,192.3,211.28Z"/><path class="cls-3" d="M156.27,225.84c-7.77,7.92-17,17.38-23.28,14.69-5.44-2.35-7.61-13.52-4.32-21.59,3-7.45,9.4-9,24.53-17.63,21.71-12.41,27.35-20,29.54-18.1C186.38,186.32,172.72,209.06,156.27,225.84Z"/><path class="cls-3" d="M222.2,206.68c5.87,2.47,10.45,3.61,13.8,8.43,5.15,7.42,4.87,19.92-.77,23.76-7.43,5.07-22.64-6-29.9-13-15.83-15.38-21.53-38.7-17.06-41.57C192.08,181.82,199.05,196.93,222.2,206.68Z"/><path class="cls-3" d="M219.46,176.18c11-2.26,35.42-7.24,40.57,2.35,3.81,7.09-3.31,21.4-13.46,25.11-5.2,1.89-8.46,0-24.57-4.78-23.91-7.11-30.95-7.21-31.17-10.28C190.46,183.47,209.56,178.2,219.46,176.18Z"/><path class="cls-3" d="M151.87,197.93c-11.16,1.49-35.83,4.77-40.31-5.15-3.31-7.34,4.78-21.12,15.16-24.11,5.32-1.54,8.44.56,24.18,6.46,23.36,8.74,30.38,9.33,30.39,12.4C181.3,192.66,161.88,196.6,151.87,197.93Z"/><path class="cls-3" d="M145.87,166.3c-5.75-2.75-10.27-4.11-13.38-9.08-4.8-7.65-3.92-20.13,1.89-23.7,7.67-4.71,22.33,7,29.25,14.44,15.08,16.12,19.67,39.69,15.06,42.34C174.77,192.56,168.53,177.13,145.87,166.3Z"/><ellipse class="cls-6" cx="183.87" cy="185.98" rx="15.33" ry="14.57"/><path class="cls-3" d="M1377,789.46c4.64-4.7,5.13-4,15.92-14.09,9.92-9.25,11.51-11.7,16.46-13.71,6.91-2.8,18.33-3.92,23.23,2,6.11,7.33-.27,22.67-7.74,31.35-4.84,5.62-9.25,7.4-27,15-33.83,14.43-37.91,16.5-39.75,14.38C1354.06,819.72,1365.78,800.85,1377,789.46Z"/><path class="cls-3" d="M1340.35,790.14c-4.45-18.67-8.43-35.36,1.29-45.13,6.34-6.39,18-9.31,25.17-4.9,14.27,8.79,4.53,42.95,2.6,49.75-1.06,3.71-8,28.11-16.15,27.64C1346.78,817.12,1343,801.19,1340.35,790.14Z"/><path class="cls-3" d="M1363.9,857.66c3.3,12.7,6.89,18.77,6.78,31.35-.06,6.8-.21,13.91-4.84,20.57-6.15,8.85-18.73,14.81-26.14,10.77-1.06-.58-3.93-2.41-5.8-7.83-8.7-25.22,15.91-94.21,24.81-91.75C1362.31,821.76,1357.46,832.82,1363.9,857.66Z"/><path class="cls-3" d="M1318.41,876.27c-9.81,10.12-21.52,22.2-29.4,18.77-6.87-3-9.61-17.27-5.45-27.59,3.84-9.52,11.87-11.47,31-22.53,27.41-15.85,34.54-25.52,37.3-23.13C1356.42,825.77,1339.18,854.83,1318.41,876.27Z"/><path class="cls-3" d="M1401.66,851.78c7.42,3.16,13.19,4.62,17.42,10.78,6.51,9.48,6.15,25.46-1,30.36-9.38,6.48-28.58-7.63-37.75-16.65-20-19.66-27.19-49.46-21.54-53.12C1363.63,820,1372.43,839.33,1401.66,851.78Z"/><path class="cls-3" d="M1398.2,812.81c13.93-2.88,44.72-9.25,51.23,3,4.81,9.06-4.18,27.34-17,32.08-6.57,2.42-10.68,0-31-6.1-30.19-9.09-39.09-9.21-39.37-13.14C1361.58,822.13,1385.7,815.39,1398.2,812.81Z"/><path class="cls-3" d="M1312.85,840.61c-14.1,1.9-45.25,6.1-50.9-6.58-4.18-9.38,6-27,19.15-30.82,6.71-2,10.65.72,30.53,8.26,29.5,11.18,38.36,11.92,38.37,15.85C1350,833.87,1325.49,838.9,1312.85,840.61Z"/><path class="cls-3" d="M1305.28,800.19c-7.27-3.51-13-5.25-16.9-11.6-6.06-9.79-5-25.73,2.39-30.29,9.68-6,28.19,9,36.93,18.45,19,20.6,24.84,50.71,19,54.1C1341.77,833.74,1333.89,814,1305.28,800.19Z"/><ellipse class="cls-2" cx="1353.26" cy="825.33" rx="19.36" ry="18.61"/><path class="cls-3" d="M301.4,867.09c4.79-8.06,5.7-7.27,17.15-24.82,10.52-16.11,11.88-20,18-24.49,8.57-6.2,23.93-11.63,32.68-5.19,10.9,8,7.32,31.34,0,45.83-4.76,9.39-10.22,13.35-32.17,29.86-41.71,31.37-46.62,35.62-49.89,33.33C280,916.59,289.78,886.61,301.4,867.09Z"/><path class="cls-3" d="M251.09,880.49c-12.47-24.21-23.62-45.86-13.55-62.64,6.57-10.94,21.65-18.94,33-15.3,22.65,7.27,20.84,57.66,20.48,67.68-.2,5.48-1.49,41.46-12.87,43.57C269.12,915.48,258.47,894.82,251.09,880.49Z"/><path class="cls-3" d="M306.49,965.53c8.85,16.38,15.86,23.53,20,40.89,2.23,9.4,4.43,19.25.31,30-5.46,14.29-20.78,26.77-32.35,23.73-1.67-.44-6.25-2-10.67-8.83-20.55-31.8-10.08-135.23,3-134.86C292.09,916.6,289.17,933.49,306.49,965.53Z"/><path class="cls-3" d="M250.11,1006.63C240,1023.92,228,1044.54,216,1042.48c-10.48-1.8-19.11-20.54-16.88-36.16,2.05-14.42,12.46-19.85,35-41.57,32.38-31.16,38.92-46.9,43.53-44.55C285.35,924.13,271.46,970,250.11,1006.63Z"/><path class="cls-3" d="M356.52,944.6c11.3,1.84,19.75,1.89,27.67,8.93,12.19,10.86,17.12,33,9,42.18-10.73,12.11-42-.81-57.68-10.12-34.22-20.31-54.27-58.92-47.74-65.89C293.33,913.76,312,937.38,356.52,944.6Z"/><path class="cls-3" d="M338.51,892.08c18.22-8.71,58.49-27.94,71.62-13.27,9.71,10.86,3.53,39.1-12.53,50-8.22,5.57-14.7,3.66-44.82,2.13-44.69-2.27-57,.59-58.71-4.73C291.22,917.37,322.17,899.88,338.51,892.08Z"/><path class="cls-3" d="M230.34,959.38c-18.78,7.4-60.28,23.77-72.38,8.22-9-11.5-.84-39.24,15.93-49,8.58-5,14.92-2.63,44.87,1C263.2,925,275.67,923,277,928.45,279.27,937.46,247.19,952.73,230.34,959.38Z"/><path class="cls-3" d="M206.17,906.25c-11.2-2.37-19.65-2.83-27.23-10.24-11.67-11.43-15.55-33.77-7-42.55,11.3-11.58,41.91,2.82,57.16,12.88,33.24,21.92,51.45,61.44,44.59,68.09C267.86,940.09,250.3,915.61,206.17,906.25Z"/><ellipse class="cls-2" cx="280.83" cy="924.6" rx="27.48" ry="26.42" transform="translate(-213.15 94.1) rotate(-13.85)"/></g></g></svg>