<svg xmlns="http://www.w3.org/2000/svg" width="234.32" height="246.77" viewBox="0 0 234.32 246.77"><defs><style>.cls-1{fill:#00ba60;}.cls-2{fill:#ffb500;}</style></defs><g id="_1" data-name="1"><path class="cls-1" d="M110.21,71.31c1-8.49,2-8.19,4.87-27.08,2.65-17.35,2.31-21.11,5.69-27.15C125.47,8.67,136-1.72,145.54.24c11.86,2.44,17.53,23.07,16.87,37.85C162,47.67,159,53,147.14,75.11c-22.49,41.93-24.94,47.32-28.45,46.68C111,120.4,107.92,91.9,110.21,71.31Z"/><path class="cls-1" d="M75.31,99.18C56.21,84,39.12,70.39,41.16,52.67c1.33-11.56,10.7-24,21.32-25.32,21.18-2.7,38.27,39.6,41.67,48,1.85,4.6,14.06,34.81,5.55,40.93C102.92,121.15,86.62,108.18,75.31,99.18Z"/><path class="cls-1" d="M151.88,148.12c13.27,10.12,21.63,13.33,31.39,26.09,5.29,6.9,10.71,14.19,11.32,24.64.8,13.9-7.11,30.09-17.68,32-1.53.27-5.83.75-12-3.19-28.5-18.37-58.06-107.79-47.23-112.52C122.1,113.25,125.94,128.32,151.88,148.12Z"/><path class="cls-1" d="M121,203.72c-1.87,18.14-4.09,39.79-14.66,42.71-9.23,2.54-23.18-9.61-27.12-23.37-3.64-12.7,2.86-21.17,13.29-47.78,15-38.17,14.5-53.69,19.13-53.51C119.37,122.06,124.94,165.3,121,203.72Z"/><path class="cls-1" d="M185,111.62c9.91-2.82,16.83-6,25.89-3.26,14,4.28,26.14,20.67,22.88,31.38-4.31,14.12-34.58,15.46-50.83,13.8-35.43-3.62-66-27.8-63.26-36.07C122.06,110.43,146,122.75,185,111.62Z"/><path class="cls-1" d="M151,75.16C162.64,61,188.43,29.62,204.56,36.7c11.93,5.23,17.29,30.93,8.19,46.09-4.66,7.75-10.66,8.67-35.81,19-37.33,15.3-46.33,22.38-49.69,18.66C121.66,114.22,140.5,87.89,151,75.16Z"/><path class="cls-1" d="M87.44,172.29c-12.61,13.33-40.47,42.8-56.08,34.6-11.54-6.06-15.15-32.07-5-46.55,5.17-7.41,11.22-7.9,37-16.41,38.28-12.63,47.73-19.07,50.83-15.11C119.32,135.4,98.74,160.34,87.44,172.29Z"/><path class="cls-1" d="M48.12,137.71c-10,2.35-17.08,5.22-26,2C8.37,134.76-3,117.81.73,107.27,5.68,93.37,36,93.5,52.14,95.94c35.22,5.33,64.66,31,61.51,39.09C111,142,87.61,128.49,48.12,137.71Z"/><ellipse class="cls-2" cx="115.85" cy="124.18" rx="24.96" ry="23.73" transform="translate(-53.84 131.02) rotate(-49.29)"/></g></svg>