<svg xmlns="http://www.w3.org/2000/svg" width="264.45" height="270.31" viewBox="0 0 264.45 270.31"><defs><style>.cls-1{fill:#00ba60;}.cls-2{fill:#ffa7d7;}</style></defs><g id="_1" data-name="1"><path class="cls-1" d="M124.38,78.11c1.07-9.3,2.24-9,5.49-29.66,3-19,2.61-23.12,6.42-29.74,5.32-9.22,17.22-20.59,28-18.45,13.38,2.67,19.78,25.27,19,41.46-.48,10.5-3.87,16.38-17.23,40.55-25.39,45.93-28.15,51.84-32.11,51.14C125.28,131.88,121.79,100.66,124.38,78.11Z"/><path class="cls-1" d="M85,108.64C63.43,92,44.15,77.1,46.45,57.7,48,45,58.53,31.45,70.52,30c23.89-3,43.18,43.38,47,52.59,2.09,5,15.87,38.13,6.26,44.83C116.16,132.71,97.76,118.5,85,108.64Z"/><path class="cls-1" d="M171.41,162.25c15,11.09,24.41,14.6,35.43,28.58,6,7.56,12.08,15.54,12.77,27,.9,15.22-8,33-20,35.08-1.72.31-6.58.83-13.5-3.49-32.16-20.12-65.52-118.08-53.3-123.26C137.8,124.06,142.13,140.56,171.41,162.25Z"/><path class="cls-1" d="M136.55,223.15c-2.1,19.88-4.61,43.59-16.54,46.79-10.41,2.78-26.15-10.53-30.6-25.6-4.11-13.91,3.23-23.2,15-52.34,16.89-41.81,16.37-58.81,21.6-58.62C134.71,133.7,141,181.07,136.55,223.15Z"/><path class="cls-1" d="M208.81,122.27c11.18-3.1,19-6.61,29.22-3.57,15.75,4.69,29.5,22.64,25.82,34.37-4.86,15.47-39,16.93-57.37,15.12-40-4-74.52-30.45-71.39-39.51C137.75,121,164.79,134.46,208.81,122.27Z"/><path class="cls-1" d="M170.38,82.33c13.17-15.54,42.28-49.88,60.48-42.13,13.46,5.73,19.51,33.88,9.24,50.48-5.26,8.5-12,9.5-40.41,20.79-42.14,16.76-52.28,24.52-56.07,20.43C137.31,125.11,158.56,96.27,170.38,82.33Z"/><path class="cls-1" d="M98.68,188.73C84.45,203.33,53,235.6,35.4,226.63c-13-6.64-17.1-35.14-5.7-51,5.84-8.12,12.67-8.65,41.77-18,43.2-13.84,53.87-20.89,57.37-16.55C134.66,148.31,111.44,175.63,98.68,188.73Z"/><path class="cls-1" d="M54.31,150.85C43,153.42,35,156.56,25,153,9.45,147.62-3.42,129.05.82,117.5c5.59-15.22,39.8-15.08,58-12.41,39.74,5.84,73,33.93,69.41,42.83C125.23,155.5,98.87,140.74,54.31,150.85Z"/><ellipse class="cls-2" cx="130.75" cy="136.03" rx="27.81" ry="26.33" transform="translate(-52.97 93.05) rotate(-32.97)"/></g></svg>