<svg xmlns="http://www.w3.org/2000/svg" width="273" height="260" viewBox="0 0 273 260"><defs><style>.cls-1{fill:#056cf2;}.cls-2{fill:#00ba60;}</style></defs><g id="_1" data-name="1"><path class="cls-1" d="M126.14,74.84c1.09-9,2.27-8.64,5.57-28.55,3-18.28,2.65-22.24,6.51-28.61,5.39-8.87,17.46-19.81,28.36-17.75,13.57,2.57,20,24.31,19.3,39.89-.48,10.1-3.92,15.76-17.47,39-25.75,44.19-28.55,49.88-32.57,49.21C127.05,126.57,123.52,96.53,126.14,74.84Z"/><path class="cls-1" d="M86.19,104.21c-21.86-16-41.41-30.34-39.08-49C48.63,43,59.36,29.94,71.52,28.51c24.23-2.85,43.79,41.73,47.68,50.6,2.13,4.85,16.09,36.69,6.35,43.13C117.8,127.37,99.14,113.7,86.19,104.21Z"/><path class="cls-1" d="M173.84,155.79c15.18,10.67,24.75,14.06,35.92,27.5,6.05,7.28,12.26,15,13,26,.92,14.64-8.13,31.71-20.23,33.75-1.75.29-6.68.8-13.69-3.36-32.62-19.36-66.46-113.61-54.06-118.6C139.75,119,144.14,134.92,173.84,155.79Z"/><path class="cls-1" d="M138.49,214.4c-2.14,19.12-4.68,41.94-16.79,45-10.55,2.68-26.52-10.13-31-24.63-4.16-13.38,3.28-22.32,15.21-50.36,17.12-40.23,16.6-56.59,21.9-56.4C136.62,128.32,143,173.9,138.49,214.4Z"/><path class="cls-1" d="M211.77,117.32c11.33-3,19.26-6.36,29.63-3.43,16,4.51,29.92,21.78,26.18,33.07-4.93,14.88-39.58,16.3-58.18,14.55-40.55-3.82-75.57-29.3-72.4-38C139.7,116.07,167.12,129.06,211.77,117.32Z"/><path class="cls-1" d="M172.79,78.9c13.36-15,42.88-48,61.34-40.54,13.65,5.51,19.78,32.6,9.37,48.57-5.34,8.18-12.2,9.14-41,20-42.73,16.13-53,23.59-56.86,19.67C139.25,120.06,160.81,92.31,172.79,78.9Z"/><path class="cls-1" d="M100.07,181.27c-14.42,14-46.31,45.1-64.17,36.47-13.22-6.39-17.34-33.81-5.77-49.07,5.92-7.81,12.83-8.33,42.35-17.29,43.82-13.32,54.63-20.1,58.18-15.93C136.56,142.38,113,168.67,100.07,181.27Z"/><path class="cls-1" d="M55.08,144.83c-11.47,2.47-19.56,5.49-29.77,2.11C9.58,141.72-3.47,123.84.83,112.74,6.51,98.09,41.19,98.22,59.68,100.8c40.31,5.62,74,32.64,70.4,41.2C127,149.3,100.27,135.1,55.08,144.83Z"/><ellipse class="cls-2" cx="132.86" cy="129.2" rx="27.96" ry="25.55" transform="translate(-31.72 44.01) rotate(-16.83)"/></g></svg>