<svg xmlns="http://www.w3.org/2000/svg" width="351" height="369" viewBox="0 0 351 369"><defs><style>.cls-1{fill:#00ba60;}.cls-2{fill:#ff6d00;}</style></defs><g id="_1" data-name="1"><path class="cls-1" d="M165.34,106.69c1.41-12.7,3-12.25,7.27-40.51,4-26,3.46-31.58,8.51-40.61C188.16,13,203.94-2.55,218.18.38,235.92,4,244.4,34.88,243.42,57c-.64,14.33-5.13,22.36-22.84,55.37-33.65,62.73-37.32,70.8-42.57,69.84C166.52,180.13,161.9,137.49,165.34,106.69Z"/><path class="cls-1" d="M113.12,148.39C84.54,125.65,59,105.32,62,78.81,64,61.51,78,43,93.93,40.93c31.68-4,57.25,59.24,62.33,71.83,2.78,6.88,21,52.07,8.3,61.21C154.43,181.25,130,161.85,113.12,148.39Z"/><path class="cls-1" d="M227.67,221.6c19.85,15.14,32.36,19.94,47,39,7.91,10.32,16,21.22,16.93,36.86,1.2,20.79-10.63,45-26.45,47.91-2.28.42-8.72,1.13-17.89-4.77-42.64-27.47-86.86-161.25-70.66-168.33C183.11,169.44,188.86,192,227.67,221.6Z"/><path class="cls-1" d="M181.47,304.77c-2.79,27.14-6.11,59.54-21.94,63.9-13.8,3.8-34.66-14.39-40.56-35-5.44-19,4.28-31.68,19.88-71.48,22.38-57.1,21.69-80.32,28.62-80.06C179,182.61,187.37,247.29,181.47,304.77Z"/><path class="cls-1" d="M277.25,167c14.82-4.23,25.17-9,38.73-4.88,20.88,6.4,39.1,30.92,34.22,46.94-6.44,21.13-51.73,23.13-76,20.65-53-5.41-98.78-41.59-94.64-54C183.05,165.21,218.9,183.65,277.25,167Z"/><path class="cls-1" d="M226.3,112.46c17.46-21.23,56.05-68.13,80.17-57.55,17.85,7.83,25.87,46.28,12.25,69-7,11.61-15.94,13-53.57,28.39-55.84,22.88-69.3,33.48-74.32,27.91C182.47,170.88,210.64,131.49,226.3,112.46Z"/><path class="cls-1" d="M131.26,257.76c-18.85,19.94-60.53,64-83.88,51.76-17.27-9.07-22.67-48-7.55-69.64,7.74-11.09,16.79-11.82,55.37-24.55,57.26-18.9,71.4-28.52,76-22.61C179,202.56,148.18,239.87,131.26,257.76Z"/><path class="cls-1" d="M72.45,206c-15,3.51-25.56,7.8-38.91,3-20.56-7.4-37.62-32.77-32-48.54C9,139.69,54.3,139.89,78.47,143.54c52.68,8,96.73,46.33,92,58.48C166.46,212.38,131.52,192.23,72.45,206Z"/><ellipse class="cls-1" cx="181.51" cy="184.72" rx="62.69" ry="59.6" transform="translate(-76.9 201.84) rotate(-49.29)"/><path class="cls-2" d="M140.36,205.52l-1-.08-1.19-.06-1.54,0c-1,0-2.05,0-3.25.11s-2.48.21-3.82.4a55.86,55.86,0,0,0,1-5.56c.24-1.79.41-3.38.53-4.77.13-1.63.21-3.16.23-4.59q0-.91,0-2c0-.63-.06-1.35-.1-2.18s-.09-1.72-.16-2.68c-.61.58-1.22,1.21-1.82,1.88s-1.19,1.37-1.75,2.09-1.09,1.46-1.57,2.2a21,21,0,0,0-1.28,2.19l.46-14.93c1.23.15,2.52.26,3.88.34s2.75.11,4.17.11q3,0,6-.21c2-.15,3.82-.35,5.48-.63l.73,15.08a41.66,41.66,0,0,0-3.12-5,20.7,20.7,0,0,0-3.64-3.93c-.1.88-.18,1.81-.22,2.78s-.07,2-.07,3q0,2,.12,4.05c.09,1.39.21,2.78.37,4.19s.38,2.81.64,4.2S140,204.19,140.36,205.52Z"/><path class="cls-2" d="M163.58,187.44a9.83,9.83,0,0,1-.42,2.85,6,6,0,0,1-1.47,2.46,7.56,7.56,0,0,1-2.85,1.72,13.54,13.54,0,0,1-4.54.64,4.41,4.41,0,0,0,.4,1.6,3.4,3.4,0,0,0,.77,1,3.2,3.2,0,0,0,1,.58,5.14,5.14,0,0,0,.94.28,5.91,5.91,0,0,0,1,.08,6.32,6.32,0,0,0,2.17-.63,4.25,4.25,0,0,0,.8-.5,4.09,4.09,0,0,0,.72-.72,3.68,3.68,0,0,0,.52-1,4.13,4.13,0,0,0,.25-1.24,12.83,12.83,0,0,1,.71,2.38,11,11,0,0,1,.21,2.06,8.13,8.13,0,0,1-.64,3.23,7.68,7.68,0,0,1-1.75,2.55,8,8,0,0,1-2.64,1.67,9.33,9.33,0,0,1-3.33.59,9.68,9.68,0,0,1-3.39-.6,7.7,7.7,0,0,1-2.89-1.93,9.5,9.5,0,0,1-2-3.42,15.14,15.14,0,0,1-.76-5.12,16.6,16.6,0,0,1,.94-5.78,12.78,12.78,0,0,1,2.52-4.23,10.72,10.72,0,0,1,3.66-2.6,11.05,11.05,0,0,1,4.37-.89,9.23,9.23,0,0,1,2.18.26,5.12,5.12,0,0,1,1.83.84,4.13,4.13,0,0,1,1.26,1.51A5.06,5.06,0,0,1,163.58,187.44Zm-9.36,4.45a5.12,5.12,0,0,0,1.27-.23,5.91,5.91,0,0,0,1.37-.57,4.07,4.07,0,0,0,1.09-.92,1.94,1.94,0,0,0,.43-1.25.9.9,0,0,0-.31-.72,1.13,1.13,0,0,0-.8-.28,2,2,0,0,0-1.22.39,3.75,3.75,0,0,0-.92,1,5.47,5.47,0,0,0-.61,1.29A5.82,5.82,0,0,0,154.22,191.89Z"/><path class="cls-2" d="M194.38,206a10.07,10.07,0,0,0-1.28-.13c-.45,0-.91,0-1.39,0s-1.18,0-1.76,0-1.16.08-1.72.13-1.1.11-1.6.18l-1.37.17a23.72,23.72,0,0,0,.46-2.45c.14-1,.25-2,.34-3.19s.16-2.38.21-3.67.06-2.58.06-3.89c0-.2,0-.46,0-.78s0-.68,0-1.06-.07-.76-.13-1.14a6.2,6.2,0,0,0-.26-1.05,2.38,2.38,0,0,0-.41-.76.76.76,0,0,0-.61-.29,1,1,0,0,0-.76.49,6.17,6.17,0,0,0-.73,1.31c0,.73.08,1.59.1,2.58s.05,2,.06,3.12,0,2.15,0,3.2,0,2,0,2.83,0,1.51,0,2a2.55,2.55,0,0,0,.06.77l-1.61-.22a14.52,14.52,0,0,0-1.48-.08,16.32,16.32,0,0,0-2.11.16c-.75.11-1.66.27-2.71.49.17-1.24.32-2.51.47-3.83q.17-1.69.33-3.75t.15-4c0-.2,0-.46,0-.78s0-.68,0-1.06-.07-.76-.13-1.14a5.38,5.38,0,0,0-.26-1.05,2.39,2.39,0,0,0-.42-.76.78.78,0,0,0-.62-.29,1.49,1.49,0,0,0-1,.36,2.55,2.55,0,0,0-.63,1,5.46,5.46,0,0,0-.32,1.39,14.9,14.9,0,0,0-.09,1.67c0,1.11,0,2.23.08,3.36s.13,2.26.25,3.37.27,2.21.45,3.27a29.13,29.13,0,0,0,.68,3.05l-.78-.06-.91,0-1.22,0c-.84,0-1.82,0-2.93.11s-2.3.21-3.59.4c.16-.73.29-1.62.41-2.67s.22-2.2.29-3.44.14-2.53.19-3.88.07-2.68.07-4c0-1,0-1.94,0-2.87s-.06-1.83-.11-2.66-.11-1.6-.18-2.3-.17-1.31-.28-1.82c1.06.18,2,.31,2.93.38s1.71.11,2.44.11q.7,0,1.26,0c.37,0,.69,0,1-.07l.82-.12a10.62,10.62,0,0,0-.2,1.09c-.06.38-.12.79-.19,1.24a8.05,8.05,0,0,1,2.34-2.12,4.94,4.94,0,0,1,2.46-.72,4.37,4.37,0,0,1,2.75.83,5.11,5.11,0,0,1,1.61,2.65,8.6,8.6,0,0,1,2.53-2.62A5.13,5.13,0,0,1,188,182a5.37,5.37,0,0,1,2.51.58,4.71,4.71,0,0,1,1.85,1.81,9.83,9.83,0,0,1,1.13,3.14,23.38,23.38,0,0,1,.39,4.59c0,1.23,0,2.5,0,3.83s0,2.61.06,3.86.09,2.4.16,3.47A23.35,23.35,0,0,0,194.38,206Z"/><path class="cls-2" d="M216.22,205.87l-.86-.08-1,0c-.38,0-.8,0-1.26,0-.65,0-1.36,0-2.14.07a23.29,23.29,0,0,0-2.39.3l.08-5.49a10.42,10.42,0,0,1-2.18,4.49,4.4,4.4,0,0,1-3.37,1.58,7.23,7.23,0,0,1-1.37-.15,5.88,5.88,0,0,1-1.55-.6,6.49,6.49,0,0,1-1.54-1.22,7.47,7.47,0,0,1-1.34-2,13.37,13.37,0,0,1-.94-3,22.09,22.09,0,0,1-.35-4.19,20.33,20.33,0,0,1,.67-5.61,12.68,12.68,0,0,1,1.69-3.82,7.06,7.06,0,0,1,2.29-2.17,5,5,0,0,1,2.44-.68,5.7,5.7,0,0,1,1.85.28,6.28,6.28,0,0,1,1.47.72,5.6,5.6,0,0,1,1.11,1,6.07,6.07,0,0,1,.77,1.09q-.06-.66-.18-1.41t-.27-1.56a19.77,19.77,0,0,0,2.58.34c.87,0,1.68.07,2.42.07s1.6,0,2.15-.05l.86-.06c-.15.65-.28,1.38-.4,2.18s-.21,1.67-.3,2.59-.15,1.88-.19,2.89-.07,2-.07,3.1c0,2,.1,3.94.29,5.92A33.71,33.71,0,0,0,216.22,205.87Zm-8-11.19v-3.16a10,10,0,0,0-.06-1.08,3.43,3.43,0,0,0-.26-1,1.89,1.89,0,0,0-.6-.74,1.81,1.81,0,0,0-1.05-.28,1.53,1.53,0,0,0-1.17.49,3.7,3.7,0,0,0-.74,1.34,8.74,8.74,0,0,0-.39,2c-.07.77-.11,1.62-.11,2.53a12.11,12.11,0,0,0,.11,1.58,6.37,6.37,0,0,0,.36,1.46,2.87,2.87,0,0,0,.69,1.06,1.46,1.46,0,0,0,1.05.41,1.41,1.41,0,0,0,1.13-.49,3.21,3.21,0,0,0,.66-1.21,7.48,7.48,0,0,0,.3-1.51C208.16,195.57,208.19,195.1,208.19,194.68Z"/><path class="cls-2" d="M223.89,206a18.28,18.28,0,0,1,.53-4.68,13.28,13.28,0,0,1,1.4-3.41,11.12,11.12,0,0,1,2-2.46,23.63,23.63,0,0,1,2.27-1.83c.78-.55,1.54-1.06,2.28-1.55a13.11,13.11,0,0,0,2-1.56,6.93,6.93,0,0,0,1.4-1.89,5.73,5.73,0,0,0,.53-2.56,3,3,0,0,0-.11-.76,2.26,2.26,0,0,0-.36-.77,1.93,1.93,0,0,0-.69-.6,2.09,2.09,0,0,0-1-.23,2.12,2.12,0,0,0-.93.19,2,2,0,0,0-.66.49,1.74,1.74,0,0,0-.39.65,2,2,0,0,0-.13.7,1.37,1.37,0,0,0,.13.59,1.43,1.43,0,0,0,.34.5,1.61,1.61,0,0,0,.48.34,1.12,1.12,0,0,0,.53.13,2.62,2.62,0,0,0,.71-.12,4,4,0,0,1-.89,1.12,5,5,0,0,1-1.25.83,6.09,6.09,0,0,1-1.49.51,7.16,7.16,0,0,1-1.61.18,6.72,6.72,0,0,1-2-.29,4.72,4.72,0,0,1-1.62-.89,4.09,4.09,0,0,1-1.08-1.49,5,5,0,0,1-.4-2.1,8.29,8.29,0,0,1,.62-3.14,7.77,7.77,0,0,1,1.86-2.72,9.27,9.27,0,0,1,3.13-1.9,12.21,12.21,0,0,1,4.39-.71,13.7,13.7,0,0,1,5,.82,9.54,9.54,0,0,1,3.52,2.26,9.37,9.37,0,0,1,2.09,3.42,12.81,12.81,0,0,1,.69,4.26,8.45,8.45,0,0,1-.41,2.81,6.84,6.84,0,0,1-1.11,2.07,7.59,7.59,0,0,1-1.63,1.52,18.39,18.39,0,0,1-2,1.19c-.7.35-1.41.7-2.14,1s-1.44.68-2.12,1.07a14.1,14.1,0,0,0-1.93,1.29,7.57,7.57,0,0,0-1.54,1.74,23.7,23.7,0,0,0,7-1.45,16.5,16.5,0,0,0,5.14-3.06c-.09.69-.16,1.37-.19,2s-.06,1.34-.06,2a31.81,31.81,0,0,0,.16,3.24,28.65,28.65,0,0,0,.52,3.19c-1.63-.23-3.31-.41-5.06-.53s-3.51-.17-5.29-.17-3.62.06-5.38.17S225.58,205.76,223.89,206Z"/></g></svg>