<svg xmlns="http://www.w3.org/2000/svg" width="351" height="369" viewBox="0 0 351 369"><defs><style>.cls-1{fill:#056cf2;}.cls-2{fill:#ff6d00;}</style></defs><g id="_1" data-name="1"><path class="cls-1" d="M165.34,106.69c1.41-12.7,3-12.25,7.27-40.51,4-26,3.46-31.58,8.51-40.61C188.16,13,203.94-2.55,218.18.38,235.92,4,244.4,34.88,243.42,57c-.64,14.33-5.13,22.36-22.84,55.37-33.65,62.73-37.32,70.8-42.57,69.84C166.52,180.13,161.9,137.49,165.34,106.69Z"/><path class="cls-1" d="M113.12,148.39C84.54,125.65,59,105.32,62,78.81,64,61.51,78,43,93.93,40.93c31.68-4,57.25,59.24,62.33,71.83,2.78,6.88,21,52.07,8.3,61.21C154.43,181.25,130,161.85,113.12,148.39Z"/><path class="cls-1" d="M227.67,221.6c19.85,15.14,32.36,19.94,47,39,7.91,10.32,16,21.22,16.93,36.86,1.2,20.79-10.63,45-26.45,47.91-2.28.42-8.72,1.13-17.89-4.77-42.64-27.47-86.86-161.25-70.66-168.33C183.11,169.44,188.86,192,227.67,221.6Z"/><path class="cls-1" d="M181.47,304.77c-2.79,27.14-6.11,59.54-21.94,63.9-13.8,3.8-34.66-14.39-40.56-35-5.44-19,4.28-31.68,19.88-71.48,22.38-57.1,21.69-80.32,28.62-80.06C179,182.61,187.37,247.29,181.47,304.77Z"/><path class="cls-1" d="M277.25,167c14.82-4.23,25.17-9,38.73-4.88,20.88,6.4,39.1,30.92,34.22,46.94-6.44,21.13-51.73,23.13-76,20.65-53-5.41-98.78-41.59-94.64-54C183.05,165.21,218.9,183.65,277.25,167Z"/><path class="cls-1" d="M226.3,112.46c17.46-21.23,56.05-68.13,80.17-57.55,17.85,7.83,25.87,46.28,12.25,69-7,11.61-15.94,13-53.57,28.39-55.84,22.88-69.3,33.48-74.32,27.91C182.47,170.88,210.64,131.49,226.3,112.46Z"/><path class="cls-1" d="M131.26,257.76c-18.85,19.94-60.53,64-83.88,51.76-17.27-9.07-22.67-48-7.55-69.64,7.74-11.09,16.79-11.82,55.37-24.55,57.26-18.9,71.4-28.52,76-22.61C179,202.56,148.18,239.87,131.26,257.76Z"/><path class="cls-1" d="M72.45,206c-15,3.51-25.56,7.8-38.91,3-20.56-7.4-37.62-32.77-32-48.54C9,139.69,54.3,139.89,78.47,143.54c52.68,8,96.73,46.33,92,58.48C166.46,212.38,131.52,192.23,72.45,206Z"/><ellipse class="cls-1" cx="181.51" cy="184.72" rx="62.69" ry="59.6" transform="translate(-76.9 201.84) rotate(-49.29)"/><path class="cls-2" d="M136.56,209c-.3,0-.65-.06-1-.08s-.73-.05-1.19-.06l-1.54,0c-1,0-2,0-3.26.11s-2.47.2-3.81.4a56,56,0,0,0,1-5.57c.24-1.78.41-3.37.53-4.76.13-1.63.21-3.16.23-4.59,0-.62,0-1.29,0-2s0-1.35-.09-2.17-.09-1.73-.16-2.69q-.91.88-1.83,1.89c-.6.67-1.18,1.36-1.74,2.09s-1.09,1.45-1.58,2.19a24.25,24.25,0,0,0-1.28,2.19l.47-14.92c1.23.14,2.52.25,3.88.33s2.75.12,4.17.12q3,0,6-.22t5.49-.62l.73,15.08a40.89,40.89,0,0,0-3.12-5,21.08,21.08,0,0,0-3.64-3.94c-.11.89-.18,1.81-.23,2.78s-.07,2-.07,3c0,1.32.05,2.67.13,4.06s.21,2.78.37,4.19.38,2.8.64,4.19S136.2,207.62,136.56,209Z"/><path class="cls-2" d="M159.78,190.86a9.73,9.73,0,0,1-.42,2.85,5.79,5.79,0,0,1-1.48,2.46,7.39,7.39,0,0,1-2.84,1.72,13.52,13.52,0,0,1-4.54.65,4.47,4.47,0,0,0,.4,1.6,3.35,3.35,0,0,0,.77,1,3.24,3.24,0,0,0,1,.59,5.05,5.05,0,0,0,.94.27,5.82,5.82,0,0,0,1,.08,6.38,6.38,0,0,0,2.17-.62,4.6,4.6,0,0,0,.8-.5,3.79,3.79,0,0,0,.71-.73,3.24,3.24,0,0,0,.53-.95,4.13,4.13,0,0,0,.25-1.24,12.75,12.75,0,0,1,.71,2.37,11,11,0,0,1,.2,2.06,8.13,8.13,0,0,1-.63,3.23,7.63,7.63,0,0,1-1.75,2.55,7.77,7.77,0,0,1-2.65,1.67,9,9,0,0,1-3.33.6,9.45,9.45,0,0,1-3.38-.61,7.56,7.56,0,0,1-2.89-1.92,9.48,9.48,0,0,1-2-3.43,15.37,15.37,0,0,1-.75-5.12,16.41,16.41,0,0,1,.94-5.78,12.46,12.46,0,0,1,2.52-4.23,10.64,10.64,0,0,1,3.66-2.59A10.88,10.88,0,0,1,154,186a9.08,9.08,0,0,1,2.17.25,5.09,5.09,0,0,1,1.84.84,4.22,4.22,0,0,1,1.26,1.51A5.06,5.06,0,0,1,159.78,190.86Zm-9.36,4.45a5.06,5.06,0,0,0,1.27-.22,6.13,6.13,0,0,0,1.37-.58,3.57,3.57,0,0,0,1.08-.92,1.89,1.89,0,0,0,.44-1.25.91.91,0,0,0-.31-.72,1.19,1.19,0,0,0-.8-.27,2,2,0,0,0-1.22.39,3.59,3.59,0,0,0-.92,1,5.59,5.59,0,0,0-.61,1.28A5.94,5.94,0,0,0,150.42,195.31Z"/><path class="cls-2" d="M190.58,209.42a10.07,10.07,0,0,0-1.28-.13c-.45,0-.92,0-1.4,0s-1.17,0-1.75.05-1.16.07-1.72.12-1.1.11-1.6.18l-1.37.18a24,24,0,0,0,.46-2.46c.13-1,.25-2,.34-3.19s.16-2.38.2-3.66.07-2.58.07-3.9c0-.19,0-.45,0-.78s0-.68-.05-1.05a11.51,11.51,0,0,0-.12-1.15,5.85,5.85,0,0,0-.26-1,2.27,2.27,0,0,0-.41-.76.76.76,0,0,0-.61-.3,1,1,0,0,0-.76.49,6.44,6.44,0,0,0-.73,1.31c0,.73.07,1.59.1,2.59s0,2,.06,3.11,0,2.15,0,3.21,0,2,0,2.83,0,1.51,0,2a2.48,2.48,0,0,0,.06.77q-.89-.14-1.62-.21a14.32,14.32,0,0,0-1.47-.08,14.72,14.72,0,0,0-2.11.16c-.75.1-1.66.26-2.71.48.16-1.23.32-2.51.46-3.82.12-1.14.23-2.39.34-3.75s.15-2.71.15-4c0-.19,0-.45,0-.78s0-.68-.05-1.05a11.51,11.51,0,0,0-.12-1.15,5.85,5.85,0,0,0-.26-1,2.28,2.28,0,0,0-.42-.76.78.78,0,0,0-.62-.3,1.49,1.49,0,0,0-1,.37,2.47,2.47,0,0,0-.63,1,5.14,5.14,0,0,0-.32,1.4,14.77,14.77,0,0,0-.09,1.67c0,1.11,0,2.23.08,3.36s.13,2.25.25,3.37.27,2.2.45,3.27a29.71,29.71,0,0,0,.68,3l-.78-.06-.92,0-1.21,0c-.84,0-1.82,0-2.93.11s-2.3.2-3.59.4c.16-.73.29-1.62.41-2.68s.21-2.2.29-3.44.14-2.53.19-3.87.07-2.68.07-4c0-1,0-1.93,0-2.87s-.06-1.82-.11-2.65-.11-1.61-.19-2.31a16.65,16.65,0,0,0-.27-1.82,29.52,29.52,0,0,0,2.93.38c.9.08,1.71.11,2.44.11q.71,0,1.26,0c.37,0,.69,0,.95-.07s.58-.07.82-.11q-.12.51-.21,1.08c-.05.39-.12.8-.18,1.24a8.2,8.2,0,0,1,2.34-2.12,5,5,0,0,1,2.46-.71,4.37,4.37,0,0,1,2.75.83,5.14,5.14,0,0,1,1.61,2.65,8.38,8.38,0,0,1,2.53-2.62,5.13,5.13,0,0,1,2.7-.86,5.25,5.25,0,0,1,2.51.58,4.68,4.68,0,0,1,1.85,1.8,10,10,0,0,1,1.13,3.15,23.24,23.24,0,0,1,.39,4.59c0,1.22,0,2.5,0,3.83s0,2.61.06,3.85.09,2.4.16,3.48A23.89,23.89,0,0,0,190.58,209.42Z"/><path class="cls-2" d="M212.42,209.3l-.86-.08q-.42,0-1-.06l-1.26,0c-.65,0-1.36,0-2.14.08a23.2,23.2,0,0,0-2.39.29l.08-5.49a10.52,10.52,0,0,1-2.18,4.5,4.43,4.43,0,0,1-3.37,1.58,6.56,6.56,0,0,1-1.37-.16,5.4,5.4,0,0,1-1.55-.59,6.76,6.76,0,0,1-1.54-1.22,7.53,7.53,0,0,1-1.34-2,13.12,13.12,0,0,1-.94-3,22.17,22.17,0,0,1-.35-4.19,20.88,20.88,0,0,1,.66-5.62,13.05,13.05,0,0,1,1.7-3.82,6.82,6.82,0,0,1,2.29-2.16,5,5,0,0,1,2.44-.69,5.7,5.7,0,0,1,1.85.29,5.82,5.82,0,0,1,3.34,2.8c0-.44-.09-.92-.17-1.42s-.17-1-.27-1.55a18.24,18.24,0,0,0,2.57.33c.88.05,1.68.08,2.43.08s1.6,0,2.14-.06c.32,0,.6,0,.86-.06q-.21,1-.39,2.19c-.11.81-.21,1.67-.3,2.59s-.15,1.88-.2,2.89-.06,2-.06,3.09a58.8,58.8,0,0,0,.29,5.92A32,32,0,0,0,212.42,209.3Zm-8-11.19v-3.17a9.73,9.73,0,0,0-.06-1.07,3.41,3.41,0,0,0-.26-1,1.86,1.86,0,0,0-.6-.73,1.74,1.74,0,0,0-1.05-.28,1.56,1.56,0,0,0-1.17.48,3.78,3.78,0,0,0-.74,1.34,9,9,0,0,0-.39,2c-.07.78-.11,1.62-.11,2.53a12.26,12.26,0,0,0,.11,1.59,6.16,6.16,0,0,0,.36,1.45,2.91,2.91,0,0,0,.69,1.07,1.46,1.46,0,0,0,1.05.41,1.44,1.44,0,0,0,1.13-.49A3.28,3.28,0,0,0,204,201a7.58,7.58,0,0,0,.3-1.52C204.36,199,204.39,198.52,204.39,198.11Z"/><path class="cls-2" d="M240.7,194.38c-.11.58-.18,1.16-.23,1.72s-.07,1.15-.07,1.73a19.44,19.44,0,0,0,.3,3.4q-.45-.21-1-.39l-1-.33c.15,1.48.34,2.93.58,4.34a37.18,37.18,0,0,0,.91,4.06l-.9-.08q-.45,0-1.08-.06l-1.46,0c-1,0-2.26.05-3.66.14s-2.91.26-4.54.53a10.12,10.12,0,0,0,.62-1.8c.19-.72.34-1.49.48-2.32s.25-1.69.33-2.58.16-1.77.21-2.62c-.26,0-.72,0-1.37,0s-1.46,0-2.43,0-2.07.1-3.31.21a39.7,39.7,0,0,0-4,.61l1.82-5.57q.84-2.55,1.52-4.92c.46-1.57.85-3.13,1.18-4.67s.58-3.13.76-4.8q3.76.33,7.5.28t7.5-.36a47.73,47.73,0,0,0-.72,5.28q-.28,3.08-.28,6.6v2.36l1.25-.31A5.76,5.76,0,0,0,240.7,194.38Zm-10.3,1.29c0-.34,0-.79,0-1.35s0-1.19,0-1.9,0-1.46-.06-2.27-.07-1.65-.12-2.49a17.38,17.38,0,0,0-1.41,3.73c-.35,1.35-.67,2.74-.95,4.16l.8.06.64,0,.57,0Z"/></g></svg>