<svg xmlns="http://www.w3.org/2000/svg" width="351" height="369" viewBox="0 0 351 369"><defs><style>.cls-1{fill:#ffb500;}.cls-2{fill:#ff6d00;}</style></defs><g id="_1" data-name="1"><path class="cls-1" d="M165.34,106.69c1.41-12.7,3-12.25,7.27-40.51,4-26,3.46-31.58,8.51-40.61C188.16,13,203.94-2.55,218.18.38,235.92,4,244.4,34.88,243.42,57c-.64,14.33-5.13,22.36-22.84,55.37-33.65,62.73-37.32,70.8-42.57,69.84C166.52,180.13,161.9,137.49,165.34,106.69Z"/><path class="cls-1" d="M113.12,148.39C84.54,125.65,59,105.32,62,78.81,64,61.51,78,43,93.93,40.93c31.68-4,57.25,59.24,62.33,71.83,2.78,6.88,21,52.07,8.3,61.21C154.43,181.25,130,161.85,113.12,148.39Z"/><path class="cls-1" d="M227.67,221.6c19.85,15.14,32.36,19.94,47,39,7.91,10.32,16,21.22,16.93,36.86,1.2,20.79-10.63,45-26.45,47.91-2.28.42-8.72,1.13-17.89-4.77-42.64-27.47-86.86-161.25-70.66-168.33C183.11,169.44,188.86,192,227.67,221.6Z"/><path class="cls-1" d="M181.47,304.77c-2.79,27.14-6.11,59.54-21.94,63.9-13.8,3.8-34.66-14.39-40.56-35-5.44-19,4.28-31.68,19.88-71.48,22.38-57.1,21.69-80.32,28.62-80.06C179,182.61,187.37,247.29,181.47,304.77Z"/><path class="cls-1" d="M277.25,167c14.82-4.23,25.17-9,38.73-4.88,20.88,6.4,39.1,30.92,34.22,46.94-6.44,21.13-51.73,23.13-76,20.65-53-5.41-98.78-41.59-94.64-54C183.05,165.21,218.9,183.65,277.25,167Z"/><path class="cls-1" d="M226.3,112.46c17.46-21.23,56.05-68.13,80.17-57.55,17.85,7.83,25.87,46.28,12.25,69-7,11.61-15.94,13-53.57,28.39-55.84,22.88-69.3,33.48-74.32,27.91C182.47,170.88,210.64,131.49,226.3,112.46Z"/><path class="cls-1" d="M131.26,257.76c-18.85,19.94-60.53,64-83.88,51.76-17.27-9.07-22.67-48-7.55-69.64,7.74-11.09,16.79-11.82,55.37-24.55,57.26-18.9,71.4-28.52,76-22.61C179,202.56,148.18,239.87,131.26,257.76Z"/><path class="cls-1" d="M72.45,206c-15,3.51-25.56,7.8-38.91,3-20.56-7.4-37.62-32.77-32-48.54C9,139.69,54.3,139.89,78.47,143.54c52.68,8,96.73,46.33,92,58.48C166.46,212.38,131.52,192.23,72.45,206Z"/><ellipse class="cls-1" cx="181.51" cy="184.72" rx="62.69" ry="59.6" transform="translate(-76.9 201.84) rotate(-49.29)"/><path class="cls-2" d="M139.07,207.8l-1-.08-1.19-.05c-.46,0-1,0-1.54,0-1,0-2.05,0-3.25.1s-2.48.21-3.82.4a55.86,55.86,0,0,0,1-5.56c.24-1.79.41-3.37.53-4.77.13-1.63.21-3.15.23-4.59q0-.91,0-2c0-.62-.06-1.35-.1-2.18s-.09-1.72-.16-2.68c-.61.58-1.22,1.21-1.82,1.88s-1.19,1.37-1.75,2.09-1.09,1.46-1.58,2.2a22.79,22.79,0,0,0-1.27,2.19l.46-14.93c1.23.15,2.52.26,3.88.34s2.75.11,4.17.11q3,0,6-.21t5.48-.63l.73,15.08a41.66,41.66,0,0,0-3.12-5,20.7,20.7,0,0,0-3.64-3.93c-.1.88-.18,1.81-.23,2.78s-.06,2-.06,3c0,1.31,0,2.67.12,4.05s.21,2.79.37,4.19.38,2.81.64,4.2S138.72,206.47,139.07,207.8Z"/><path class="cls-2" d="M162.29,189.72a9.83,9.83,0,0,1-.42,2.85A6,6,0,0,1,160.4,195a7.43,7.43,0,0,1-2.85,1.72,13.54,13.54,0,0,1-4.54.64,4.41,4.41,0,0,0,.4,1.6,3.4,3.4,0,0,0,.77,1,3.24,3.24,0,0,0,1,.59,5.05,5.05,0,0,0,.94.27,5.91,5.91,0,0,0,1,.08,6.17,6.17,0,0,0,2.17-.63,3.8,3.8,0,0,0,.8-.5,4.09,4.09,0,0,0,.72-.72,3.68,3.68,0,0,0,.52-1,4.07,4.07,0,0,0,.25-1.24,12.83,12.83,0,0,1,.71,2.38,11,11,0,0,1,.21,2.06,8.13,8.13,0,0,1-.64,3.23,7.68,7.68,0,0,1-1.75,2.55,8,8,0,0,1-2.64,1.67,9.11,9.11,0,0,1-3.33.59,9.68,9.68,0,0,1-3.39-.6,7.67,7.67,0,0,1-2.89-1.92,9.55,9.55,0,0,1-2-3.43,15.1,15.1,0,0,1-.76-5.12,16.64,16.64,0,0,1,.94-5.78,12.78,12.78,0,0,1,2.52-4.23,10.86,10.86,0,0,1,3.66-2.6,11.05,11.05,0,0,1,4.37-.89,9.23,9.23,0,0,1,2.18.26,5.12,5.12,0,0,1,1.83.84,4.13,4.13,0,0,1,1.26,1.51A5.06,5.06,0,0,1,162.29,189.72Zm-9.36,4.45a5.56,5.56,0,0,0,1.27-.22,5.94,5.94,0,0,0,1.37-.58,3.9,3.9,0,0,0,1.09-.92,1.94,1.94,0,0,0,.43-1.25.9.9,0,0,0-.31-.72,1.17,1.17,0,0,0-.8-.27,2,2,0,0,0-1.22.39,3.71,3.71,0,0,0-.92,1,5.47,5.47,0,0,0-.61,1.29A5.94,5.94,0,0,0,152.93,194.17Z"/><path class="cls-2" d="M193.09,208.27a12.3,12.3,0,0,0-1.28-.13c-.45,0-.91,0-1.39,0s-1.18,0-1.76,0l-1.72.13c-.56.05-1.1.11-1.6.18l-1.37.17a23.72,23.72,0,0,0,.46-2.45c.14-1,.25-2,.34-3.19s.16-2.38.21-3.66.06-2.59.06-3.9c0-.2,0-.46,0-.78s0-.68,0-1.06-.07-.75-.13-1.14a5.85,5.85,0,0,0-.26-1,2.33,2.33,0,0,0-.41-.77.76.76,0,0,0-.61-.29,1,1,0,0,0-.76.49,6.44,6.44,0,0,0-.73,1.31c0,.73.08,1.59.1,2.59s.05,2,.06,3.11,0,2.15,0,3.2,0,2,0,2.84,0,1.5,0,2a2.55,2.55,0,0,0,.06.77l-1.61-.22a14.52,14.52,0,0,0-1.48-.07,16.21,16.21,0,0,0-2.11.15c-.75.11-1.66.27-2.71.49.17-1.24.32-2.51.47-3.83q.17-1.69.33-3.75c.1-1.36.15-2.71.15-4,0-.2,0-.46,0-.78s0-.68,0-1.06-.07-.75-.13-1.14a5.85,5.85,0,0,0-.26-1,2.34,2.34,0,0,0-.42-.77.78.78,0,0,0-.62-.29,1.49,1.49,0,0,0-1,.36,2.63,2.63,0,0,0-.63,1,5.44,5.44,0,0,0-.32,1.4,14.64,14.64,0,0,0-.09,1.67c0,1.1,0,2.22.08,3.36s.13,2.25.25,3.36.27,2.21.45,3.28a29.51,29.51,0,0,0,.68,3l-.78-.06-.91,0c-.36,0-.76,0-1.22,0-.84,0-1.82,0-2.93.1s-2.3.21-3.59.4c.16-.73.29-1.62.41-2.67s.22-2.2.29-3.44.14-2.53.19-3.88.07-2.68.07-4c0-1,0-1.93,0-2.87s-.06-1.82-.11-2.66-.11-1.6-.18-2.3-.17-1.31-.28-1.82c1.06.18,2,.31,2.93.38s1.71.11,2.44.11q.71,0,1.26,0c.37,0,.69,0,1-.07l.82-.12a10.62,10.62,0,0,0-.2,1.09c-.06.38-.12.8-.19,1.24a8.05,8.05,0,0,1,2.34-2.12,4.93,4.93,0,0,1,2.46-.71,4.31,4.31,0,0,1,2.75.83,5,5,0,0,1,1.61,2.64,8.45,8.45,0,0,1,2.53-2.61,5,5,0,0,1,2.7-.86,5.37,5.37,0,0,1,2.51.57,4.78,4.78,0,0,1,1.85,1.81,9.83,9.83,0,0,1,1.13,3.14,23.38,23.38,0,0,1,.39,4.59c0,1.23,0,2.5,0,3.83s0,2.62.06,3.86.09,2.4.16,3.48A23.41,23.41,0,0,0,193.09,208.27Z"/><path class="cls-2" d="M214.93,208.15l-.86-.07q-.42,0-1-.06c-.38,0-.8,0-1.26,0-.65,0-1.36,0-2.14.08a23.2,23.2,0,0,0-2.39.29l.08-5.49a10.42,10.42,0,0,1-2.18,4.49,4.41,4.41,0,0,1-3.37,1.59,7.31,7.31,0,0,1-1.37-.16,5.56,5.56,0,0,1-1.55-.6,6.49,6.49,0,0,1-1.54-1.22,7.47,7.47,0,0,1-1.34-2,13.37,13.37,0,0,1-.94-3,22.09,22.09,0,0,1-.35-4.19,20.38,20.38,0,0,1,.67-5.61,12.68,12.68,0,0,1,1.69-3.82,7.06,7.06,0,0,1,2.29-2.17,5.13,5.13,0,0,1,2.44-.68,5.7,5.7,0,0,1,1.85.28,6.28,6.28,0,0,1,1.47.72,5.94,5.94,0,0,1,1.11,1,6.44,6.44,0,0,1,.77,1.09q-.06-.66-.18-1.41c-.08-.5-.17-1-.27-1.55a18.19,18.19,0,0,0,2.58.33c.87,0,1.68.08,2.42.08s1.6,0,2.15-.06c.31,0,.59,0,.86-.06-.15.65-.28,1.38-.4,2.19s-.21,1.67-.3,2.58-.15,1.89-.19,2.89-.07,2-.07,3.1q0,3,.29,5.92A33.71,33.71,0,0,0,214.93,208.15Zm-8-11.19V193.8a10,10,0,0,0-.06-1.08,3.43,3.43,0,0,0-.26-1,1.86,1.86,0,0,0-.6-.73,1.74,1.74,0,0,0-1-.29,1.57,1.57,0,0,0-1.17.49,3.7,3.7,0,0,0-.74,1.34,9,9,0,0,0-.39,2c-.07.78-.11,1.62-.11,2.53a12.11,12.11,0,0,0,.11,1.58,6.24,6.24,0,0,0,.36,1.46,2.87,2.87,0,0,0,.69,1.06,1.55,1.55,0,0,0,2.18-.08,3.21,3.21,0,0,0,.66-1.21,7.35,7.35,0,0,0,.3-1.51C206.87,197.85,206.9,197.38,206.9,197Z"/><path class="cls-2" d="M231.88,188.19l1.71.12a15.65,15.65,0,0,1,2.45.45,14.39,14.39,0,0,1,2.71,1,8.45,8.45,0,0,1,2.52,1.85,9.18,9.18,0,0,1,1.86,3,11.39,11.39,0,0,1,.72,4.29,12.35,12.35,0,0,1-.69,4.23,8.47,8.47,0,0,1-2.09,3.25,9.35,9.35,0,0,1-3.52,2.08,15.22,15.22,0,0,1-5,.73,12.43,12.43,0,0,1-4.39-.71,9.29,9.29,0,0,1-3.13-1.91,7.68,7.68,0,0,1-1.86-2.72,8.43,8.43,0,0,1-.62-3.16,5.18,5.18,0,0,1,.39-2.08,4.16,4.16,0,0,1,1.09-1.48,4.56,4.56,0,0,1,1.62-.89,6.72,6.72,0,0,1,2-.29,7.78,7.78,0,0,1,1.61.17,6.56,6.56,0,0,1,1.49.52,6,6,0,0,1,1.25.83,4.27,4.27,0,0,1,.89,1.11,3,3,0,0,0-.71-.11,1.24,1.24,0,0,0-.53.12,1.65,1.65,0,0,0-.48.35,1.49,1.49,0,0,0-.34.49,1.38,1.38,0,0,0-.13.6,2,2,0,0,0,.13.69,1.86,1.86,0,0,0,.39.66,2,2,0,0,0,1.59.68,2.2,2.2,0,0,0,1.87-.79,3.3,3.3,0,0,0,.61-2.08,3.57,3.57,0,0,0-.57-2,5.06,5.06,0,0,0-1.48-1.47,7.81,7.81,0,0,0-2.09-.93,12,12,0,0,0-2.38-.45,11.52,11.52,0,0,0-2.35,0,7.85,7.85,0,0,0-2,.45s0-.25,0-.64,0-.89,0-1.51,0-1.33-.06-2.12-.06-1.62-.11-2.47-.1-1.72-.16-2.58-.15-1.68-.25-2.44-.2-1.45-.33-2.05a5.71,5.71,0,0,0-.44-1.42,32.08,32.08,0,0,0,3.81.56c1.29.11,2.57.16,3.83.16,1.44,0,2.85-.05,4.23-.14s2.6-.21,3.68-.35c1.26-.14,2.45-.31,3.57-.5v10.35a13.13,13.13,0,0,0-4.32-2.5,12.38,12.38,0,0,0-2-.54,10.63,10.63,0,0,0-1.76-.16h-2Z"/></g></svg>