<svg xmlns="http://www.w3.org/2000/svg" width="351" height="369" viewBox="0 0 351 369"><defs><style>.cls-1{fill:#00ba60;}.cls-2{fill:#ff6d00;}</style></defs><g id="_1" data-name="1"><path class="cls-1" d="M165.34,106.69c1.41-12.7,3-12.25,7.27-40.51,4-26,3.46-31.58,8.51-40.61C188.16,13,203.94-2.55,218.18.38,235.92,4,244.4,34.88,243.42,57c-.64,14.33-5.13,22.36-22.84,55.37-33.65,62.73-37.32,70.8-42.57,69.84C166.52,180.13,161.9,137.49,165.34,106.69Z"/><path class="cls-1" d="M113.12,148.39C84.54,125.65,59,105.32,62,78.81,64,61.51,78,43,93.93,40.93c31.68-4,57.25,59.24,62.33,71.83,2.78,6.88,21,52.07,8.3,61.21C154.43,181.25,130,161.85,113.12,148.39Z"/><path class="cls-1" d="M227.67,221.6c19.85,15.14,32.36,19.94,47,39,7.91,10.32,16,21.22,16.93,36.86,1.2,20.79-10.63,45-26.45,47.91-2.28.42-8.72,1.13-17.89-4.77-42.64-27.47-86.86-161.25-70.66-168.33C183.11,169.44,188.86,192,227.67,221.6Z"/><path class="cls-1" d="M181.47,304.77c-2.79,27.14-6.11,59.54-21.94,63.9-13.8,3.8-34.66-14.39-40.56-35-5.44-19,4.28-31.68,19.88-71.48,22.38-57.1,21.69-80.32,28.62-80.06C179,182.61,187.37,247.29,181.47,304.77Z"/><path class="cls-1" d="M277.25,167c14.82-4.23,25.17-9,38.73-4.88,20.88,6.4,39.1,30.92,34.22,46.94-6.44,21.13-51.73,23.13-76,20.65-53-5.41-98.78-41.59-94.64-54C183.05,165.21,218.9,183.65,277.25,167Z"/><path class="cls-1" d="M226.3,112.46c17.46-21.23,56.05-68.13,80.17-57.55,17.85,7.83,25.87,46.28,12.25,69-7,11.61-15.94,13-53.57,28.39-55.84,22.88-69.3,33.48-74.32,27.91C182.47,170.88,210.64,131.49,226.3,112.46Z"/><path class="cls-1" d="M131.26,257.76c-18.85,19.94-60.53,64-83.88,51.76-17.27-9.07-22.67-48-7.55-69.64,7.74-11.09,16.79-11.82,55.37-24.55,57.26-18.9,71.4-28.52,76-22.61C179,202.56,148.18,239.87,131.26,257.76Z"/><path class="cls-1" d="M72.45,206c-15,3.51-25.56,7.8-38.91,3-20.56-7.4-37.62-32.77-32-48.54C9,139.69,54.3,139.89,78.47,143.54c52.68,8,96.73,46.33,92,58.48C166.46,212.38,131.52,192.23,72.45,206Z"/><ellipse class="cls-1" cx="181.51" cy="184.72" rx="62.69" ry="59.6" transform="translate(-76.9 201.84) rotate(-49.29)"/><path class="cls-2" d="M138.74,208.65l-1-.08q-.51,0-1.2-.06l-1.54,0c-1,0-2.05,0-3.25.11s-2.48.2-3.82.4a56.16,56.16,0,0,0,1-5.57c.23-1.78.41-3.37.52-4.76q.19-2.44.24-4.59c0-.61,0-1.28,0-2s-.06-1.35-.1-2.18-.09-1.72-.15-2.69q-.93.88-1.83,1.89c-.61.67-1.19,1.37-1.75,2.09s-1.08,1.45-1.57,2.2a22,22,0,0,0-1.28,2.18l.47-14.92c1.22.14,2.51.25,3.88.33s2.75.12,4.17.12q3,0,6-.21t5.49-.63l.72,15.08a40.84,40.84,0,0,0-3.11-5,21.11,21.11,0,0,0-3.65-3.94c-.1.89-.18,1.82-.22,2.79s-.07,2-.07,3c0,1.32,0,2.67.13,4.06s.21,2.78.37,4.19.37,2.8.63,4.2S138.39,207.32,138.74,208.65Z"/><path class="cls-2" d="M162,190.56a9.73,9.73,0,0,1-.42,2.85,6,6,0,0,1-1.47,2.47,7.5,7.5,0,0,1-2.84,1.71,13.56,13.56,0,0,1-4.54.65,4.22,4.22,0,0,0,.4,1.6,3.36,3.36,0,0,0,.77,1,3.2,3.2,0,0,0,1,.58,5,5,0,0,0,.93.27,5.15,5.15,0,0,0,1,.08,6.38,6.38,0,0,0,2.17-.62,4.6,4.6,0,0,0,.8-.5A3.86,3.86,0,0,0,161,199a4.14,4.14,0,0,0,.24-1.24,12.23,12.23,0,0,1,.71,2.37,11.16,11.16,0,0,1,.21,2.06,8,8,0,0,1-.64,3.24,7.66,7.66,0,0,1-1.74,2.54,7.81,7.81,0,0,1-2.65,1.67,9,9,0,0,1-3.33.6,9.55,9.55,0,0,1-3.39-.61,7.56,7.56,0,0,1-2.89-1.92,9.46,9.46,0,0,1-2-3.43,15.3,15.3,0,0,1-.75-5.11,16.67,16.67,0,0,1,.93-5.79,12.73,12.73,0,0,1,2.52-4.22,10.66,10.66,0,0,1,3.67-2.6,11,11,0,0,1,4.36-.89,9.16,9.16,0,0,1,2.18.25,5.09,5.09,0,0,1,1.84.84,4.38,4.38,0,0,1,1.26,1.52A5,5,0,0,1,162,190.56ZM152.61,195a5.72,5.72,0,0,0,1.27-.23,6.13,6.13,0,0,0,1.37-.58,3.82,3.82,0,0,0,1.08-.91,2,2,0,0,0,.44-1.25,1,1,0,0,0-.31-.73,1.19,1.19,0,0,0-.8-.27,2,2,0,0,0-1.23.39,3.72,3.72,0,0,0-.91,1,5.49,5.49,0,0,0-.62,1.29A6.36,6.36,0,0,0,152.61,195Z"/><path class="cls-2" d="M192.76,209.12a10.1,10.1,0,0,0-1.27-.13c-.45,0-.92,0-1.4,0s-1.17,0-1.76,0-1.16.07-1.72.13l-1.6.17-1.37.18a21.73,21.73,0,0,0,.46-2.45c.14-1,.25-2,.34-3.2s.16-2.38.21-3.66.07-2.58.07-3.89c0-.2,0-.46,0-.79s0-.67-.05-1.05-.07-.76-.13-1.14a5.78,5.78,0,0,0-.25-1.05,2.59,2.59,0,0,0-.41-.76.75.75,0,0,0-.62-.29,1,1,0,0,0-.76.49,5.91,5.91,0,0,0-.72,1.3c0,.73.07,1.6.1,2.59s0,2,0,3.12,0,2.15,0,3.2,0,2,0,2.83,0,1.51,0,2a3.1,3.1,0,0,0,.06.78c-.58-.1-1.12-.17-1.61-.22a13.81,13.81,0,0,0-3.58.08c-.76.1-1.66.27-2.72.49.17-1.24.33-2.52.47-3.83q.18-1.69.33-3.75c.11-1.37.16-2.71.16-4,0-.2,0-.46,0-.79s0-.67-.05-1.05-.07-.76-.13-1.14a5.78,5.78,0,0,0-.25-1.05,2.39,2.39,0,0,0-.42-.76.79.79,0,0,0-.63-.29,1.46,1.46,0,0,0-1,.36,2.46,2.46,0,0,0-.64,1,5.81,5.81,0,0,0-.32,1.39,14.9,14.9,0,0,0-.09,1.67c0,1.11,0,2.23.08,3.36s.14,2.26.26,3.37.26,2.2.44,3.27a29.68,29.68,0,0,0,.69,3.05l-.78-.06-.92,0-1.21,0c-.85,0-1.83,0-2.93.11s-2.31.2-3.6.4a24.49,24.49,0,0,0,.41-2.68c.12-1.05.22-2.2.3-3.43s.14-2.53.18-3.88.07-2.68.07-4c0-1,0-1.93,0-2.87s-.06-1.82-.1-2.65-.11-1.6-.19-2.31-.17-1.31-.27-1.81c1,.18,2,.31,2.93.38s1.71.1,2.44.1l1.26,0,.94-.07.82-.12c-.07.34-.14.7-.2,1.08s-.12.8-.19,1.24a8.24,8.24,0,0,1,2.35-2.12,5,5,0,0,1,2.46-.71,4.34,4.34,0,0,1,2.74.83,5.11,5.11,0,0,1,1.61,2.65,8.6,8.6,0,0,1,2.53-2.62,5.13,5.13,0,0,1,2.71-.86,5.28,5.28,0,0,1,2.51.58,4.66,4.66,0,0,1,1.84,1.8,9.89,9.89,0,0,1,1.14,3.15,23.31,23.31,0,0,1,.39,4.59c0,1.22,0,2.5,0,3.83s0,2.61.06,3.85.08,2.41.15,3.48A23.62,23.62,0,0,0,192.76,209.12Z"/><path class="cls-2" d="M214.6,209l-.86-.08-1-.06-1.25,0c-.66,0-1.37,0-2.14.08a23,23,0,0,0-2.4.29l.08-5.48a10.36,10.36,0,0,1-2.18,4.49,4.41,4.41,0,0,1-3.36,1.58,6.49,6.49,0,0,1-1.37-.16,5.3,5.3,0,0,1-1.55-.59,6.53,6.53,0,0,1-1.55-1.22,7.63,7.63,0,0,1-1.34-2,12.9,12.9,0,0,1-.93-3,21.37,21.37,0,0,1-.35-4.19,20.88,20.88,0,0,1,.66-5.62,12.73,12.73,0,0,1,1.7-3.81,6.84,6.84,0,0,1,2.28-2.17,5.07,5.07,0,0,1,2.45-.69,5.64,5.64,0,0,1,1.84.29,6.36,6.36,0,0,1,1.48.72,5.31,5.31,0,0,1,1.11,1,6,6,0,0,1,.76,1.09c0-.44-.1-.91-.18-1.42s-.16-1-.27-1.55a18.57,18.57,0,0,0,2.58.33c.87.06,1.68.08,2.42.08s1.6,0,2.15-.06c.31,0,.6,0,.86-.06-.14.66-.27,1.38-.39,2.19s-.22,1.67-.3,2.59-.15,1.88-.2,2.89-.07,2-.07,3.1q0,2.94.29,5.91A34,34,0,0,0,214.6,209Zm-8-11.19v-3.17a9.73,9.73,0,0,0-.06-1.07,3,3,0,0,0-.26-1,1.84,1.84,0,0,0-.59-.73,1.8,1.8,0,0,0-1.06-.28,1.5,1.5,0,0,0-1.16.49,3.38,3.38,0,0,0-.74,1.33,8.94,8.94,0,0,0-.39,2,24.7,24.7,0,0,0-.11,2.53,10.68,10.68,0,0,0,.11,1.58,6.16,6.16,0,0,0,.36,1.45,2.89,2.89,0,0,0,.68,1.07,1.5,1.5,0,0,0,1.06.41,1.47,1.47,0,0,0,1.13-.49,3.42,3.42,0,0,0,.65-1.21,8.19,8.19,0,0,0,.31-1.52C206.55,198.7,206.57,198.23,206.57,197.81Z"/><path class="cls-2" d="M230.83,191.17a2.59,2.59,0,0,1,.51-.38,3.66,3.66,0,0,1,.77-.36,6.06,6.06,0,0,1,1-.27,5.34,5.34,0,0,1,1.08-.11,13.39,13.39,0,0,1,2.34.21,11.12,11.12,0,0,1,2.27.65,9,9,0,0,1,2.06,1.19,7.22,7.22,0,0,1,1.68,1.76,8.24,8.24,0,0,1,1.12,2.43,10.86,10.86,0,0,1,.41,3.16,11.83,11.83,0,0,1-.8,4.54,9,9,0,0,1-2.23,3.29,9.42,9.42,0,0,1-3.42,2,13.41,13.41,0,0,1-4.35.68,11.75,11.75,0,0,1-4.5-.83,8.88,8.88,0,0,1-3.39-2.48,11.6,11.6,0,0,1-2.13-4.13,20.51,20.51,0,0,1-.74-5.79c0-1.26.06-2.56.17-3.89a24.79,24.79,0,0,1,.63-3.9,16.65,16.65,0,0,1,1.32-3.58,10.3,10.3,0,0,1,2.23-3,10.08,10.08,0,0,1,3.33-2,13,13,0,0,1,4.65-.75,10.83,10.83,0,0,1,3,.41,8.84,8.84,0,0,1,2.52,1.16A6,6,0,0,1,242,183a4.23,4.23,0,0,1,.65,2.28,4,4,0,0,1-.39,1.75,4.41,4.41,0,0,1-1.05,1.4,5.07,5.07,0,0,1-1.5.94,4.62,4.62,0,0,1-1.75.34,4.53,4.53,0,0,1-2.23-.6,5.41,5.41,0,0,1-1.89-2l.42.06a2.48,2.48,0,0,0,.38,0,.67.67,0,0,0,.57-.24.86.86,0,0,0,.19-.56.8.8,0,0,0-.31-.58,1.39,1.39,0,0,0-1-.3,2.61,2.61,0,0,0-1.71.54,3.65,3.65,0,0,0-1,1.36,6.33,6.33,0,0,0-.48,1.81A16.28,16.28,0,0,0,230.83,191.17Zm4.69,8.44A5.05,5.05,0,0,0,235,197a1.94,1.94,0,0,0-1.79-.95,2,2,0,0,0-1.66.95,4.65,4.65,0,0,0-.71,2.61,5.45,5.45,0,0,0,.14,1.41,3.79,3.79,0,0,0,.47,1.18,2.71,2.71,0,0,0,.75.82,1.69,1.69,0,0,0,1,.32,1.73,1.73,0,0,0,1-.3,2.39,2.39,0,0,0,.74-.8,3.74,3.74,0,0,0,.46-1.19A6.17,6.17,0,0,0,235.52,199.61Z"/></g></svg>