<svg xmlns="http://www.w3.org/2000/svg" width="351" height="369" viewBox="0 0 351 369"><defs><style>.cls-1{fill:#ffa7d7;}.cls-2{fill:#ff6d00;}</style></defs><g id="_1" data-name="1"><path class="cls-1" d="M165.34,106.69c1.41-12.7,3-12.25,7.27-40.51,4-26,3.46-31.58,8.51-40.61C188.16,13,203.94-2.55,218.18.38,235.92,4,244.4,34.88,243.42,57c-.64,14.33-5.13,22.36-22.84,55.37-33.65,62.73-37.32,70.8-42.57,69.84C166.52,180.13,161.9,137.49,165.34,106.69Z"/><path class="cls-1" d="M113.12,148.39C84.54,125.65,59,105.32,62,78.81,64,61.51,78,43,93.93,40.93c31.68-4,57.25,59.24,62.33,71.83,2.78,6.88,21,52.07,8.3,61.21C154.43,181.25,130,161.85,113.12,148.39Z"/><path class="cls-1" d="M227.67,221.6c19.85,15.14,32.36,19.94,47,39,7.91,10.32,16,21.22,16.93,36.86,1.2,20.79-10.63,45-26.45,47.91-2.28.42-8.72,1.13-17.89-4.77-42.64-27.47-86.86-161.25-70.66-168.33C183.11,169.44,188.86,192,227.67,221.6Z"/><path class="cls-1" d="M181.47,304.77c-2.79,27.14-6.11,59.54-21.94,63.9-13.8,3.8-34.66-14.39-40.56-35-5.44-19,4.28-31.68,19.88-71.48,22.38-57.1,21.69-80.32,28.62-80.06C179,182.61,187.37,247.29,181.47,304.77Z"/><path class="cls-1" d="M277.25,167c14.82-4.23,25.17-9,38.73-4.88,20.88,6.4,39.1,30.92,34.22,46.94-6.44,21.13-51.73,23.13-76,20.65-53-5.41-98.78-41.59-94.64-54C183.05,165.21,218.9,183.65,277.25,167Z"/><path class="cls-1" d="M226.3,112.46c17.46-21.23,56.05-68.13,80.17-57.55,17.85,7.83,25.87,46.28,12.25,69-7,11.61-15.94,13-53.57,28.39-55.84,22.88-69.3,33.48-74.32,27.91C182.47,170.88,210.64,131.49,226.3,112.46Z"/><path class="cls-1" d="M131.26,257.76c-18.85,19.94-60.53,64-83.88,51.76-17.27-9.07-22.67-48-7.55-69.64,7.74-11.09,16.79-11.82,55.37-24.55,57.26-18.9,71.4-28.52,76-22.61C179,202.56,148.18,239.87,131.26,257.76Z"/><path class="cls-1" d="M72.45,206c-15,3.51-25.56,7.8-38.91,3-20.56-7.4-37.62-32.77-32-48.54C9,139.69,54.3,139.89,78.47,143.54c52.68,8,96.73,46.33,92,58.48C166.46,212.38,131.52,192.23,72.45,206Z"/><ellipse class="cls-1" cx="181.51" cy="184.72" rx="62.69" ry="59.6" transform="translate(-76.9 201.84) rotate(-49.29)"/><path class="cls-2" d="M138.23,206.06l-1-.08-1.19,0c-.45,0-1,0-1.54,0-1,0-2.05,0-3.25.1s-2.48.21-3.82.4a53.13,53.13,0,0,0,1-5.56c.24-1.79.41-3.37.53-4.77q.2-2.45.24-4.59c0-.61,0-1.28,0-2s-.06-1.35-.1-2.18-.09-1.72-.16-2.68c-.61.58-1.22,1.21-1.82,1.88s-1.19,1.37-1.75,2.09-1.08,1.46-1.57,2.2a21,21,0,0,0-1.28,2.19l.47-14.93c1.22.15,2.51.26,3.87.34s2.75.11,4.17.11c2,0,4.05-.07,6-.21s3.82-.35,5.49-.63l.72,15.08a41.66,41.66,0,0,0-3.12-5,20.7,20.7,0,0,0-3.64-3.93c-.1.88-.18,1.81-.22,2.78s-.07,2-.07,3c0,1.31,0,2.67.13,4.05s.2,2.79.37,4.19.37,2.81.63,4.2S137.88,204.73,138.23,206.06Z"/><path class="cls-2" d="M161.45,188a9.83,9.83,0,0,1-.42,2.85,6,6,0,0,1-1.47,2.46,7.47,7.47,0,0,1-2.84,1.72,13.64,13.64,0,0,1-4.55.64,4.41,4.41,0,0,0,.41,1.6,3.24,3.24,0,0,0,.77,1,3.19,3.19,0,0,0,1,.59,5.28,5.28,0,0,0,.94.27,6,6,0,0,0,1,.08,6.12,6.12,0,0,0,2.16-.63,4.13,4.13,0,0,0,.81-.5,3.86,3.86,0,0,0,1.24-1.68,4.4,4.4,0,0,0,.24-1.24,12.11,12.11,0,0,1,.71,2.38,11,11,0,0,1,.21,2.06,8,8,0,0,1-.64,3.23,7.81,7.81,0,0,1-1.74,2.55,8.13,8.13,0,0,1-2.65,1.67,9,9,0,0,1-3.33.59,9.76,9.76,0,0,1-3.39-.6,7.7,7.7,0,0,1-2.89-1.93,9.42,9.42,0,0,1-2-3.42,15.37,15.37,0,0,1-.75-5.12,16.65,16.65,0,0,1,.93-5.78,12.78,12.78,0,0,1,2.52-4.23,10.86,10.86,0,0,1,3.66-2.6,11.09,11.09,0,0,1,4.37-.89,9.23,9.23,0,0,1,2.18.26,5,5,0,0,1,1.83.84A4.13,4.13,0,0,1,161,185.7,4.93,4.93,0,0,1,161.45,188Zm-9.35,4.45a5.74,5.74,0,0,0,1.27-.22,6.05,6.05,0,0,0,1.36-.58,3.9,3.9,0,0,0,1.09-.92,2,2,0,0,0,.44-1.25.9.9,0,0,0-.32-.72,1.16,1.16,0,0,0-.8-.28,2,2,0,0,0-1.22.4,3.71,3.71,0,0,0-.92,1,6.2,6.2,0,0,0-.9,2.6Z"/><path class="cls-2" d="M192.25,206.53a12.3,12.3,0,0,0-1.28-.13c-.45,0-.91,0-1.39,0s-1.17,0-1.76,0l-1.72.13c-.56,0-1.09.11-1.6.18l-1.37.17a23.72,23.72,0,0,0,.46-2.45c.14-1,.25-2,.34-3.19s.16-2.38.21-3.66.07-2.59.07-3.9c0-.2,0-.46,0-.78s0-.68,0-1.06-.07-.76-.13-1.14a5.87,5.87,0,0,0-.25-1,2.53,2.53,0,0,0-.41-.77.8.8,0,0,0-.62-.29,1,1,0,0,0-.76.49,6,6,0,0,0-.72,1.31c0,.73.07,1.59.09,2.59s.05,2,.06,3.11,0,2.15,0,3.2,0,2,0,2.84,0,1.5,0,2a2.55,2.55,0,0,0,.06.77l-1.61-.22a14.52,14.52,0,0,0-1.48-.07,16.21,16.21,0,0,0-2.11.15c-.75.11-1.66.27-2.71.49.17-1.24.32-2.51.47-3.83q.18-1.69.33-3.75c.1-1.36.16-2.71.16-4,0-.2,0-.46,0-.78s0-.68-.05-1.06-.07-.76-.13-1.14a5.87,5.87,0,0,0-.25-1,2.34,2.34,0,0,0-.42-.77.82.82,0,0,0-.63-.29,1.44,1.44,0,0,0-1,.36,2.53,2.53,0,0,0-.64,1,5.89,5.89,0,0,0-.32,1.4,14.64,14.64,0,0,0-.09,1.67c0,1.1,0,2.22.08,3.36s.14,2.25.25,3.36.27,2.21.45,3.28a29.48,29.48,0,0,0,.69,3l-.78-.06-.92,0h-1.21c-.85,0-1.83,0-2.93.1s-2.31.21-3.6.4a24.66,24.66,0,0,0,.41-2.67c.12-1.06.22-2.2.3-3.44s.14-2.53.18-3.88.07-2.68.07-4c0-1,0-1.93,0-2.87s-.06-1.83-.11-2.66-.1-1.6-.18-2.3-.17-1.31-.28-1.82c1.06.18,2,.31,2.93.38s1.72.11,2.45.11q.69,0,1.26,0c.37,0,.68,0,.94-.07l.82-.12c-.08.34-.14.7-.2,1.09s-.12.8-.19,1.24a8,8,0,0,1,2.35-2.12,4.87,4.87,0,0,1,2.46-.71,4.28,4.28,0,0,1,2.74.83,5,5,0,0,1,1.61,2.64,8.45,8.45,0,0,1,2.53-2.61,5,5,0,0,1,2.71-.86,5.42,5.42,0,0,1,2.51.57A4.76,4.76,0,0,1,190.2,185a9.83,9.83,0,0,1,1.13,3.14,22.58,22.58,0,0,1,.4,4.59c0,1.23,0,2.5,0,3.83s0,2.62,0,3.86.09,2.4.16,3.48A23.41,23.41,0,0,0,192.25,206.53Z"/><path class="cls-2" d="M214.09,206.41l-.86-.07q-.4,0-1-.06c-.38,0-.8,0-1.26,0-.65,0-1.36,0-2.14.08a23.2,23.2,0,0,0-2.39.29l.08-5.49a10.31,10.31,0,0,1-2.18,4.49,4.39,4.39,0,0,1-3.37,1.58,7,7,0,0,1-1.36-.15,5.5,5.5,0,0,1-1.56-.6,6.7,6.7,0,0,1-1.54-1.22,7.47,7.47,0,0,1-1.34-2,12.9,12.9,0,0,1-.93-3,21.23,21.23,0,0,1-.36-4.19,20.77,20.77,0,0,1,.67-5.61,12.68,12.68,0,0,1,1.7-3.82,6.94,6.94,0,0,1,2.28-2.17,5.16,5.16,0,0,1,2.44-.68,5.66,5.66,0,0,1,1.85.28,5.85,5.85,0,0,1,2.59,1.71,7,7,0,0,1,.76,1.09q-.06-.66-.18-1.41c-.08-.5-.17-1-.27-1.55a20.22,20.22,0,0,0,2.58.33c.87.05,1.68.08,2.42.08.89,0,1.6,0,2.15-.06l.86-.06q-.23,1-.39,2.19c-.12.8-.22,1.67-.31,2.58s-.15,1.89-.19,2.89-.07,2.05-.07,3.1q0,3,.29,5.92A33.71,33.71,0,0,0,214.09,206.41Zm-8-11.19v-3.16A10,10,0,0,0,206,191a3.14,3.14,0,0,0-.26-1,1.79,1.79,0,0,0-.6-.73,1.74,1.74,0,0,0-1-.29,1.53,1.53,0,0,0-1.16.49,3.56,3.56,0,0,0-.75,1.34,10.24,10.24,0,0,0-.39,2c-.07.78-.1,1.62-.1,2.53a12.08,12.08,0,0,0,.1,1.58,6.77,6.77,0,0,0,.37,1.46,2.73,2.73,0,0,0,.68,1.06,1.47,1.47,0,0,0,1,.41,1.44,1.44,0,0,0,1.14-.49,3.34,3.34,0,0,0,.65-1.21,7.35,7.35,0,0,0,.3-1.51A12.52,12.52,0,0,0,206.06,195.22Z"/><path class="cls-2" d="M238.25,192.37A11.89,11.89,0,0,1,240,193a5.36,5.36,0,0,1,1.54,1.14,5.23,5.23,0,0,1,1.08,1.78,7.17,7.17,0,0,1,.41,2.62,8.88,8.88,0,0,1-.69,3.52,7.5,7.5,0,0,1-2.09,2.8,10.05,10.05,0,0,1-3.52,1.86,16.47,16.47,0,0,1-5,.67,12.43,12.43,0,0,1-4.39-.71,9.14,9.14,0,0,1-3.12-1.91,7.58,7.58,0,0,1-1.87-2.72,8.43,8.43,0,0,1-.62-3.16,5,5,0,0,1,.4-2.08,4.14,4.14,0,0,1,1.08-1.48,4.56,4.56,0,0,1,1.62-.89,6.72,6.72,0,0,1,2-.29,7.78,7.78,0,0,1,1.61.17,6.56,6.56,0,0,1,1.49.52,6,6,0,0,1,1.25.83,4.07,4.07,0,0,1,.89,1.11,3,3,0,0,0-.71-.11,1.24,1.24,0,0,0-.53.12,1.65,1.65,0,0,0-.48.35,1.49,1.49,0,0,0-.34.49,1.38,1.38,0,0,0-.13.6,2,2,0,0,0,.13.69,1.86,1.86,0,0,0,.39.66,2.28,2.28,0,0,0,2.64.44,2.14,2.14,0,0,0,.69-.6,2.21,2.21,0,0,0,.36-.76,3.1,3.1,0,0,0,.11-.76,4.49,4.49,0,0,0-.57-2.38,5.46,5.46,0,0,0-1.38-1.52,8,8,0,0,0-1.7-1c-.59-.24-1.11-.48-1.55-.7a19.06,19.06,0,0,0,2.22-.76,5.36,5.36,0,0,0,1.63-1,3.83,3.83,0,0,0,1-1.58,7.16,7.16,0,0,0,.35-2.4,3.1,3.1,0,0,0-.11-.76,2.26,2.26,0,0,0-.36-.77,2,2,0,0,0-.69-.6,2.09,2.09,0,0,0-1.05-.23,2.12,2.12,0,0,0-.93.19,2,2,0,0,0-.66.49,1.82,1.82,0,0,0-.39.65,2,2,0,0,0-.13.7,1.31,1.31,0,0,0,.13.59,1.43,1.43,0,0,0,.34.5,1.45,1.45,0,0,0,.48.34,1.12,1.12,0,0,0,.53.13,2.62,2.62,0,0,0,.71-.12,4.15,4.15,0,0,1-.89,1.13,5.33,5.33,0,0,1-1.25.83,6.53,6.53,0,0,1-1.49.5,7.16,7.16,0,0,1-1.61.18,6.72,6.72,0,0,1-2-.29,4.56,4.56,0,0,1-1.62-.89,4.09,4.09,0,0,1-1.08-1.49,5,5,0,0,1-.4-2.1,8.33,8.33,0,0,1,.62-3.14,7.67,7.67,0,0,1,1.87-2.72,9.28,9.28,0,0,1,3.12-1.9,12.43,12.43,0,0,1,4.39-.71,14.67,14.67,0,0,1,5,.76,10.28,10.28,0,0,1,3.52,2,8.3,8.3,0,0,1,2.09,2.91,8.62,8.62,0,0,1,.69,3.38,6.27,6.27,0,0,1-.42,2.33,6.3,6.3,0,0,1-2.64,3.18A5.71,5.71,0,0,1,238.25,192.37Z"/></g></svg>